<?xml version="1.0" encoding="UTF-8"?><svg id="_레이어_2" xmlns="http://www.w3.org/2000/svg" viewBox="0 0 32 32"><defs><style>.cls-1{fill:#00ebcd;}.cls-2{fill:#192364;}.cls-3{fill:none;}.cls-4{fill:#3c00ff;}</style></defs><g id="_레이어_1-2"><rect class="cls-3" width="32" height="32"/><path class="cls-1" d="m30.36,5.68c-.29-.5-.84-.83-1.42-.82-.88,0-1.64.73-1.64,1.64,0,0,0,4.5,0,4.5l2.89-3.45c.45-.54.5-1.29.17-1.87Z"/><path class="cls-2" d="m24.26,9.77h0c-.84-.31-1.78.13-2.09.97l-2.91,8-2.91-8c-.31-.84-1.24-1.28-2.09-.97h0c-.84.31-1.28,1.24-.97,2.09l4.44,12.2c.23.64.86,1.07,1.53,1.07.67,0,1.3-.43,1.53-1.07l4.44-12.2c.31-.84-.13-1.78-.97-2.09Z"/><path class="cls-4" d="m15.38,9.77h0c-.84-.31-1.78.13-2.09.97l-2.91,8-2.91-8c-.31-.84-1.24-1.28-2.09-.97h0c-.84.31-1.28,1.24-.97,2.09l4.44,12.2c.23.64.86,1.07,1.53,1.07.67,0,1.3-.43,1.53-1.07l4.44-12.2c.31-.84-.13-1.78-.97-2.09Z"/></g></svg>