<?xml version="1.0" standalone="no"?>
<!DOCTYPE svg PUBLIC "-//W3C//DTD SVG 1.1//EN" "http://www.w3.org/Graphics/SVG/1.1/DTD/svg11.dtd" >
<svg xmlns="http://www.w3.org/2000/svg">
<metadata>Generated by IcoMoon</metadata>
<defs>
<font id="wv_admin_ico" horiz-adv-x="1024">
<font-face units-per-em="1024" ascent="960" descent="-64" />
<missing-glyph horiz-adv-x="1024" />
<glyph unicode="&#x20;" horiz-adv-x="512" d="" />
<glyph unicode="&#xe900;" glyph-name="map_marker" horiz-adv-x="1009" d="M668.688 687.827c-42.739 43.058-100.81 67.406-161.477 67.704-60.663 0.155-118.911-23.761-161.965-66.5-43.052-42.739-67.391-100.811-67.679-161.475 0.026-25.83 4.513-51.462 13.262-75.764 39.18-121.397 108.45-230.899 201.358-318.307l12.471-10.835 12.55 10.743c93.649 86.679 163.817 195.664 203.959 316.793 8.975 24.231 13.717 49.825 14.017 75.663 0.157 60.666-23.758 118.919-66.496 161.978zM684.826 462.181c-36.69-108.676-98.253-207.281-179.785-287.959-81.105 81.193-142.060 180.259-177.976 289.257l-0.189 0.613c-7.371 20.288-11.175 41.699-11.242 63.285-0.263 25.252 4.494 50.305 13.998 73.702s23.561 44.671 41.358 62.588c17.796 17.916 38.976 32.117 62.309 41.776s48.353 14.585 73.607 14.491c25.252-0.094 50.235-5.206 73.495-15.040s44.333-24.193 61.996-42.241 31.561-39.428 40.89-62.896c9.327-23.467 13.899-48.554 13.447-73.803-0.249-21.583-4.212-42.961-11.715-63.2l-0.193-0.573zM437.732 424.863c20.152-13.568 43.875-20.853 68.168-20.936 32.55-0.080 63.803 12.75 86.904 35.681s36.166 54.086 36.329 86.635c0.098 24.292-7.011 48.069-20.427 68.321s-32.538 36.071-54.945 45.455c-22.408 9.384-47.095 11.912-70.94 7.263s-45.774-16.264-63.017-33.378c-17.241-17.114-29.022-38.957-33.848-62.765-4.826-23.809-2.482-48.516 6.734-70.992s24.892-41.716 45.043-55.283zM459.636 597.197c13.944 9.235 30.313 14.127 47.038 14.057 22.412-0.114 43.864-9.114 59.648-25.024 15.786-15.911 24.614-37.433 24.551-59.845-0.063-16.723-5.083-33.055-14.428-46.926-9.343-13.871-22.592-24.658-38.068-30.999-15.476-6.34-32.486-7.949-48.876-4.623s-31.427 11.44-43.205 23.314c-11.779 11.873-19.772 26.972-22.97 43.388-3.196 16.416-1.454 33.412 5.010 48.837s17.355 28.587 31.299 37.821z" />
<glyph unicode="&#xe901;" glyph-name="map_marker_fill" d="M506.674 755.535c-35.992 0.489-71.566-7.768-103.664-24.060s-59.762-40.133-80.612-69.475c-20.852-29.341-34.269-63.307-39.098-98.977s-0.926-71.981 11.374-105.81c41.084-126.37 113.159-240.441 209.648-331.805 97.169 90.642 170.094 204.171 212.12 330.231 12.551 33.736 16.725 70.015 12.162 105.722-4.563 35.705-17.724 69.77-38.356 99.267s-48.116 53.543-80.091 70.075c-31.977 16.53-67.487 25.053-103.483 24.832zM505.518 445.828c-16.835 0.063-33.273 5.116-47.237 14.52s-24.823 22.737-31.21 38.315c-6.385 15.577-8.011 32.696-4.667 49.196 3.343 16.5 11.502 31.637 23.448 43.5 11.947 11.862 27.142 19.917 43.663 23.144 16.523 3.227 33.633 1.483 49.164-5.012s28.788-17.45 38.094-31.479c9.307-14.029 14.244-30.502 14.188-47.337-0.083-22.581-9.133-44.203-25.155-60.115-16.023-15.91-37.708-24.807-60.289-24.733z" />
<glyph unicode="&#xe902;" glyph-name="meatball_circle3" d="M343.162 446.461c-0.039-10.333-3.14-20.424-8.913-28.994s-13.958-15.237-23.519-19.155c-9.56-3.919-20.070-4.914-30.198-2.861s-19.417 7.066-26.697 14.4c-7.281 7.334-12.221 16.662-14.199 26.804s-0.904 20.643 3.085 30.175c3.991 9.532 10.718 17.668 19.331 23.377s18.726 8.735 29.059 8.697c13.857-0.052 27.124-5.607 36.886-15.442 9.762-9.833 15.216-23.144 15.164-37.001zM559.214 445.655c-0.039-10.329-3.137-20.413-8.904-28.982-5.769-8.567-13.947-15.234-23.502-19.156s-20.057-4.924-30.181-2.881c-10.124 2.045-19.416 7.045-26.7 14.367-7.285 7.322-12.235 16.639-14.226 26.774s-0.933 20.633 3.038 30.166c3.973 9.534 10.681 17.677 19.279 23.401s18.699 8.768 29.028 8.753c6.861-0.025 13.65-1.402 19.978-4.051 6.33-2.649 12.074-6.519 16.908-11.389s8.661-10.644 11.263-16.992 3.928-13.149 3.903-20.010zM775.224 444.849c-0.039-10.333-3.142-20.424-8.915-28.994s-13.958-15.237-23.518-19.156c-9.562-3.918-20.072-4.914-30.199-2.86s-19.417 7.064-26.697 14.398c-7.279 7.334-12.221 16.663-14.199 26.805s-0.904 20.643 3.085 30.175c3.991 9.532 10.718 17.666 19.331 23.375s18.726 8.735 29.059 8.697c13.857-0.052 27.126-5.605 36.886-15.44 9.762-9.835 15.218-23.144 15.166-37.001z" />
<glyph unicode="&#xe903;" glyph-name="menu_dash3" d="M781.118 620.473l-539.546 2.014 0.145 38.816 539.546-2.014-0.145-38.816zM780.404 429.262l-539.546 2.014 0.145 38.816 539.546-2.012-0.145-38.817zM779.691 238.058l-539.544 2.014 0.144 38.816 539.546-2.014-0.145-38.816z" />
<glyph unicode="&#xe904;" glyph-name="menu_desh3_round" d="M792.192 617.631l-539.544 2.014c-5.148 0.018-10.077 2.082-13.702 5.734-3.627 3.654-5.653 8.599-5.633 13.745 0.019 5.148 2.082 10.077 5.736 13.702 3.654 3.627 8.597 5.653 13.744 5.633l539.546-2.014c5.147-0.019 10.077-2.082 13.702-5.736s5.653-8.597 5.633-13.745c-0.019-5.147-2.082-10.075-5.736-13.702s-8.597-5.651-13.745-5.632zM791.478 426.419l-539.544 2.014c-5.148 0.018-10.077 2.082-13.702 5.734-3.627 3.654-5.653 8.599-5.633 13.745 0.019 5.148 2.082 10.077 5.736 13.702 3.654 3.627 8.597 5.653 13.745 5.633l539.544-2.014c5.147-0.019 10.077-2.082 13.702-5.736 3.627-3.654 5.653-8.597 5.633-13.745s-2.082-10.075-5.736-13.702c-3.654-3.626-8.597-5.651-13.745-5.632zM790.764 235.213l-539.544 2.014c-5.148 0.019-10.077 2.084-13.702 5.736-3.627 3.654-5.653 8.599-5.633 13.745s2.082 10.077 5.736 13.702c3.654 3.626 8.597 5.653 13.745 5.633l539.544-2.014c5.148-0.019 10.077-2.082 13.702-5.736 3.627-3.654 5.653-8.597 5.633-13.745s-2.082-10.075-5.736-13.702c-3.654-3.626-8.597-5.651-13.745-5.633z" />
<glyph unicode="&#xe905;" glyph-name="multi_people_b" d="M301.151 689.026c-19.763-19.649-30.95-45.819-31.052-73.255v-0.128h-0.001c-0.565-57.825 46.276-105.586 103.887-105.801l0.126-0.001c57.826-0.567 105.588 46.276 105.803 103.886v0.128h0.001c0.565 57.826-46.276 105.588-103.887 105.803-27.937 0.104-54.659-10.949-74.877-30.631zM271.728 719.065c27.885 27.192 65.149 42.787 104.457 42.64 81.129-0.303 146.536-67.299 145.776-148.202-0.34-81.095-67.318-146.465-148.197-145.708-81.098 0.335-146.471 67.317-145.714 148.198 0.163 38.945 16.093 75.694 43.545 102.942l0.132 0.131zM149.173 211.714l-0.142-38.263c-0.071-19.084 15.267-34.537 34.35-34.608l334.707-1.25c1.358 0.27 2.763 0.41 4.201 0.405l47.46-0.178c16.51 2.526 29.131 16.709 29.194 33.952l0.144 38.263c0.205 54.831-20.128 102.67-49.833 128.861-1.034 0.727-2.006 1.551-2.904 2.467-2.953 2.415-5.993 4.62-9.108 6.601-51.463 31.505-106.895 47.715-162.421 47.922l-0.147 0.001c-55.864 0.6-110.95-15.176-162.645-46.718-36.155-22.21-62.623-74.951-62.856-137.455zM572.256 95.762c-2.655-0.267-5.349-0.399-8.076-0.389l-380.955 1.422c-42.307 0.157-76.4 34.507-76.242 76.813l0.143 38.263c0.269 72.038 30.589 141.015 82.928 173.147l0.047 0.030c57.852 35.303 120.595 53.563 184.951 52.886 63.814-0.252 126.75-18.934 184.304-54.204l0.269-0.168c1.54-0.977 3.062-1.984 4.563-3.023 40.357 17.702 82.738 26.922 125.719 26.364 57.951-0.236 114.571-17.231 166.624-49.085l0.269-0.168c47.307-29.938 74.676-93.105 74.433-158.107l-0.129-34.479c-0.144-38.942-31.961-70.522-70.904-70.377l-287.943 1.074zM632.903 137.584l227.453-0.849c15.719-0.058 28.641 12.766 28.699 28.486l0.129 34.479c0.206 55.183-23.249 102.32-54.744 122.338-46.046 28.147-95.185 42.631-144.791 42.817l-0.202 0.001c-30.897 0.413-61.775-5.11-91.96-16.21 28.28-36.423 43.841-86.912 43.648-138.768l-0.142-38.263c-0.046-12.242-2.955-23.795-8.090-34.031zM690.734 655.83c-24.809 0.092-48.477-9.455-65.966-26.814-17.257-17.128-27.212-40.38-27.301-64.505l-0.001-0.141c-0.534-51.105 40.454-92.936 91.319-93.126l0.141-0.001c51.107-0.534 92.938 40.454 93.128 91.319v0.141h0.001c0.533 51.107-40.455 92.938-91.32 93.128zM595.146 658.859c25.56 25.37 60.006 39.152 95.745 39.019 74.415-0.278 133.945-61.381 133.209-135.542-0.316-74.382-61.403-133.875-135.542-133.139-74.384 0.315-133.875 61.404-133.139 135.543 0.151 35.558 14.795 69.372 39.727 94.119z" />
<glyph unicode="&#xe906;" glyph-name="multi_people_sm" d="M293.029 173.734c-5.429 0.021-10.626 2.193-14.455 6.043-3.827 3.85-5.973 9.059-5.963 14.487l0.439 117.683c0.187 36.002 10.55 71.22 29.893 101.585s46.877 54.643 79.427 70.031c-22.118 13.578-40.374 32.617-53.014 55.284s-19.239 48.205-19.164 74.158c0.211 40.127 16.323 78.535 44.804 106.803s67.007 44.093 107.134 44.005c22.564-0.089 44.817-5.265 65.101-15.146 20.286-9.881 38.079-24.209 52.059-41.92 2.407 0.186 4.891 0.368 7.493 0.358 36.532-0.187 71.503-14.832 97.264-40.736s40.216-60.955 40.203-97.488c-0.043-22.378-5.589-44.402-16.147-64.134-10.558-19.731-25.803-36.564-44.396-49.017 29.556-14.266 54.453-36.635 71.788-64.502 17.337-27.868 26.398-60.087 26.133-92.905l-0.395-105.652c-0.031-5.421-2.208-10.61-6.056-14.428-3.848-3.82-9.051-5.96-14.474-5.95l-447.676 1.438zM720.479 213.088l0.319 85.39c0.301 30.907-10.253 60.938-29.827 84.858s-46.921 40.212-77.276 46.034c26.792-33.704 41.246-75.559 40.97-118.613l-0.362-97.034 66.176-0.635zM613.354 213.488l0.362 97.034c-0.070 26.191-6.994 51.906-20.085 74.59s-31.895 41.543-54.538 54.705c-8.434 3.087-16.532 7.018-24.175 11.734-16.114 6.122-33.184 9.354-50.421 9.544-39.722 0.107-77.866-15.548-106.058-43.532-28.193-27.982-44.134-66.008-44.324-105.729l-0.362-97.035 299.602-1.312zM558.444 476.776c8.915-2.891 18.209-4.445 27.58-4.607 25.735-0.096 50.456 10.035 68.722 28.164 18.264 18.129 28.579 42.772 28.673 68.507 0.006 22.849-8.027 44.97-22.694 62.489s-35.031 29.319-57.525 33.33c6.525-16.817 9.854-34.705 9.817-52.745-0.248-25.391-6.853-50.316-19.216-72.496-12.362-22.179-30.085-40.907-51.55-54.472 5.619-2.467 10.887-5.202 16.193-8.171zM461.233 502.055c29.28-0.068 57.391 11.481 78.17 32.112s32.526 48.659 32.666 77.94c0.079 29.28-11.46 57.396-32.084 78.182-20.622 20.786-48.647 32.544-77.928 32.694-29.291 0.079-57.417-11.464-78.21-32.094-20.792-20.631-32.556-48.667-32.706-77.956-0.068-29.292 11.485-57.414 32.124-78.199 20.637-20.784 48.677-32.536 77.968-32.677z" />
<glyph unicode="&#xe907;" glyph-name="paperclip" d="M513.974 151.648c-48.698 0.233-95.315 19.775-129.622 54.339s-53.5 81.325-53.37 130.024l0.988 265.154 38.817-0.145-0.99-265.154c-0.144-38.419 14.982-75.322 42.046-102.59 27.066-27.27 63.855-42.668 102.275-42.812s75.323 14.982 102.591 42.046c27.268 27.066 42.668 63.855 42.811 102.275l1.042 279.049c0.301 12.566-1.907 25.064-6.496 36.765s-11.466 22.368-20.229 31.377c-8.763 9.010-19.236 16.181-30.805 21.091-11.57 4.912-24.002 7.466-36.57 7.512-12.568 0.047-25.020-2.413-36.625-7.239s-22.13-11.917-30.96-20.861c-8.83-8.943-15.787-19.558-20.464-31.225s-6.978-24.149-6.769-36.716l-0.936-250.791c-0.043-11.561 4.507-22.666 12.652-30.871s19.216-12.839 30.776-12.882c11.561-0.043 22.665 4.509 30.87 12.652 8.205 8.145 12.84 19.216 12.883 30.776l0.883 236.778 38.817-0.145-0.884-236.778c-0.040-10.822-2.211-21.529-6.39-31.512-4.178-9.982-10.283-19.043-17.963-26.667-7.681-7.624-16.788-13.661-26.801-17.764s-20.738-6.196-31.56-6.156c-10.822 0.042-21.529 2.213-31.512 6.392-9.982 4.178-19.043 10.282-26.667 17.963s-13.661 16.788-17.764 26.801c-4.105 10.014-6.196 20.738-6.156 31.56l0.936 250.791c-0.236 17.694 3.054 35.258 9.678 51.669 6.623 16.409 16.448 31.336 28.901 43.909s27.284 22.54 43.63 29.321c16.345 6.781 33.878 10.24 51.574 10.173 17.696-0.065 35.202-3.655 51.495-10.558 16.295-6.902 31.051-16.981 43.41-29.646s22.071-27.666 28.573-44.124c6.5-16.458 9.658-34.047 9.29-51.739l-1.040-279.050c-0.233-48.698-19.777-95.315-54.34-129.622s-81.325-53.5-130.024-53.37z" />
<glyph unicode="&#xe908;" glyph-name="paperclip_rot" d="M363.668 195.818c-41.457 24.2-71.62 63.858-83.871 110.272s-5.588 95.792 18.524 137.299l131.527 225.862 33.065-19.254-131.528-225.862c-19.057-32.726-24.335-71.683-14.67-108.3 9.665-36.618 33.482-67.896 66.207-86.954 32.727-19.058 71.683-24.335 108.301-14.67s67.894 33.48 86.952 66.207l138.421 237.698c6.45 10.578 10.724 22.335 12.573 34.585 1.851 12.25 1.236 24.746-1.804 36.756s-8.447 23.293-15.901 33.188c-7.455 9.895-16.81 18.202-27.515 24.437-10.707 6.235-22.548 10.269-34.834 11.871-12.285 1.6-24.765 0.734-36.712-2.55-11.946-3.283-23.116-8.916-32.857-16.57-9.743-7.654-17.859-17.175-23.875-28.005l-124.403-213.628c-5.734-9.846-7.323-21.57-4.413-32.588 2.908-11.018 10.075-20.43 19.921-26.165 9.848-5.736 21.571-7.323 32.59-4.415s20.43 10.075 26.165 19.923l117.453 201.691 33.065-19.254-117.453-201.691c-5.369-9.219-12.5-17.29-20.986-23.751-8.487-6.463-18.164-11.189-28.479-13.912-10.313-2.722-21.064-3.388-31.634-1.956s-20.755 4.933-29.974 10.3c-9.217 5.369-17.288 12.5-23.751 20.986-6.461 8.487-11.189 18.164-13.912 28.479-2.722 10.313-3.387 21.062-1.954 31.633s4.931 20.756 10.3 29.975l124.403 213.627c8.52 15.221 19.984 28.594 33.726 39.338s29.485 18.644 46.313 23.239c16.827 4.596 34.401 5.794 51.696 3.527s33.966-7.956 49.039-16.734c15.073-8.779 28.249-20.47 38.757-34.393s18.138-29.798 22.445-46.702c4.308-16.903 5.206-34.494 2.645-51.749-2.563-17.254-8.534-33.826-17.569-48.747l-138.42-237.698c-24.202-41.457-63.86-71.62-110.273-83.871s-95.792-5.59-137.299 18.524z" />
<glyph unicode="&#xe909;" glyph-name="pen" d="M798.224 733.031c60.167-60.618 59.802-158.631-0.816-218.798l-72.055-71.52c-0.093-0.096-0.188-0.193-0.285-0.288s-0.193-0.19-0.291-0.283l-264.078-262.114c-2.686-2.665-6.101-4.477-9.814-5.205l-239.791-47.028c-6.289-1.233-12.779 0.757-17.294 5.307-4.516 4.549-6.459 11.053-5.178 17.332l48.817 239.433c0.755 3.709 2.593 7.11 5.279 9.775l336.709 334.205c60.616 60.167 158.631 59.8 218.798-0.818zM711.662 483.142l58.738 58.301c45.59 45.25 45.865 118.99 0.614 164.581-45.25 45.589-118.99 45.865-164.581 0.614l-58.738-58.301 163.966-165.195zM520.486 621.329l-246.642-244.807-41.913-205.572 205.879 40.377 246.642 244.807-163.966 165.195z" />
<glyph unicode="&#xe90a;" glyph-name="pen_fill" d="M485.088 616.755l-202.339-200.988-39.831-195.281 195.536 38.41 202.339 200.834-155.705 157.025zM713.994 688.099c-20.67 20.816-48.763 32.572-78.099 32.682s-57.515-11.435-78.342-32.098l-45.315-44.977 155.859-157.025 45.313 44.977c20.816 20.67 32.572 48.763 32.682 78.099 0.11 29.338-11.435 57.517-32.098 78.342z" />
<glyph unicode="&#xe90b;" glyph-name="pen-1" d="M281.483 415.544l274.804 272.76c10.307 10.255 22.54 18.371 35.995 23.881 13.454 5.511 27.866 8.309 42.404 8.231 14.533-0.032 28.918-2.939 42.325-8.55 13.406-5.612 25.571-13.817 35.795-24.146 20.661-20.827 32.208-49.004 32.098-78.342-0.11-29.336-11.865-57.427-32.683-78.099l-274.84-272.76-195.727-38.524 39.831 195.549zM316.687 396.551l-26.071-127.843 128.034 25.116 194.082 192.68-101.884 102.611-194.161-192.563zM639.92 513.488l45.315 44.98c6.773 6.669 12.153 14.618 15.825 23.387s5.562 18.179 5.562 27.686c0.070 9.511-1.751 18.941-5.357 27.743s-8.925 16.799-15.648 23.527c-6.668 6.766-14.612 12.14-23.372 15.812s-18.164 5.566-27.663 5.575c-9.51 0.057-18.935-1.77-27.734-5.375-8.801-3.606-16.799-8.918-23.534-15.631l-45.316-44.977 101.923-102.728z" />
<glyph unicode="&#xe90c;" glyph-name="people" d="M513.288 450.553l0.776-0.003-0.040-0.117c35.638-0.226 69.905 13.716 95.265 38.756 25.358 25.039 39.733 59.128 39.958 94.765s-13.716 69.905-38.755 95.265c-25.041 25.358-59.129 39.733-94.766 39.958l-0.427 0.001c-34.95-0.76-68.23-15.109-92.773-40.004s-38.418-58.374-38.679-93.331c-0.263-34.958 13.11-68.642 37.278-93.902 24.166-25.259 57.227-40.105 92.163-41.387zM447.362 652.916c18.064 17.778 42.45 27.651 67.793 27.448l0.272-0.001c25.343-0.16 49.584-10.384 67.391-28.418s27.719-42.404 27.557-67.749c-0.162-25.343-10.384-49.584-28.418-67.391-18.036-17.806-42.405-27.719-67.749-27.557l-0.582 0.003c-25.343 0.202-49.569 10.464-67.347 28.528-17.776 18.064-27.649 42.45-27.448 67.793 0.203 25.343 10.466 49.568 28.53 67.345zM254.451 173.417l518.628-1.935 0.358 85.467c0.114 26.824-7.511 53.111-21.96 75.711-14.447 22.601-35.107 40.555-59.502 51.709l-0.194 0.001c-55.719 24.776-115.988 37.679-176.966 37.884l-2.057 0.007c-60.415 0.306-120.209-12.169-175.46-36.607-24.629-10.788-45.567-28.546-60.229-51.084-14.664-22.538-22.415-48.874-22.298-75.763l-0.319-85.39zM734.408 210.439l-440.998 1.646 0.174 46.732c-0.104 19.351 5.46 38.308 16.004 54.532s25.609 29.007 43.334 36.771c50.284 22.246 104.705 33.604 159.689 33.327l1.941-0.007c55.605-0.186 110.562-11.944 161.376-34.525 17.573-8.063 32.452-21.017 42.854-37.315s15.888-35.248 15.801-54.584l-0.175-46.576z" />
<glyph unicode="&#xe90d;" glyph-name="people_fill" d="M511.013 413.093c64.538-0.271 128.32-13.913 187.323-40.068 23.21-10.629 42.857-27.734 56.582-49.26 13.723-21.524 20.941-46.554 20.784-72.082l-0.271-72.692-530.577 1.981 0.271 72.692c-0.126 25.574 7.232 50.625 21.166 72.069s33.839 38.343 57.258 48.615c59.089 26.049 123.044 39.229 187.617 38.669zM512.127 711.781c30.496-0.284 59.952-11.124 83.358-30.673 23.407-19.551 39.32-46.605 45.031-76.563 5.712-29.958 0.87-60.969-13.7-87.761-14.572-26.791-37.973-47.708-66.225-59.193s-59.61-12.832-88.741-3.808c-29.133 9.024-54.238 27.86-71.051 53.305-16.811 25.445-24.291 55.928-21.166 86.265s16.662 58.655 38.309 80.138c12.386 12.294 27.089 22.007 43.255 28.58 16.167 6.573 33.477 9.874 50.929 9.71z" />
<glyph unicode="&#xe90e;" glyph-name="people_gear_b" d="M356.005 287.119c-27.635 0.102-50.121-22.216-50.225-49.851-0.102-27.635 22.216-50.12 49.851-50.223s50.121 22.216 50.223 49.851c0.104 27.635-22.215 50.12-49.85 50.223zM263.732 237.426c0.19 50.857 41.573 91.931 92.43 91.741s91.93-41.571 91.741-92.429c-0.19-50.857-41.573-91.931-92.43-91.741s-91.931 41.571-91.741 92.429zM593.93 848.774c1.25-0.237 2.538-0.363 3.856-0.368 60.894-0.227 109.914-50.44 109.331-111.716v-0.122c-0.227-60.892-50.44-109.912-111.715-109.329h-0.122c-60.892 0.227-109.914 50.44-109.331 111.715h0.001v0.122c0.107 28.804 11.801 56.66 32.815 77.518 19.974 19.824 47.119 31.307 75.165 32.179zM602.461 890.372c-1.453 0.324-2.965 0.498-4.516 0.504-40.396 0.151-79.885-15.738-108.801-44.437-28.773-28.559-45.075-67.011-45.242-107.143-0.769-84.159 66.613-153.753 151.157-154.103 84.161-0.769 153.757 66.616 154.105 151.163 0.752 82.674-64.261 151.291-146.704 154.016zM596.792 509.499l0.141-0.001c58.459-0.218 116.41-17.271 170.394-50.468 38.194-24.227 65.434-79.779 65.189-145.096l-0.15-40.365c-0.076-20.345-16.795-36.941-37.142-36.864l-239.794 0.895c-0.372 20.617-10.184 41.092-29.463 54.066-8.526 6.053-12.479 16.218-10.512 25.452l0.049 0.236c9.378 46.596-31.561 87.841-78.225 78.812l-0.237-0.047c-9.836-2.021-19.91 2.219-25.109 10.299l-0.104 0.159c-5.564 8.48-12.574 15.172-20.418 20.073 9.888 14.376 21.635 25.704 34.65 33.59l0.086 0.052c54.219 33.21 112.25 49.818 170.644 49.208zM541.567 195.602l253.501-0.947c43.567-0.162 79.182 35.188 79.345 78.756l0.15 40.366c0.28 75.064-30.824 146.674-84.864 180.855l-0.22 0.137c-60.072 36.971-125.541 56.514-192.319 56.777-66.867 0.684-132.553-18.398-192.935-55.373-23.277-14.118-42.236-34.953-56.357-59.971-18.162-2.232-35.555-11.883-47.052-28.97-6.053-8.526-16.219-12.479-25.453-10.51l-0.236 0.049c-46.596 9.376-87.841-31.561-78.812-78.226l0.047-0.236c2.021-9.838-2.219-19.912-10.299-25.11v0l-0.159-0.104c-39.914-26.191-40.212-84.397-0.656-111.013 8.526-6.053 12.479-16.219 10.512-25.453l-0.049-0.236c-9.378-46.595 31.56-87.841 78.225-78.811l0.236 0.046c9.838 2.021 19.912-2.219 25.11-10.298v-0.001l0.104-0.157c26.191-39.915 84.397-40.214 111.013-0.657 6.053 8.526 16.219 12.479 25.453 10.512l0.236-0.049c46.595-9.378 87.841 31.56 78.812 78.225l-0.047 0.237c-2.021 9.836 2.219 19.912 10.298 25.11l0.001-0.001 0.159 0.104c6.456 4.237 11.874 9.309 16.256 14.952zM357.036 394.641c1.031-0.183 2.066-0.286 3.097-0.313 6.407-1.055 12.463-4.644 16.501-10.761 14.855-23 42.451-34.003 68.722-28.668 17.228 3.271 32.342-11.957 28.944-29.16-5.65-26.796 6.175-53.558 27.703-68.627 0.129-0.091 0.26-0.18 0.392-0.267 14.708-9.811 14.649-31.268-0.093-40.999-23-14.857-34.003-42.453-28.668-68.724 3.271-17.228-11.957-32.342-29.162-28.944-26.796 5.65-53.557-6.175-68.627-27.703-0.091-0.129-0.18-0.26-0.267-0.392-9.81-14.708-31.266-14.648-40.999 0.093-14.855 23-42.451 34.003-68.722 28.668-17.228-3.269-32.342 11.957-28.944 29.162 5.65 26.796-6.175 53.558-27.703 68.627-0.129 0.091-0.26 0.18-0.392 0.267-14.708 9.81-14.649 31.266 0.092 40.999 23.001 14.855 34.004 42.451 28.669 68.722-3.271 17.228 11.957 32.344 29.16 28.944 26.796-5.65 53.558 6.175 68.627 27.703 0.091 0.129 0.18 0.26 0.267 0.392 5.089 7.628 13.309 11.285 21.402 10.981z" />
<glyph unicode="&#xe90f;" glyph-name="people_profile_b" d="M152.757 436.715c0.767 205.287 167.805 371.084 373.092 370.317s371.083-167.805 370.317-373.092c-0.343-91.909-34.016-175.904-89.527-240.578-14.24 41.445-44.544 77.294-84.060 104.353-28.093 19.236-61.241 34.363-97.684 44.298 54.725 33.59 91.322 93.887 91.578 162.816 0.395 105.893-85.129 192.059-191.023 192.454s-192.059-85.129-192.454-191.023c-0.257-68.93 35.89-129.499 90.363-163.496-36.511-9.663-69.769-24.542-98.003-43.566-39.727-26.769-70.301-62.402-84.847-103.75-55.041 65.091-88.095 149.345-87.752 241.268zM274.723 160.011c65.647-59.586 152.714-96.030 248.351-96.388 95.652-0.356 182.999 35.447 249.093 94.558-6.022 39.46-31.875 76.444-73.345 104.84-44.724 30.624-106.248 50.112-174.8 50.369-68.55 0.255-130.219-18.773-175.169-49.063-41.69-28.092-67.82-64.892-74.13-104.316zM526.007 849.081c-228.509 0.853-414.444-183.699-415.297-412.208s183.7-414.444 412.207-415.297c228.509-0.852 414.444 183.7 415.297 412.209s-183.698 414.444-412.207 415.297zM525.294 655.235c-82.672 0.309-149.942-66.461-150.25-149.133-0.309-82.671 66.461-149.94 149.133-150.249s149.94 66.461 150.249 149.132c0.309 82.672-66.461 149.942-149.132 150.25z" />
<glyph unicode="&#xe910;" glyph-name="people_profile_small" d="M297.561 219.7c-1.359 1.006-2.582 2.186-3.636 3.508-29.886 29.085-53.607 63.89-69.748 102.341-16.142 38.452-24.373 79.762-24.202 121.463 0.401 82.52 33.517 161.51 92.084 219.642s137.804 90.658 220.323 90.441c82.52-0.401 161.51-33.516 219.642-92.084s90.66-137.802 90.444-220.322c-0.141-41.665-8.667-82.876-25.067-121.178s-40.341-72.907-70.396-101.763c-1.109-1.468-2.419-2.771-3.894-3.869-57.771-53.92-133.951-83.748-212.974-83.392-79.136 0.245-155.183 30.73-212.576 85.213zM510.204 173.417c66.691-0.3 131.157 23.973 181.089 68.182-3.468 15.066-9.897 29.292-18.911 41.853-9.016 12.56-20.437 23.205-33.602 31.314-38.074 24.649-82.598 37.456-127.948 36.806-45.345 0.99-89.965-11.485-128.221-35.85-13.227-8.014-24.732-18.579-33.841-31.079s-15.642-26.686-19.219-41.733c49.625-44.587 113.94-69.328 180.653-69.492zM238.789 446.868c-0.294-62.451 20.977-123.086 60.22-171.667 12.482 25.523 30.41 47.997 52.521 65.84 22.109 17.844 47.862 30.621 75.445 37.431-19.23 13.564-34.908 31.564-45.702 52.476s-16.385 44.12-16.302 67.652c0.187 38.833 15.774 76.006 43.339 103.36s64.859 42.65 103.693 42.536c38.826-0.186 75.994-15.767 103.345-43.324 27.353-27.556 42.656-64.838 42.552-103.666-0.092-23.533-5.858-46.697-16.807-67.528s-26.761-38.713-46.092-52.133c27.526-7.015 53.18-19.978 75.154-37.979 21.976-18.002 39.74-40.601 52.038-66.208 39.604 48.287 61.327 108.762 61.499 171.213 0.177 72.228-28.302 141.579-79.192 192.836s-120.035 80.234-192.264 80.575c-72.225 0.177-141.572-28.298-192.833-79.179-51.262-50.879-80.253-120.011-80.616-192.236zM403.785 498.455c-0.065-28.54 11.191-55.939 31.3-76.19 20.108-20.253 47.429-31.705 75.969-31.842 28.535-0.076 55.936 11.173 76.189 31.275s31.707 47.417 31.843 75.954c0.076 28.535-11.173 55.937-31.275 76.19s-47.417 31.704-75.954 31.842c-28.538 0.076-55.945-11.171-76.205-31.272s-31.719-47.417-31.867-75.957z" />
<glyph unicode="&#xe911;" glyph-name="people_profile_small_fill" d="M513.894 154.011c-68.28 0.286-134.301 24.485-186.597 68.388 2.881 3.222 4.604 7.313 4.896 11.626 2.271 16.866 8.336 32.997 17.74 47.181 9.404 14.183 21.903 26.051 36.555 34.708 38.262 24.349 82.879 36.822 128.221 35.85 45.347 0.629 89.866-12.177 127.948-36.806 14.587-8.766 26.996-20.726 36.294-34.981 9.299-14.253 15.244-30.429 17.389-47.312 0.26-4.314 1.952-8.419 4.808-11.662-52.663-43.544-118.924-67.25-187.255-66.993zM732.625 251.434c-9.174 30.993-26.39 59.006-49.894 81.196-23.505 22.188-52.461 37.762-83.931 45.139 19.311 13.449 35.105 31.343 46.052 52.177 10.948 20.832 16.725 43.99 16.847 67.523 0.104 38.838-15.203 76.129-42.563 103.694-27.359 27.563-64.536 43.15-103.372 43.336-38.838 0.104-76.129-15.204-103.694-42.563-27.565-27.36-43.15-64.537-43.336-103.374-0.056-23.524 5.546-46.715 16.329-67.623 10.785-20.906 26.436-38.913 45.635-52.504-31.518-7.161-60.587-22.518-84.265-44.519s-41.126-49.866-50.577-80.774c-47.162 53.509-73.036 122.472-72.713 193.797 0.371 77.376 31.422 151.444 86.34 205.952 54.916 54.508 129.214 85.005 206.59 84.799 77.377-0.371 151.45-31.42 205.965-86.337 54.514-54.916 85.019-129.212 84.823-206.593-0.233-71.333-26.618-140.105-74.158-193.288l-0.077-0.039zM514.775 390.307c-28.546 0.138-55.872 11.593-75.981 31.854-20.11 20.26-31.361 47.671-31.285 76.217 0.137 28.546 11.592 55.873 31.852 75.982s47.671 31.361 76.217 31.285c28.547-0.137 55.872-11.592 75.982-31.852 20.109-20.262 31.361-47.672 31.285-76.218-0.138-28.546-11.593-55.872-31.854-75.982-20.26-20.109-47.671-31.361-76.217-31.285z" />
<glyph unicode="&#xe912;" glyph-name="people_sm" d="M338.801 174.055c-5.322 0.010-10.423 2.121-14.193 5.876s-5.904 8.849-5.935 14.169l0.433 116.041c0.184 35.487 10.399 70.2 29.466 100.131 19.065 29.933 46.207 53.865 78.292 69.034-21.802 13.384-39.798 32.148-52.256 54.491-12.459 22.345-18.964 47.518-18.89 73.102 0.208 39.554 16.090 77.41 44.164 105.275s66.049 43.464 105.604 43.377c39.554-0.208 77.413-16.090 105.279-44.164 27.865-28.074 43.463-66.047 43.377-105.602-0.165-24.996-6.599-49.553-18.713-71.42-12.114-21.865-29.52-40.341-50.624-53.737 29.283-13.411 54.701-34.011 73.886-59.884 24.007-32.404 36.855-71.721 36.617-112.048l-0.433-116.002c-0.029-5.341-2.178-10.452-5.973-14.21-3.793-3.76-8.923-5.859-14.263-5.838l-335.838 1.407zM654.548 213.241l0.357 95.647c0.097 39.158-15.345 76.756-42.933 104.545s-65.074 43.5-104.231 43.687c-39.155 0.105-76.753-15.326-104.543-42.91-27.79-27.582-43.501-65.065-43.688-104.218l-0.357-95.649 295.396-1.102zM504.601 497.686c28.869-0.078 56.589 11.302 77.079 31.639s32.075 47.971 32.212 76.839c0.078 28.869-11.301 56.589-31.639 77.079s-47.971 32.075-76.839 32.214c-28.867 0.067-56.582-11.315-77.069-31.65s-32.075-47.964-32.224-76.829c-0.067-28.865 11.314-56.579 31.649-77.066s47.966-32.078 76.831-32.225z" />
<glyph unicode="&#xe913;" glyph-name="plus_round" d="M537.737 754.789c0.052 13.87-11.151 25.156-25.021 25.208s-25.156-11.151-25.208-25.021l-1.031-276.262-276.262 1.031c-13.87 0.052-25.156-11.15-25.208-25.021-0.052-13.87 11.151-25.156 25.021-25.208l276.262-1.031-1.031-276.26c-0.052-13.87 11.15-25.156 25.021-25.208 13.87-0.052 25.156 11.15 25.208 25.021l1.031 276.26 276.26-1.031c13.87-0.052 25.156 11.151 25.208 25.021s-11.15 25.156-25.021 25.208l-276.26 1.031 1.031 276.262z" />
<glyph unicode="&#xe914;" glyph-name="print" horiz-adv-x="1009" d="M230.614 186.151l0.911 244.275c0.057 11.318 3.435 22.385 9.722 31.797 6.286 9.412 15.201 16.741 25.635 21.127 7.123 2.907 14.741 4.406 22.433 4.4l38.483-0.145 0.717 192.044 356.811-1.333-0.717-192.117 38.258-0.143c15.221-0.057 29.791-6.162 40.514-16.965 10.721-10.802 16.718-25.417 16.66-40.638l-0.911-244.275-548.517 1.973zM280.507 430.244l-0.729-195.331 450.964-1.682 0.729 195.329c-0.020 2.286-0.964 4.457-2.592 6.064-1.63 1.605-3.831 2.5-6.118 2.488l-433.815 1.619c-2.254-0.012-4.43-0.853-6.026-2.444s-2.469-3.79-2.488-6.043h0.075zM374.502 487.282l263.405-0.983 0.543 145.414-263.405 0.983-0.543-145.414zM326.978 277.481l0.184 49.468 356.81-1.333-0.184-49.468-356.81 1.333zM647.456 382.095c0.042 5.43 1.676 10.66 4.726 15.152 3.050 4.491 7.373 8 12.405 10.041s10.566 2.531 15.884 1.435c5.319-1.096 10.206-3.735 14.020-7.6 3.815-3.863 6.394-8.743 7.421-14.076 1.025-5.332 0.44-10.831-1.666-15.835s-5.641-9.301-10.171-12.292c-4.53-2.992-9.868-4.604-15.299-4.576-3.629 0.003-7.218 0.729-10.566 2.131-3.347 1.404-6.361 3.499-8.906 6.087-2.547 2.586-4.557 5.62-5.907 8.989-1.352 3.369-2.033 6.988-1.979 10.617l0.038-0.075z" />
<glyph unicode="&#xe915;" glyph-name="refresh" d="M480.534 891.3c0.065 17.417 14.237 31.483 31.653 31.418 125.459-0.468 245.595-50.756 333.977-139.8 88.383-89.045 137.773-209.552 137.304-335.011-0.638-171.058-102.385-329.928-237.299-412.297-14.866-9.075-34.274-4.381-43.349 10.483-9.076 14.866-4.382 34.274 10.483 43.349 118.098 72.101 206.545 211.649 207.094 358.7 0.405 108.731-42.4 213.172-118.998 290.343s-180.715 120.755-289.446 121.161c-17.417 0.065-31.484 14.237-31.419 31.654zM318.55 852.359c8.582-15.155 3.255-34.399-11.899-42.982-123.518-69.957-205.632-205.211-206.203-358.174-0.406-108.732 42.398-213.172 118.997-290.344s180.715-120.755 289.446-121.16c17.417-0.065 31.484-14.238 31.419-31.655s-14.237-31.483-31.653-31.418c-125.459 0.467-245.595 50.756-333.977 139.8-88.383 89.045-137.772 209.552-137.304 335.011 0.655 175.521 94.91 331.671 238.192 412.821 15.155 8.583 34.399 3.256 42.983-11.899zM38.806 837.783c0.065 17.417 14.237 31.483 31.654 31.418l220.755-0.824c17.417-0.065 31.483-14.237 31.418-31.654l-0.824-220.755c-0.065-17.417-14.237-31.483-31.653-31.419-17.417 0.065-31.483 14.237-31.419 31.653l0.706 189.22-189.218 0.705c-17.417 0.065-31.483 14.238-31.418 31.654zM730.666 314.841c17.417-0.065 31.483-14.237 31.418-31.653l-0.706-189.219 189.219-0.706c17.417-0.065 31.484-14.237 31.419-31.653s-14.237-31.483-31.653-31.419l-220.755 0.825c-17.417 0.064-31.484 14.237-31.419 31.653l0.825 220.755c0.064 17.417 14.237 31.483 31.653 31.418z" />
<glyph unicode="&#xe916;" glyph-name="search_bold" d="M170.508 514.006c0.562 150.947 123.386 272.854 274.333 272.292 150.945-0.564 272.854-123.386 272.292-274.333-0.564-150.947-123.388-272.856-274.333-272.292-150.947 0.564-272.856 123.386-272.292 274.333zM445.154 870.394c-197.392 0.737-358.005-158.683-358.742-356.075-0.737-197.39 158.684-358.005 356.074-358.741 83.545-0.312 160.501 28.065 221.536 75.868l189.811-191.234c16.36-16.482 42.983-16.581 59.466-0.221 16.482 16.359 16.581 42.983 0.221 59.465l-189.811 191.234c48.257 60.676 77.208 137.418 77.52 220.963 0.736 197.39-158.683 358.005-356.074 358.741z" />
<glyph unicode="&#xe917;" glyph-name="search_medium" d="M614.177 702.149c-43.674 29.427-95.094 45.243-147.757 45.448-70.604 0.191-138.4-27.633-188.514-77.367s-78.453-117.316-78.799-187.919c-0.196-52.663 15.228-104.202 44.321-148.1 29.095-43.897 70.552-78.183 119.13-98.519 48.579-20.338 102.097-25.812 153.787-15.734 50.287 9.805 96.646 33.902 133.543 69.359l137.416-138.445 27.584 27.379-138.978 140.018c24.953 32.217 42.275 69.864 50.44 110.101 10.472 51.613 5.403 105.171-14.563 153.903s-53.935 90.449-97.611 119.876zM591.081 291.736c-37.495-24.859-81.518-38.042-126.504-37.882-60.312 0.288-118.046 24.487-160.538 67.289s-66.268 100.713-66.115 161.023c0.168 44.986 13.671 88.913 38.804 126.225 25.131 37.312 60.763 66.334 102.388 83.397s87.375 21.397 131.465 12.46c44.090-8.938 84.538-30.75 116.233-62.676 31.694-31.927 53.209-72.533 61.826-116.687s3.946-89.87-13.419-131.37c-17.365-41.5-46.647-76.919-84.14-101.778z" />
<glyph unicode="&#xe918;" glyph-name="search_medium_round" d="M615.185 704.991c43.676-29.427 77.643-71.144 97.609-119.876s25.035-102.29 14.563-153.903c-8.17-40.264-25.509-77.932-50.488-110.163l138.985-139.956c2.711-2.725 4.553-6.191 5.291-9.964s0.338-7.679-1.147-11.224c-1.484-3.545-3.989-6.57-7.195-8.689-3.206-2.121-6.969-3.241-10.813-3.22-2.551 0.006-5.075 0.513-7.429 1.494s-4.492 2.416-6.291 4.224l-137.396 138.426c-36.894-35.447-83.245-59.536-133.522-69.338-51.69-10.080-105.208-4.604-153.787 15.732-48.579 20.338-90.036 54.622-119.13 98.519-29.093 43.898-44.517 95.437-44.321 148.1 0.346 70.603 28.684 138.187 78.799 187.92 50.114 49.734 117.91 77.557 188.512 77.365 52.663-0.205 104.084-16.020 147.759-45.448zM636.999 333.714c16.317 18.505 29.604 39.639 39.23 62.642 17.365 41.5 22.035 87.217 13.419 131.37s-30.132 84.762-61.827 116.687c-31.694 31.927-72.143 53.738-116.233 62.676-44.088 8.938-89.839 4.602-131.464-12.46s-77.257-46.084-102.39-83.397c-25.131-37.311-38.634-81.237-38.804-126.224-0.153-60.312 23.625-118.222 66.116-161.025 42.492-42.802 100.226-67.001 160.536-67.287 44.986-0.16 89.011 13.023 126.504 37.881 16.028 10.627 30.555 23.184 43.293 37.32 0.491 0.626 1.024 1.226 1.595 1.793 0.007 0.009 0.016 0.016 0.024 0.024z" />
<glyph unicode="&#xe919;" glyph-name="share_arrow" d="M662.442 250.979l-346.919 1.295 1.296 346.919 152.586-0.571 0.211 56.092-152.588 0.571c-7.382 0.083-14.706-1.302-21.548-4.076-6.84-2.774-13.062-6.88-18.3-12.080-5.24-5.2-9.393-11.391-12.216-18.211-2.825-6.82-4.266-14.134-4.236-21.516l-1.295-346.919c-0.085-7.382 1.302-14.705 4.074-21.546 2.774-6.842 6.88-13.062 12.080-18.302 5.2-5.238 11.391-9.392 18.211-12.216 6.821-2.825 14.134-4.264 21.516-4.236l346.919-1.295c7.382-0.083 14.706 1.302 21.546 4.076 6.842 2.774 13.062 6.88 18.302 12.080 5.238 5.2 9.392 11.391 12.216 18.211s4.264 14.134 4.236 21.516l0.569 152.588-56.092 0.209-0.569-152.588zM567.606 696.093l-0.211-56.092 99.136-0.37-273.632-271.557 38.997-39.288 273.44 271.597-0.37-99.136 56.244-0.209 0.726 194.33-194.33 0.726z" />
<glyph unicode="&#xe91a;" glyph-name="share_bold" d="M560.821 268.401c0.025 10.663 1.662 21.26 4.86 31.432l-128.787 80.213c-9.934-12.301-22.512-22.211-36.795-28.992-14.285-6.78-29.913-10.263-45.725-10.186-27.973 0.105-54.759 11.305-74.483 31.14s-30.773 46.686-30.719 74.658c0.047 13.871 2.825 27.595 8.176 40.392 5.353 12.796 13.174 24.412 23.018 34.184 9.842 9.773 21.513 17.512 34.346 22.774 12.834 5.26 26.579 7.943 40.449 7.891 15.812-0.039 31.412-3.638 45.646-10.527 14.234-6.887 26.737-16.89 36.579-29.266l129.382 79.253c-3.119 10.181-4.677 20.777-4.626 31.427 0.047 13.871 2.825 27.595 8.177 40.392s13.172 24.412 23.014 34.186c9.844 9.772 21.516 17.509 34.349 22.769 12.834 5.262 26.577 7.943 40.447 7.892 13.871-0.053 27.595-2.836 40.389-8.193s24.406-13.18 34.177-23.027c9.769-9.845 17.505-21.52 22.761-34.355 5.256-12.837 7.932-26.582 7.875-40.451-0.104-28.009-11.327-54.831-31.203-74.566s-46.778-30.768-74.787-30.673c-15.98 0.044-31.743 3.722-46.093 10.755s-26.912 17.237-36.738 29.841l-129.077-79.022c3.321-10.486 4.985-21.425 4.93-32.423-0.026-10.999-1.772-21.927-5.173-32.386l128.484-80.023c9.92 12.529 22.557 22.639 36.961 29.564 14.402 6.927 30.19 10.489 46.172 10.414 13.869-0.053 27.595-2.836 40.389-8.193s24.406-13.183 34.175-23.028c9.769-9.846 17.505-21.522 22.761-34.357 5.258-12.835 7.933-26.582 7.876-40.451-0.105-28.006-11.328-54.822-31.206-74.552-19.877-19.728-46.779-30.755-74.784-30.65-13.88 0.051-27.613 2.841-40.414 8.205s-24.419 13.198-34.19 23.056-17.502 21.546-22.752 34.396c-5.25 12.848-7.914 26.606-7.842 40.486z" />
<glyph unicode="&#xe91b;" glyph-name="share_bold_strok" d="M553.019 267.368c0.037 11.138 1.713 22.209 4.975 32.857l-124.165 72.735c-10.703-12.653-24.045-22.807-39.092-29.751-15.047-6.945-31.431-10.512-48.002-10.446-30.156 0.144-59.022 12.242-80.27 33.641s-33.142 50.351-33.069 80.507c0.153 30.156 12.263 59.021 33.669 80.261s50.363 33.12 80.519 33.038c16.981-0.059 33.731-3.927 49.020-11.319 15.289-7.394 28.722-18.122 39.316-31.395l122.739 75.153c-2.881 10.195-4.316 20.744-4.268 31.339 0.154 30.155 12.261 59.018 33.667 80.258 21.408 21.24 50.363 33.123 80.519 33.041 30.152-0.144 59.015-12.243 80.255-33.644 21.241-21.4 33.126-50.353 33.044-80.504-0.144-30.152-12.243-59.015-33.644-80.256s-50.353-33.124-80.504-33.043c-18.031 0.065-35.788 4.417-51.805 12.696s-29.836 20.248-40.316 34.921l-120.912-74.031c4.149-12.031 6.242-24.675 6.189-37.401-0.034-13.557-2.505-26.998-7.291-39.681l122.077-71.486c10.621 14.271 24.444 25.851 40.356 33.807s33.468 12.067 51.259 12.002c30.152-0.142 59.017-12.243 80.258-33.644s33.124-50.353 33.043-80.504c-0.142-30.152-12.243-59.017-33.644-80.258s-50.354-33.123-80.506-33.041c-30.169 0.123-59.057 12.212-80.32 33.612-21.264 21.402-33.167 50.367-33.096 80.535zM591.833 267.224c-0.043-19.866 7.794-38.936 21.792-53.031s33.014-22.063 52.878-22.158c19.861-0.053 38.933 7.773 53.030 21.765s22.065 33.004 22.16 52.865c0.053 19.861-7.773 38.933-21.765 53.028-13.992 14.097-33.004 22.066-52.865 22.161-19.864 0.053-38.94-7.773-53.043-21.764s-22.081-33.002-22.187-52.867zM272.172 446.728c-0.045-19.864 7.793-38.936 21.79-53.031s33.014-22.063 52.88-22.158c19.861-0.053 38.93 7.773 53.027 21.765s22.068 33.004 22.161 52.865c0.055 19.861-7.775 38.933-21.767 53.030s-33.002 22.065-52.862 22.16c-19.866 0.053-38.942-7.772-53.043-21.762-14.103-13.99-22.083-33.004-22.187-52.868zM593.165 623.842c-0.043-19.864 7.794-38.936 21.792-53.031s33.014-22.063 52.878-22.158c19.861-0.053 38.933 7.775 53.030 21.767 14.096 13.99 22.065 33.002 22.16 52.864 0.053 19.861-7.773 38.933-21.765 53.030-13.992 14.096-33.004 22.065-52.865 22.16-19.866 0.053-38.94-7.772-53.043-21.762s-22.081-33.002-22.187-52.868z" />
<glyph unicode="&#xe91c;" glyph-name="share_medium" d="M692.687 150.043c-11.524-0.15-22.954 2.087-33.571 6.568s-20.194 11.111-28.124 19.474c-8.149 8.017-14.588 17.604-18.925 28.182s-6.482 21.924-6.307 33.354c0.079 4.136 0.457 8.259 1.132 12.34 0.644 4.458 1.754 8.839 3.309 13.067l-213.243 125.195c-7.603-8.922-17.061-16.080-27.713-20.973-10.656-5.17-22.342-7.861-34.187-7.868-11.472-0.003-22.832 2.266-33.422 6.677-10.592 4.412-20.204 10.877-28.282 19.023-8.079 8.146-14.464 17.813-18.787 28.44-4.322 10.627-6.496 22.006-6.396 33.477 0.016 11.454 2.299 22.791 6.714 33.359 4.415 10.566 10.877 20.158 19.012 28.219 8.136 8.060 17.786 14.432 28.394 18.75s21.966 6.494 33.418 6.407c11.509-0.016 22.892-2.41 33.431-7.034 10.699-4.688 20.318-11.528 28.259-20.094l214.166 122.047c-1.563 3.854-2.643 7.886-3.216 12.005-0.677 4.212-1.024 8.47-1.039 12.735 0.086 23.136 9.36 45.29 25.78 61.588 16.421 16.298 38.643 25.407 61.78 25.32 23.135-0.086 45.289-9.36 61.587-25.78s25.407-38.643 25.321-61.778c0.003-11.467-2.265-22.82-6.671-33.406s-10.863-20.195-19.002-28.273c-8.139-8.076-17.795-14.464-28.414-18.79-10.618-4.328-21.988-6.509-33.454-6.42-11.521 0.025-22.949 2.038-33.785 5.948-10.454 3.658-19.788 9.949-27.102 18.266l-214.302-116.962c1.085-4.561 1.922-9.177 2.51-13.828 0.631-4.333 0.977-8.704 1.039-13.083-0.039-3.661-0.417-7.31-1.128-10.902-0.739-3.879-1.609-7.99-2.607-12.334l213.256-121.469c7.708 7.026 16.583 12.653 26.223 16.63 11.092 4.503 22.988 6.692 34.957 6.429 11.455-0.042 22.791-2.34 33.357-6.764 10.568-4.424 20.161-10.884 28.231-19.015s14.459-17.772 18.803-28.371c4.345-10.601 6.56-21.952 6.516-33.408s-2.342-22.791-6.764-33.359c-4.424-10.566-10.886-20.159-19.017-28.23-8.13-8.070-17.77-14.461-28.371-18.804s-21.952-6.558-33.408-6.515l0.039-0.040z" />
<glyph unicode="&#xe91d;" glyph-name="trash" d="M451.973 573.119c11.611-0.045 20.989-9.492 20.946-21.103l-1.297-347.316c-0.043-11.611-9.491-20.989-21.102-20.946s-20.989 9.491-20.946 21.102l1.297 347.317c0.043 11.611 9.491 20.989 21.102 20.946zM596.637 572.579c11.611-0.043 20.989-9.492 20.946-21.103l-1.297-347.316c-0.043-11.611-9.491-20.989-21.102-20.946s-20.989 9.492-20.946 21.103l1.297 347.316c0.043 11.611 9.491 20.989 21.102 20.946zM408 849.535c0.043 11.611 9.491 20.989 21.102 20.946l192.58-0.719c11.611-0.043 20.989-9.491 20.946-21.103l-0.267-71.49 207.74-0.776c11.611-0.043 20.989-9.491 20.946-21.102l-0.289-77.368c-0.043-11.611-9.491-20.989-21.102-20.946l-52.084 0.194-37.234-597.752c-0.693-11.113-9.928-19.759-21.062-19.717l-433.516 1.618c-11.133 0.042-20.305 8.756-20.915 19.873l-32.769 598.015-52.482 0.196c-11.611 0.043-20.989 9.492-20.946 21.103l0.289 77.368c0.043 11.611 9.491 20.989 21.102 20.945l207.694-0.775 0.267 71.49zM778.426 699.293c-0.175 0.004-0.35 0.007-0.527 0.009l-505.837 1.888c-0.177 0-0.352-0.001-0.527-0.004l-50.761 0.188 0.132 35.321 608.014-2.269-0.132-35.321-50.363 0.188zM294.195 659.051l31.551-575.757 393.857-1.469 35.847 575.504-461.256 1.722zM449.969 828.354l-0.188-50.457 150.532-0.562 0.188 50.458-150.532 0.562z" />
<glyph unicode="&#xe91e;" glyph-name="arrow_bar_right" d="M628.644 453.066l-270.108 272.094-63.946-63.469 206.153-208.148-207.701-206.715 63.469-63.982 272.132 270.22zM727.874 189.269l1.994 534.468-90.124 0.336-1.995-534.505 90.125-0.3z" />
<glyph unicode="&#xe91f;" glyph-name="arrow_bold" d="M398.79 740.342l-67.559-67.056 217.833-219.934-219.468-218.339 67.056-67.559 287.532 285.395-285.393 287.493z" />
<glyph unicode="&#xe920;" glyph-name="arrow_bold_round" d="M314.289 862.41c-16.482-16.36-16.581-42.983-0.221-59.465l347.397-350.002-350-347.397c-16.483-16.36-16.583-42.983-0.223-59.465s42.983-16.581 59.465-0.223l379.845 377.020c16.482 16.359 16.581 42.983 0.223 59.465l-377.020 379.844c-16.359 16.482-42.983 16.582-59.465 0.222z" />
<glyph unicode="&#xe921;" glyph-name="arrow_medium_round" d="M296.913 855.027c-12.362-12.27-12.436-32.237-0.168-44.599l354.804-357.462-357.462-354.803c-12.362-12.27-12.436-32.237-0.166-44.599s32.237-12.436 44.599-0.166l379.845 377.019c12.361 12.27 12.435 32.238 0.166 44.599l-377.020 379.845c-12.269 12.362-32.237 12.436-44.597 0.167z" />
<glyph unicode="&#xe922;" glyph-name="arrow_medium_short_tail" d="M262.669 423.822l384.837-1.437-132.266-131.128 40.368-40.708 203.467 202.029-202.029 203.543-40.594-40.597 134.674-135.759-388.241 1.448-0.215-57.392z" />
<glyph unicode="&#xe923;" glyph-name="arrow_small" d="M394.54 189.222l-27.341 27.546 238.171 236.397-236.399 238.169 27.546 27.341 263.776-265.753-265.753-263.699z" />
<glyph unicode="&#xe924;" glyph-name="arrow_small_long_tail" d="M664.018 331.487l27.532-27.273 147.125 147.923-146.016 149.178-27.734-27.066 100.082-102.269-574.602 2.144-0.144-38.816 574.747-2.146-100.99-101.676z" />
<glyph unicode="&#xe925;" glyph-name="arrow_small_round" d="M392.321 200.116c-3.789 0.007-7.49 1.14-10.635 3.253s-5.59 5.113-7.028 8.618c-1.438 3.506-1.802 7.36-1.047 11.072s2.595 7.117 5.288 9.784l221.861 220.251-220.211 221.863c-3.471 3.621-5.382 8.46-5.32 13.476s2.092 9.807 5.652 13.341c3.561 3.533 8.366 5.527 13.382 5.552s9.842-1.921 13.436-5.418l233.746-235.497c3.572-3.602 5.569-8.474 5.552-13.546-0.019-5.073-2.052-9.931-5.652-13.505l-235.459-233.746c-3.615-3.558-8.493-5.535-13.565-5.497z" />
<glyph unicode="&#xe926;" glyph-name="arrow_v_small" d="M433.772 282.171l-27.262 27.544 144.7 143.587-143.624 144.74 27.546 27.341 171.004-172.286-172.363-170.926z" />
<glyph unicode="&#xe927;" glyph-name="arrow_v_small_round" d="M436.613 288.151c-3.844 0.007-7.598 1.156-10.789 3.301s-5.672 5.187-7.129 8.743c-1.459 3.556-1.828 7.466-1.063 11.233s2.633 7.22 5.363 9.924l132.975 131.986-131.946 132.973c-3.522 3.675-5.46 8.584-5.396 13.673 0.062 5.089 2.122 9.949 5.733 13.533 3.612 3.585 8.489 5.608 13.578 5.633s9.983-1.949 13.631-5.498l145.442-146.804c3.624-3.652 5.65-8.596 5.631-13.742s-2.082-10.074-5.734-13.701l-146.727-145.674c-3.618-3.563-8.489-5.565-13.567-5.579z" />
<glyph unicode="&#xe928;" glyph-name="bento_menu" d="M400.767 690.572l-133.372 0.499-0.499-133.372 133.372-0.499 0.499 133.372zM578.391 689.91l-133.372 0.497-0.499-133.372 133.372-0.497 0.499 133.372zM400.065 512.988l-133.372 0.497-0.499-133.372 133.372-0.499 0.499 133.374zM756.053 689.247l-133.372 0.497-0.497-133.372 133.372-0.497 0.497 133.372zM577.727 512.325l-133.372 0.497-0.497-133.372 133.372-0.497 0.497 133.372zM755.39 511.662l-133.372 0.497-0.497-133.372 133.372-0.497 0.497 133.372zM399.44 335.289l-133.372 0.497-0.497-133.372 133.372-0.497 0.497 133.372zM577.064 334.625l-133.372 0.497-0.497-133.372 133.372-0.497 0.497 133.372zM754.728 333.962l-133.372 0.499-0.499-133.372 133.372-0.499 0.499 133.372z" />
<glyph unicode="&#xe929;" glyph-name="call_fill" d="M708.822 685.215c-61.033 30.781-128.392 46.938-196.748 47.193s-135.833-15.399-197.093-45.722c-54.677-28.015-100.284-79.854-100.431-119.329l-0.123-33.068c-0.019-5.098 0.966-10.148 2.898-14.864 1.934-4.716 4.776-9.007 8.367-12.623 3.59-3.618 7.858-6.493 12.561-8.462 4.701-1.968 9.744-2.99 14.842-3.010l93.153-0.347c6.191-0.062 12.309 1.373 17.827 4.185 5.519 2.811 10.276 6.914 13.867 11.96 6.031 7.802 9.826 17.098 10.976 26.891 1.152 9.795-0.384 19.717-4.442 28.705 38.848 21.688 82.631 32.994 127.121 32.827 44.492-0.166 88.189-11.798 126.874-33.776-4.164-8.946-5.798-18.861-4.727-28.671 1.071-9.808 4.81-19.137 10.807-26.973 3.565-5.071 8.299-9.207 13.802-12.059 5.503-2.851 11.611-4.333 17.81-4.322l93.153-0.347c10.293-0.039 20.182 4.014 27.488 11.265 7.306 7.253 11.432 17.11 11.47 27.403l0.123 33.069c0.147 39.473-45.187 91.654-99.653 120.075l0.077-0.001zM567.753 316.619c-0.042-11.291-3.424-22.319-9.722-31.692-6.312-9.396-15.269-16.706-25.738-21.010-10.469-4.302-21.979-5.403-33.074-3.164-11.095 2.241-21.275 7.722-29.255 15.749-7.978 8.029-13.397 18.242-15.569 29.35s-1.002 22.611 3.366 33.054c4.366 10.442 11.733 19.355 21.167 25.609 9.433 6.255 20.51 9.571 31.829 9.529 15.173-0.056 29.702-6.14 40.392-16.908 10.69-10.77 16.663-25.343 16.605-40.518zM567.755 316.698v0zM665.462 430.844c13.756-14.486 24.475-25.774 35.852-41.092l0.077-0.079c25.447-35.365 40.68-77.048 44.032-120.488l-0.27-72.076c-0.039-10.295-4.164-20.152-11.47-27.403-7.306-7.253-17.194-11.304-27.488-11.265l-392.25 1.463c-10.293 0.039-20.151 4.164-27.403 11.47-7.251 7.306-11.304 17.194-11.265 27.488l0.269 72.078c3.639 43.432 19.156 85.029 44.853 120.234 11.421 15.262 22.259 26.483 36.189 40.905 9.669 10.010 20.827 21.562 34.705 37.079 3.651 4.102 8.131 7.383 13.144 9.627 5.013 2.242 10.446 3.396 15.937 3.384l27.17-0.102 0.089 23.987c0.018 4.633 1.874 9.069 5.162 12.333 3.289 3.263 7.738 5.086 12.37 5.070 4.633-0.018 9.068-1.874 12.331-5.162 3.263-3.289 5.087-7.738 5.070-12.37l-0.089-23.987 57.445-0.215 0.089 23.987c0.018 4.632 1.874 9.068 5.162 12.331s7.738 5.087 12.37 5.070c4.632-0.016 9.068-1.873 12.331-5.162 3.263-3.287 5.087-7.736 5.070-12.37l-0.089-23.987 27.169-0.101c5.492-0.028 10.915-1.223 15.912-3.502 4.997-2.281 9.452-5.595 13.072-9.725 13.799-15.663 24.867-27.319 34.458-37.419zM470.703 233.192c17.954-8.559 38.185-11.113 57.703-7.288 17.966 3.531 34.487 12.3 47.478 25.202 12.991 12.901 21.875 29.361 25.53 47.301 3.961 19.492 1.545 39.74-6.888 57.754-8.434 18.012-22.437 32.835-39.943 42.278s-37.584 13.002-57.268 10.155c-19.685-2.848-37.933-11.951-52.044-25.967-14.113-14.015-23.343-32.198-26.327-51.863s0.438-39.767 9.759-57.338c9.32-17.57 24.046-31.677 42-40.234z" />
<glyph unicode="&#xe92a;" glyph-name="chatbox" horiz-adv-x="1009" d="M770.345 678.001l-575.762 2.149-1.444-386.914 452.451-1.688 122.93-102.498 1.824 488.951zM232.7 641.748l499.244-1.864-1.379-369.352-71.057 59.222-427.966 1.597 1.159 310.396zM378.235 472.58c2.651 3.935 4.074 8.568 4.092 13.313 0.025 6.362-2.481 12.472-6.963 16.988-4.481 4.516-10.574 7.066-16.935 7.089-4.744 0.018-9.387-1.372-13.343-3.992-3.954-2.621-7.044-6.358-8.875-10.733-1.831-4.377-2.324-9.198-1.416-13.855 0.907-4.658 3.176-8.94 6.518-12.307s7.608-5.669 12.259-6.611c4.649-0.944 9.475-0.487 13.865 1.312s8.148 4.861 10.799 8.795zM501.659 472.121c2.651 3.935 4.074 8.566 4.092 13.312 0.023 6.362-2.481 12.472-6.962 16.988-4.482 4.516-10.575 7.066-16.937 7.089-4.744 0.018-9.387-1.372-13.343-3.992-3.954-2.621-7.042-6.356-8.875-10.733-1.831-4.377-2.324-9.198-1.416-13.855 0.907-4.658 3.176-8.94 6.518-12.307s7.608-5.669 12.257-6.611c4.65-0.944 9.476-0.487 13.866 1.312s8.148 4.861 10.799 8.796zM629.061 484.972c-0.018-4.744-1.442-9.377-4.093-13.312s-6.409-6.995-10.799-8.795c-4.39-1.799-9.215-2.257-13.865-1.314-4.649 0.944-8.915 3.243-12.257 6.611s-5.612 7.651-6.52 12.307c-0.907 4.656-0.414 9.478 1.418 13.855s4.92 8.112 8.875 10.733c3.954 2.621 8.597 4.011 13.343 3.994 3.15-0.012 6.267-0.645 9.172-1.861 2.907-1.217 5.544-2.993 7.763-5.23 2.219-2.235 3.978-4.886 5.171-7.801 1.195-2.915 1.804-6.036 1.792-9.187z" />
<glyph unicode="&#xe92b;" glyph-name="chatbox_round" d="M762.143 678.072l-537.502 2.006c-5.075 0.019-9.947-1.978-13.548-5.552-3.602-3.574-5.635-8.432-5.654-13.507l-1.302-348.654c-0.018-5.073 1.979-9.946 5.553-13.548 3.574-3.6 8.432-5.635 13.505-5.654l433.477-1.618 91.537-76.439c2.788-2.327 6.181-3.814 9.781-4.285s7.262 0.094 10.553 1.627 6.080 3.97 8.037 7.029c1.959 3.057 3.005 6.611 3.019 10.241l1.602 429.151c0.019 5.075-1.979 9.947-5.553 13.548-3.574 3.602-8.432 5.635-13.505 5.654zM243.627 641.748l499.242-1.864-1.378-369.39-65.755 54.841c-3.42 2.857-7.731 4.428-12.189 4.446l-421.079 1.571 1.159 310.396zM389.161 472.58c2.651 3.935 4.076 8.568 4.093 13.313 0.023 6.362-2.481 12.472-6.963 16.988s-10.574 7.066-16.935 7.089c-4.746 0.018-9.389-1.372-13.343-3.992s-7.044-6.358-8.875-10.733c-1.833-4.377-2.326-9.198-1.418-13.855s3.177-8.94 6.52-12.307 7.607-5.669 12.257-6.612c4.65-0.942 9.475-0.486 13.865 1.314s8.148 4.86 10.799 8.795zM512.585 472.121c2.651 3.934 4.076 8.566 4.093 13.312 0.023 6.362-2.481 12.472-6.963 16.988s-10.574 7.066-16.935 7.089c-4.746 0.018-9.389-1.372-13.343-3.992-3.956-2.621-7.044-6.356-8.875-10.733-1.833-4.377-2.326-9.198-1.418-13.855s3.177-8.94 6.52-12.307c3.341-3.367 7.607-5.669 12.257-6.611 4.65-0.944 9.475-0.487 13.865 1.312s8.148 4.861 10.799 8.796zM639.987 484.972c-0.018-4.744-1.441-9.377-4.092-13.312s-6.409-6.995-10.799-8.795c-4.39-1.799-9.215-2.257-13.865-1.314s-8.916 3.243-12.257 6.611c-3.343 3.367-5.612 7.651-6.52 12.307s-0.415 9.478 1.416 13.855c1.833 4.377 4.921 8.112 8.875 10.733 3.956 2.621 8.599 4.011 13.343 3.994 3.151-0.012 6.267-0.645 9.174-1.861 2.905-1.217 5.544-2.993 7.763-5.23 2.219-2.235 3.976-4.886 5.171-7.801 1.194-2.915 1.802-6.037 1.791-9.187z" />
<glyph unicode="&#xe92c;" glyph-name="chetbox_fill" horiz-adv-x="1009" d="M775.964 248.85l-96.954 80.706-440.248 1.644 1.302 348.808 537.502-2.007-1.602-429.151zM631.621 528.185c-4.746 0.018-9.389-1.372-13.343-3.992s-7.044-6.356-8.875-10.733c-1.833-4.377-2.326-9.198-1.418-13.855s3.177-8.94 6.52-12.307 7.608-5.669 12.257-6.611c4.65-0.944 9.475-0.487 13.865 1.312s8.148 4.861 10.799 8.796c2.651 3.935 4.076 8.566 4.093 13.312 0.016 3.15-0.587 6.273-1.777 9.19-1.189 2.917-2.943 5.571-5.158 7.81s-4.851 4.020-7.755 5.241c-2.905 1.22-6.021 1.858-9.171 1.874l-0.038-0.038zM508.197 528.646c-4.744 0.018-9.387-1.372-13.343-3.992-3.954-2.621-7.044-6.356-8.875-10.733s-2.324-9.198-1.416-13.855c0.907-4.658 3.176-8.94 6.518-12.307s7.608-5.669 12.259-6.611c4.649-0.944 9.475-0.487 13.865 1.312s8.148 4.861 10.797 8.796c2.651 3.934 4.076 8.566 4.093 13.312 0.023 6.352-2.469 12.455-6.932 16.975-4.465 4.519-10.537 7.086-16.89 7.14l-0.076-0.038zM384.772 529.107c-4.746 0.025-9.393-1.358-13.353-3.975-3.958-2.616-7.054-6.349-8.891-10.724-1.839-4.375-2.336-9.198-1.432-13.858 0.903-4.659 3.169-8.945 6.51-12.317 3.341-3.37 7.607-5.676 12.257-6.622 4.65-0.945 9.478-0.49 13.871 1.308 4.391 1.798 8.153 4.858 10.805 8.795 2.652 3.935 4.077 8.569 4.095 13.316 0.025 6.339-2.458 12.43-6.906 16.947s-10.5 7.093-16.839 7.168l-0.116-0.038z" />
<glyph unicode="&#xe92d;" glyph-name="circle_in_x_b" d="M690.418 574.578c8.235 8.186 8.275 21.497 0.091 29.733-8.186 8.235-21.497 8.275-29.733 0.091l-139.96-139.11-138.92 140.15c-8.174 8.247-21.485 8.306-29.732 0.132s-8.305-21.486-0.131-29.733l138.958-140.19-140.002-139.15c-8.235-8.186-8.277-21.498-0.091-29.733s21.497-8.277 29.732-0.091l139.962 139.11 138.918-140.151c8.174-8.245 21.486-8.305 29.733-0.131s8.305 21.486 0.131 29.733l-138.958 140.19 140.002 139.15zM522.092 807.032c-205.287 0.767-372.326-165.030-373.092-370.317s165.030-372.325 370.317-373.092c205.287-0.766 372.326 165.032 373.092 370.318s-165.030 372.325-370.317 373.091zM106.951 436.873c0.853 228.509 186.788 413.061 415.296 412.208 228.509-0.853 413.062-186.787 412.209-415.297-0.852-228.509-186.788-413.061-415.297-412.209-228.509 0.853-413.061 186.788-412.208 415.297z" />
<glyph unicode="&#xe92e;" glyph-name="clock" horiz-adv-x="1009" d="M500.612 717.268c-147.909 0.551-268.26-118.904-268.813-266.813-0.551-147.909 118.905-268.262 266.815-268.813 147.908-0.553 268.26 118.904 268.812 266.813s-118.904 268.262-266.813 268.813zM193.54 450.597c0.63 169.040 138.176 305.562 307.215 304.931 169.039-0.632 305.56-138.176 304.93-307.216s-138.176-305.56-307.215-304.93-305.562 138.176-304.93 307.215zM589.353 342.221c-4.99 0.019-9.773 1.985-13.332 5.481l-89.85 88.065c-1.821 1.789-3.267 3.923-4.25 6.28s-1.485 4.884-1.476 7.439l0.746 199.942c0.019 5.073 2.054 9.931 5.654 13.505 3.602 3.574 8.474 5.572 13.548 5.553s9.931-2.052 13.505-5.654c3.575-3.6 5.572-8.474 5.553-13.548l-0.717-191.83 83.864-82.457c2.714-2.665 4.571-6.080 5.335-9.807s0.399-7.595-1.047-11.113-3.909-6.526-7.073-8.638c-3.164-2.111-6.886-3.231-10.691-3.218h0.231z" />
<glyph unicode="&#xe92f;" glyph-name="clock_fill" horiz-adv-x="1009" d="M492.598 755.572c-58.19 0.217-115.137-16.826-163.641-48.974s-86.385-77.957-108.854-131.634c-22.468-53.678-28.515-112.813-17.376-169.925 11.138-57.114 38.965-109.643 79.957-150.942 40.992-41.301 93.311-69.518 150.341-81.082 57.029-11.565 116.206-5.96 170.050 16.108s99.935 59.606 132.444 107.868c32.509 48.263 49.977 105.080 50.194 163.271 0.291 78.029-30.427 152.98-85.396 208.361-54.97 55.381-129.688 86.658-207.718 86.949zM608.509 341.285c-2.93-2.989-6.42-5.372-10.272-7.011-3.85-1.64-7.987-2.504-12.172-2.545s-8.337 0.742-12.219 2.305c-3.882 1.564-7.42 3.877-10.408 6.808l-94.309 92.518c-3.040 3.003-5.448 6.586-7.083 10.534-1.634 3.948-2.462 8.185-2.434 12.458l0.718 192.405c0.031 8.452 3.42 16.546 9.419 22.5s14.117 9.282 22.569 9.25c8.452-0.031 16.546-3.419 22.502-9.418 5.954-5.999 9.28-14.118 9.25-22.57l-0.669-179.052 84.512-83.147c2.989-2.93 5.37-6.42 7.010-10.271s2.506-7.987 2.547-12.174c0.041-4.185-0.743-8.337-2.307-12.219s-3.877-7.42-6.807-10.408z" />
<glyph unicode="&#xe930;" glyph-name="close" d="M248.045 713.955c8.123 8.063 21.245 8.014 29.308-0.11l495.467-499.18c8.063-8.123 8.014-21.245-0.11-29.308s-21.245-8.014-29.307 0.11l-495.468 499.18c-8.062 8.123-8.014 21.245 0.11 29.308zM774.681 711.989c8.062-8.123 8.014-21.245-0.11-29.307l-499.18-495.468c-8.123-8.062-21.245-8.014-29.308 0.11s-8.014 21.245 0.11 29.308l499.18 495.467c8.123 8.063 21.245 8.014 29.308-0.11z" />
<glyph unicode="&#xe931;" glyph-name="download" d="M488.096 716.744l-1.345-360.090-97.451 98.213-27.544-27.341 144.127-145.246 145.208 144.127-27.341 27.546-98.184-97.454 1.345 360.099-38.816 0.145zM239.088 175.986l532.792-1.989 0.746 200.213-38.816 0.145-0.603-161.397-455.159 1.698 0.603 161.399-38.816 0.144-0.748-200.213z" />
<glyph unicode="&#xe932;" glyph-name="download_arrow" d="M347.938 248.926l-0.202-54.102 324.726-1.213 0.202 54.102-324.726 1.213zM484.936 705.265l-1.249-334.675-92.78 93.553-38.404-38.119 157.774-158.956 159.071 157.774-38.119 38.404-93.247-92.859 1.249 334.675-54.294 0.203z" />
<glyph unicode="&#xe933;" glyph-name="earth" horiz-adv-x="1009" d="M495.123 755.561c-58.728 0.219-116.201-16.981-165.152-49.426s-87.182-78.677-109.859-132.849c-22.676-54.173-28.779-113.853-17.537-171.495 11.242-57.641 39.325-110.653 80.696-152.335s94.173-70.159 151.729-81.831c57.556-11.672 117.28-6.015 171.621 16.257 54.339 22.271 100.857 60.156 133.666 108.864 32.809 48.707 50.438 106.050 50.657 164.778 0.263 78.741-30.748 154.365-86.219 210.251s-130.861 87.461-209.601 87.786zM256.464 459.52c0.167 17.788 2.324 35.504 6.434 52.812l141.411-142.471-0.111-29.69c-0.009-15.732 6.207-30.83 17.291-41.996s26.132-17.494 41.866-17.604l-0.214-57.388c-57.272 7.582-109.83 35.745-147.86 79.233s-58.937 99.331-58.817 157.104zM668.298 297.636c-3.704 12.054-11.162 22.608-21.285 30.128-10.123 7.518-22.382 11.608-34.992 11.671l-29.689 0.111 0.332 89.068c0.009 7.867-3.097 15.419-8.64 21.004-5.543 5.584-13.071 8.746-20.939 8.796l-178.134 0.664 0.221 59.379 59.341-0.222c7.867-0.009 15.419 3.097 21.004 8.64 5.584 5.543 8.746 13.071 8.796 20.939l0.221 59.415 59.379-0.221c15.733-0.009 30.83 6.207 41.996 17.291s17.494 26.132 17.604 41.866l0.045 12.167c35.562-14.4 67.094-37.222 91.884-66.506 24.79-29.282 42.095-64.149 50.428-101.6s7.443-76.367-2.592-113.398-28.877-71.070-54.98-99.19z" />
<glyph unicode="&#xe934;" glyph-name="eye" d="M677.612 596.023c-56.698 31.907-120.326 49.495-185.363 51.237-65.113-1.193-128.95-18.276-185.957-49.762s-105.46-76.422-141.144-130.9l-7.803-11.073 7.722-11.129c34.169-55.723 82.012-101.792 138.988-133.829s121.196-48.981 186.561-49.226c65.365-0.243 129.708 16.222 186.923 47.833 57.213 31.612 105.399 77.321 139.984 132.788l7.803 11.071-7.722 11.13c-35.239 54.689-83.293 99.951-139.991 131.86zM654.588 566.831c49.881-27.087 92.261-66.128 123.346-113.621-31.444-47.252-74.118-85.967-124.199-112.677-50.081-26.709-106.005-40.579-162.763-40.366-56.756 0.211-112.576 14.499-162.455 41.58-49.881 27.083-92.264 66.115-123.355 113.6 31.438 47.26 74.109 85.983 124.192 112.698 50.081 26.716 106.008 40.589 162.77 40.377 56.761-0.211 112.582-14.502 162.464-41.591zM557.768 552.628c-19.452 13.101-42.351 20.142-65.803 20.229-31.438 0.086-61.627-12.304-83.941-34.451-22.313-22.148-34.929-52.243-35.076-83.682-0.088-23.453 6.781-46.404 19.736-65.952 12.957-19.549 31.419-34.816 53.052-43.872s45.467-11.493 68.485-7.003c23.019 4.489 44.189 15.704 60.835 32.225 16.644 16.521 28.016 37.608 32.677 60.591 4.661 22.985 2.403 46.835-6.491 68.535s-24.024 40.276-43.474 53.379zM535.589 387.796c-13.15-8.716-28.589-13.336-44.364-13.276-21.148 0.099-41.392 8.585-56.289 23.594-14.898 15.010-23.233 35.318-23.175 56.465 0.059 15.776 4.795 31.179 13.607 44.264 8.814 13.083 21.31 23.261 35.907 29.243s30.64 7.502 46.101 4.366c15.461-3.134 29.644-10.785 40.758-21.98 11.113-11.197 18.656-25.438 21.676-40.921 3.020-15.485 1.38-31.515-4.71-46.068-6.092-14.551-16.362-26.97-29.51-35.686z" />
<glyph unicode="&#xe935;" glyph-name="eye_fill" d="M509.504 261.283c-61.931 1.739-122.503 18.56-176.465 49.001s-99.684 73.586-133.202 125.692c33.894 51.869 79.933 94.684 134.123 124.731 54.189 30.045 114.891 46.414 176.839 47.686 61.97-1.707 122.586-18.515 176.585-48.965 54-30.451 99.749-73.623 133.276-125.768-33.924-51.881-79.998-94.701-134.221-124.74s-114.96-46.392-176.935-47.637zM510.555 542.72c-21.341 0.080-42.226-6.171-60.015-17.962-17.788-11.789-31.68-28.59-39.921-48.276s-10.458-41.373-6.373-62.32c4.084-20.946 14.29-40.211 29.324-55.357s34.222-25.495 55.137-29.736c20.915-4.241 42.619-2.186 62.366 5.907s36.65 21.86 48.573 39.561 18.328 38.538 18.408 59.879c0.076 28.608-11.2 56.078-31.354 76.383-20.152 20.303-47.537 31.784-76.146 31.922z" />
<glyph unicode="&#xe936;" glyph-name="eye-1" d="M719.679 595.894c-56.698 31.907-120.326 49.495-185.363 51.237-65.113-1.193-128.95-18.276-185.957-49.762s-105.46-76.422-141.143-130.9c-2.293-3.252-3.529-7.129-3.544-11.107-0.015-3.979 1.193-7.866 3.461-11.133 34.169-55.725 82.012-101.792 138.988-133.829s121.196-48.981 186.561-49.226c65.365-0.243 129.708 16.221 186.923 47.833 57.213 31.612 105.399 77.319 139.984 132.788 2.291 3.252 3.528 7.129 3.542 11.107 0.015 3.979-1.193 7.864-3.459 11.133-35.24 54.689-83.294 99.953-139.993 131.86zM696.655 566.702c49.881-27.087 92.261-66.128 123.346-113.621-31.444-47.252-74.118-85.967-124.199-112.676s-106.005-40.58-162.763-40.368-112.576 14.499-162.455 41.58c-49.881 27.083-92.264 66.115-123.355 113.6 31.438 47.261 74.109 85.983 124.192 112.698 50.081 26.716 106.008 40.589 162.77 40.377 56.761-0.211 112.582-14.502 162.464-41.591zM599.838 552.498c-19.45 13.101-42.351 20.142-65.802 20.229-31.44 0.086-61.628-12.304-83.941-34.451s-34.929-52.243-35.077-83.682c-0.088-23.453 6.781-46.404 19.738-65.952s31.419-34.816 53.052-43.872 45.466-11.493 68.485-7.003c23.018 4.489 44.188 15.704 60.833 32.225s28.018 37.608 32.677 60.591c4.661 22.985 2.403 46.835-6.491 68.535s-24.022 40.276-43.474 53.379zM577.659 387.667c-13.149-8.716-28.587-13.336-44.363-13.276-21.148 0.099-41.392 8.585-56.29 23.594s-23.233 35.318-23.174 56.465c0.058 15.776 4.794 31.179 13.607 44.264 8.814 13.083 21.308 23.261 35.905 29.243s30.641 7.502 46.101 4.366c15.461-3.134 29.646-10.785 40.758-21.98 11.114-11.197 18.658-25.438 21.678-40.921s1.38-31.515-4.712-46.068c-6.091-14.551-16.36-26.97-29.51-35.686z" />
<glyph unicode="&#xe937;" glyph-name="gear" d="M462.107 176.922c-8.928 0.034-17.478 3.609-23.772 9.942-6.292 6.334-9.816 14.907-9.792 23.835l0.095 25.501c-0.012 3.338-1.066 6.589-3.010 9.302s-4.684 4.752-7.84 5.837c-9.672 3.275-19.11 7.201-28.252 11.748l-0.387 0.196c-2.748 1.294-5.825 1.722-8.821 1.227s-5.772-1.889-7.958-3.998l-18.699-18.56c-6.389-6.205-14.964-9.645-23.868-9.577-8.913-0.004-17.467 3.516-23.797 9.792l-42.147 42.428c-3.127 3.134-5.602 6.856-7.279 10.954s-2.523 8.486-2.492 12.913c0.004 4.421 0.886 8.797 2.593 12.876 1.708 4.078 4.209 7.778 7.356 10.883l18.932 18.831c2.743 2.731 4.292 6.438 4.308 10.308 0.010 2.357-0.524 4.684-1.564 6.798-4.468 9.18-8.324 18.647-11.542 28.338-1.003 3.117-2.965 5.837-5.607 7.771s-5.825 2.983-9.1 2.998l-26.201 0.096c-8.938 0.034-17.496 3.614-23.797 9.954-6.301 6.341-9.827 14.924-9.804 23.862l0.223 59.891c0.055 8.933 3.648 17.476 9.994 23.761 6.347 6.285 14.928 9.798 23.859 9.765l26.706-0.101c3.269-0.012 6.457 1.006 9.114 2.913 2.655 1.907 4.641 4.604 5.674 7.705 3.292 9.501 7.217 18.77 11.751 27.746 1.071 2.103 1.638 4.427 1.655 6.787 0.021 3.894-1.5 7.64-4.231 10.418l-19.334 19.48c-3.13 3.133-5.61 6.856-7.293 10.952-1.684 4.097-2.538 8.487-2.515 12.916 0.009 4.43 0.895 8.815 2.609 12.899s4.222 7.787 7.377 10.896l42.502 42.147c6.362 6.22 14.933 9.664 23.83 9.577 8.906 0.001 17.454-3.502 23.797-9.755l19.334-19.478c1.365-1.359 2.984-2.434 4.767-3.167 1.781-0.732 3.692-1.106 5.619-1.101 2.354-0.024 4.681 0.499 6.798 1.527 9.020 4.471 18.331 8.327 27.872 11.539 3.022 1.008 5.653 2.934 7.527 5.509s2.898 5.669 2.928 8.854l0.102 27.44c0.045 8.928 3.63 17.476 9.97 23.761 6.341 6.286 14.918 9.798 23.846 9.765l59.891-0.224c8.928-0.034 17.478-3.608 23.772-9.942 6.292-6.334 9.816-14.907 9.792-23.835l-0.102-27.44c0.036-3.188 1.051-6.288 2.909-8.878 1.86-2.591 4.47-4.546 7.478-5.601 9.514-3.286 18.8-7.211 27.788-11.746 2.082-1.043 4.378-1.585 6.708-1.581 1.923-0.019 3.833 0.346 5.616 1.071 1.782 0.727 3.401 1.8 4.764 3.16l19.711 19.333c3.134 3.118 6.852 5.587 10.942 7.263s8.468 2.529 12.888 2.508c4.428-0.007 8.814-0.895 12.898-2.609s7.787-4.222 10.896-7.377l42.189-42.463c3.125-3.134 5.599-6.858 7.276-10.955s2.526-8.487 2.493-12.914c-0.003-4.425-0.884-8.809-2.591-12.893s-4.209-7.788-7.356-10.9l-19.48-19.334c-2.729-2.769-4.264-6.499-4.27-10.387 0-2.36 0.549-4.687 1.604-6.798 4.442-9.020 8.297-18.318 11.543-27.834 1.009-3.109 2.974-5.82 5.616-7.747s5.823-2.971 9.093-2.983l26.704-0.099c8.925-0.045 17.467-3.623 23.76-9.954 6.291-6.331 9.817-14.898 9.804-23.824l-0.224-59.889c-0.043-8.931-3.627-17.481-9.967-23.773s-14.916-9.813-23.847-9.79l-26.24 0.098c-3.266 0.001-6.453-1.028-9.1-2.941-2.649-1.913-4.624-4.614-5.648-7.716-3.301-9.649-7.227-19.075-11.752-28.215-1.073-2.101-1.64-4.425-1.655-6.785-0.012-1.923 0.358-3.83 1.083-5.611s1.794-3.401 3.148-4.77l18.831-18.972c3.124-3.128 5.598-6.843 7.275-10.935 1.677-4.090 2.524-8.474 2.496-12.893-0.001-4.427-0.88-8.811-2.588-12.895s-4.21-7.79-7.361-10.9l-42.463-42.189c-0.806-0.798-1.637-1.545-2.493-2.241-6.013-4.972-13.573-7.69-21.376-7.683-4.417 0.006-8.789 0.884-12.865 2.585s-7.778 4.188-10.89 7.322l-18.6 18.778c-1.356 1.364-2.97 2.446-4.746 3.185s-3.677 1.122-5.601 1.125c-2.361 0.012-4.693-0.54-6.8-1.606-9.183-4.464-18.65-8.318-28.338-11.539-3.168-1.043-5.93-3.053-7.897-5.746s-3.039-5.938-3.066-9.272l-0.096-25.501c-0.043-8.928-3.629-17.473-9.97-23.76-6.34-6.285-14.916-9.799-23.844-9.765l-59.772 0.378zM514.814 217.674l0.068 18.203c0.080 11.904 3.887 23.482 10.884 33.111s16.834 16.825 28.13 20.578c7.98 2.686 15.77 5.898 23.323 9.615 7.815 3.863 16.42 5.864 25.135 5.846 7.305-0.003 14.535-1.456 21.272-4.273 6.739-2.817 12.852-6.942 17.985-12.137l13.417-13.518 32.102 31.861-13.689 13.791c-10.268 10.341-16.058 24.303-16.118 38.875-0.037 8.789 1.992 17.461 5.917 25.324 3.744 7.524 6.977 15.295 9.675 23.254 3.804 11.209 11.027 20.942 20.655 27.828s21.175 10.575 33.011 10.552l18.943-0.070 0.169 45.256-19.407 0.073c-11.788 0.067-23.263 3.81-32.823 10.705-9.562 6.896-16.734 16.602-20.519 27.767-2.637 7.836-5.8 15.485-9.464 22.896-3.919 7.906-5.921 16.621-5.844 25.444 0.114 14.658 6.030 28.675 16.448 38.986l14.22 14.113-31.864 32.142-14.53-14.385c-5.167-5.163-11.31-9.247-18.071-12.015-6.76-2.766-14.004-4.161-21.308-4.102-8.643 0.027-17.163 2.051-24.895 5.914-7.398 3.669-15.022 6.861-22.825 9.557-11.12 3.792-20.772 10.976-27.595 20.539-6.822 9.565-10.474 21.029-10.44 32.777l0.074 20.143-45.255 0.169-0.074-20.143c-0.055-11.748-3.792-23.184-10.687-32.698-6.893-9.513-16.598-16.624-27.746-20.333-7.825-2.649-15.473-5.797-22.896-9.424-7.76-3.765-16.276-5.711-24.901-5.69-7.315 0-14.557 1.448-21.31 4.265-6.751 2.817-12.879 6.945-18.025 12.144l-14.385 14.493-32.102-31.903 14.115-14.219c10.339-10.406 16.147-24.478 16.154-39.146 0.012-8.824-2.052-17.527-6.031-25.403-3.719-7.356-6.939-14.956-9.635-22.746-3.86-11.147-11.101-20.812-20.713-27.649-9.612-6.839-21.118-10.507-32.915-10.498l-19.407 0.073-0.168-45.258 18.901-0.070c11.843-0.062 23.368-3.839 32.952-10.797 9.583-6.956 16.74-16.745 20.468-27.985 2.651-7.975 5.823-15.765 9.499-23.323 3.867-7.877 5.828-16.555 5.727-25.33-0.172-14.578-6.082-28.5-16.446-38.752l-13.751-13.689 31.863-32.102 13.48 13.417c5.191 5.153 11.349 9.228 18.12 11.994 6.77 2.765 14.023 4.166 21.336 4.123 8.708-0.053 17.285-2.131 25.051-6.071 7.538-3.749 15.302-7.020 23.251-9.79 11.265-3.829 21.047-11.092 27.972-20.766 6.926-9.675 10.648-21.275 10.642-33.173l-0.068-18.203 44.946-0.168zM323.823 470.679c0.218 44.89 18.232 87.859 50.088 119.486s74.958 49.33 119.848 49.225c44.89-0.23 87.858-18.254 119.477-50.118 31.621-31.864 49.312-74.967 49.195-119.857-0.218-44.882-18.233-87.846-50.093-119.461s-74.96-49.3-119.844-49.174c-44.89 0.209-87.862 18.22-119.486 50.080s-49.312 74.93-49.186 119.82zM492.648 341.728c34.026-0.096 66.701 13.309 90.854 37.277 24.155 23.966 37.814 56.537 37.981 90.563 0.086 34.029-13.328 66.704-37.302 90.857-23.972 24.152-56.546 37.811-90.575 37.979-34.026 0.086-66.698-13.331-90.845-37.305s-37.795-56.547-37.953-90.572c-0.086-34.016 13.327-66.677 37.293-90.817 23.968-24.138 56.532-37.784 90.547-37.941v-0.040z" />
<glyph unicode="&#xe938;" glyph-name="globe" horiz-adv-x="1009" d="M497.682 142.655c-68.51 0.187-134.965 23.412-188.679 65.938l-1.183 0.769c-0.944 0.674-1.824 1.432-2.63 2.266-35.511 28.853-64.107 65.296-83.69 106.65-19.582 41.354-29.652 86.567-29.471 132.323 0.165 45.749 10.575 90.877 30.465 132.077 19.889 41.198 48.756 77.422 84.476 106.004 0.79 0.812 1.65 1.551 2.57 2.209l1.303 0.876c54.034 42.041 120.63 64.698 189.092 64.334 68.475-0.138 134.915-23.292 188.643-65.744l1.298-0.885c0.901-0.655 1.742-1.388 2.516-2.19 35.518-28.85 64.121-65.29 83.711-106.644 19.588-41.354 29.664-86.569 29.487-132.327-0.162-45.796-10.59-90.975-30.514-132.21-19.926-41.234-48.839-77.476-84.618-106.063-0.769-0.768-1.605-1.469-2.494-2.095l-1.037-0.685c-54.051-42.176-120.686-64.933-189.244-64.604zM516.966 184.25c30.228 14.26 54.077 39.248 66.911 70.109 3.109 6.084 6.053 12.45 8.833 19.098-23.311 12.649-48.899 20.546-75.284 23.236l-0.459-112.443zM412.4 254.999c12.594-30.95 36.241-56.114 66.348-70.608l0.418 112.29c-26.405-2.493-52.053-10.201-75.457-22.674 2.705-6.54 5.628-12.876 8.691-19.008zM402.014 198.987c-12.284 16.655-22.614 34.667-30.789 53.68-8.979-7.276-17.316-15.31-24.92-24.011 17.336-12.048 36.036-22.007 55.709-29.668zM593.807 198.27c19.725 7.491 38.498 17.284 55.928 29.175-7.538 8.758-15.815 16.854-24.738 24.197-8.321-18.925-18.786-36.833-31.19-53.372zM316.473 252.524c12.077 14.011 25.733 26.582 40.695 37.459-13.964 45.72-21.511 93.159-22.429 140.955l-103.643 0.388c4.555-68.324 35.106-132.308 85.377-178.802zM679.935 251.168c50.687 46.084 81.787 109.843 86.902 178.158l-103.643 0.386c-1.274-47.789-9.178-95.169-23.482-140.784 14.747-11.011 28.18-23.682 40.034-37.761h0.189zM605.892 309.715c11.342 39.092 17.725 79.457 19.004 120.142l-106.819 0.398-0.355-95.304c30.679-2.657 60.555-11.226 87.979-25.236h0.192zM391.145 310.515c27.573 13.825 57.566 22.171 88.317 24.577l0.355 95.305-106.781 0.398c0.901-40.682 6.908-81.092 17.878-120.279l0.231-0.001zM766.98 467.585c-4.615 68.397-35.265 132.425-85.646 178.915-12.104-13.897-25.773-26.35-40.733-37.113 14.109-45.842 21.763-93.424 22.736-141.378l103.643-0.424zM625.038 468.114c-0.98 40.907-7.127 81.525-18.296 120.891-27.538-13.653-57.441-21.893-88.086-24.272l-0.36-96.219 106.742-0.399zM479.961 468.657l0.36 96.373c-30.626 2.611-60.467 11.074-87.905 24.93-11.461-39.282-17.911-79.854-19.197-120.753l106.742-0.55zM334.882 469.198c1.33 47.944 9.337 95.469 23.79 141.204-14.88 10.873-28.455 23.428-40.455 37.415-50.7-46.112-81.812-109.893-86.941-178.233l103.605-0.386zM518.722 603.146c26.302 2.424 51.874 9.984 75.264 22.254-2.654 6.385-5.475 12.569-8.464 18.549-12.603 30.956-36.263 56.121-66.384 70.606l-0.415-111.41zM480.462 603.29l0.417 111.41c-30.212-14.27-54.044-39.257-66.872-70.109-3.031-5.932-5.9-12.095-8.602-18.486 23.23-12.412 48.662-20.163 74.865-22.815h0.192zM373.004 647.651c8.306 18.812 18.73 36.617 31.074 53.065-19.681-7.475-38.416-17.243-55.814-29.098 7.481-8.689 15.695-16.72 24.55-24.004l0.19 0.037zM626.508 646.704c8.985 7.197 17.336 15.154 24.959 23.782-17.31 11.985-35.97 21.89-55.596 29.515 12.143-16.562 22.357-34.456 30.445-53.333l0.192 0.037z" />
<glyph unicode="&#xe939;" glyph-name="globe_fill" d="M492.275 465.083l0.361 96.565c-30.604 2.496-60.447 10.841-87.906 24.585-11.412-39.294-17.886-79.857-19.275-120.752l106.819-0.398zM491.773 331.137l0.357 95.647-106.666 0.398c1.077-40.692 7.197-81.093 18.221-120.279 27.53 13.666 57.441 21.921 88.087 24.234zM348.659 683.008c10.452-14.468 22.796-27.471 36.699-38.665 12.993 30.888 32.701 58.495 57.691 80.82-33.766-8.167-65.763-22.412-94.427-42.040zM491.213 180.97l0.418 111.909c-26.365-2.51-51.971-10.217-75.342-22.676 5.781-19.201 15.404-37.029 28.283-52.402 12.879-15.372 28.747-27.967 46.64-37.022zM652.61 605.967c14.174-45.919 21.851-93.597 22.81-141.646l122.697-0.458c-4.59 74.215-37.863 143.736-92.783 193.864-14.828-19.885-32.652-37.347-52.838-51.76zM493.191 710.897c-17.879-8.865-33.776-21.263-46.728-36.444s-22.692-32.832-28.63-51.885c23.261-12.376 48.722-20.075 74.944-22.661l0.414 110.99zM675.659 681.674c-28.517 19.839-60.407 34.323-94.111 42.742 24.828-22.521 44.327-50.287 57.085-81.285 13.988 11.103 26.427 24.027 36.987 38.428zM531.45 710.753l-0.414-110.95c26.239 2.39 51.756 9.899 75.109 22.101-5.794 19.096-15.402 36.819-28.24 52.097s-28.643 27.756-46.454 36.753zM369.94 286.141c-14.084 45.779-21.723 93.298-22.696 141.185l-122.659 0.458c4.596-74.183 37.854-143.675 92.745-193.786 14.744 20.015 32.519 37.609 52.688 52.142zM347.048 210.126c28.501-19.852 60.378-34.349 94.073-42.781-24.832 22.623-44.329 50.477-57.085 81.553-13.941-11.166-26.317-24.156-36.797-38.619zM675.277 426.141c-1.327-47.879-9.321-95.34-23.749-141.014 20.041-14.694 37.66-32.433 52.218-52.572 55.24 49.731 88.999 118.979 94.151 193.128l-122.62 0.458zM530.896 561.505l-0.361-96.566 106.666-0.398c-1.080 40.891-7.251 81.49-18.372 120.854-27.569-13.509-57.47-21.618-88.086-23.89zM347.389 465.623c1.317 48.040 9.351 95.659 23.867 141.471-20.044 14.551-37.701 32.133-52.337 52.114-55.242-49.725-88.989-118.979-94.113-193.128l122.583-0.458zM530.393 426.68l-0.357-95.649c30.632-2.522 60.485-10.963 87.905-24.852 11.315 39.102 17.739 79.458 19.12 120.142l-106.667 0.36zM529.474 180.828c17.961 8.921 33.922 21.397 46.915 36.672s22.749 33.031 28.673 52.19c-23.277 12.632-48.824 20.53-75.17 23.236l-0.418-112.099zM674.047 208.754c-10.369 14.531-22.633 27.611-36.469 38.893-12.989-30.979-32.693-58.687-57.692-81.126 33.769 8.18 65.766 22.439 94.429 42.078z" />
<glyph unicode="&#xe93a;" glyph-name="half_arrow" d="M779.402 362.296l-550.879 2.055 0.144 38.817 503.95-1.882-113.694 114.546 27.546 27.341 146.72-147.818-13.787-33.059z" />
<glyph unicode="&#xe93b;" glyph-name="half_arrow_round" d="M775.53 359.491l-521.807 1.947c-5.147 0.019-10.077 2.082-13.702 5.736-3.626 3.652-5.653 8.597-5.633 13.744s2.082 10.077 5.736 13.702c3.654 3.627 8.597 5.653 13.745 5.633l474.915-1.772-113.694 114.546c-3.522 3.673-5.458 8.584-5.396 13.671 0.064 5.089 2.122 9.949 5.734 13.535s8.487 5.608 13.576 5.633c5.089 0.025 9.985-1.95 13.631-5.498l146.72-147.818c2.71-2.725 4.552-6.193 5.289-9.965s0.338-7.679-1.146-11.224c-1.486-3.545-3.989-6.57-7.196-8.689-3.206-2.121-6.969-3.241-10.813-3.22l0.040 0.040z" />
<glyph unicode="&#xe93c;" glyph-name="heart" horiz-adv-x="1009" d="M398.747 717.66c24.567-2.275 48.29-10.126 69.366-22.954s38.947-30.296 52.252-51.073c13.455 20.675 31.449 38.006 52.613 50.678 21.163 12.67 44.939 20.345 69.518 22.44 44.478-1.675 86.483-20.897 116.827-53.462s46.555-75.82 45.090-120.307c-0.042-11.881-1.254-23.73-3.615-35.376l1.378-0.006-6.384-19.105c-0.439-1.35-0.878-2.687-1.317-4.013l-0.619-1.872c0 0-0.31-0.917-0.927-2.56-2.601-7.052-5.655-13.929-9.144-20.588-20.895-42.351-87.378-151.755-254.743-259.214l-10.432-6.695-10.382 6.773c-166.026 108.206-231.654 217.568-252.916 261.224l-0.91 1.878c-2.203 4.637-4.137 9.083-5.843 13.221l-0.834 2.108c-1.327 3.372-2.009 5.402-2.085 5.594l-8.588 25.512 1.836-0.007c-2.276 11.663-3.398 23.521-3.35 35.403-1.093 44.469 15.459 87.565 46.041 119.868 30.581 32.304 72.705 51.191 117.169 52.533zM520.093 570.712l-16.459 28.757c-21.059 36.769-61.185 79.77-105.030 79.933-34.345-1.374-66.749-16.285-90.135-41.475-23.385-25.189-35.85-58.611-34.673-92.963-0.032-16.413 2.727-32.712 8.161-48.2l2.045-5.746c1.251-3.066 2.73-6.4 4.324-9.849l0.721-1.456c18.45-38.75 77.303-138.521 229.731-240.631 96.334 57.607 175.901 139.435 230.788 237.343l0.269 0.497c2.556 4.861 4.81 9.874 6.753 15.010l1.083 3.057c5.55 15.432 8.419 31.699 8.482 48.099 1.435 34.342-10.781 67.856-33.978 93.219s-55.489 40.517-89.822 42.146c-43.769 0.162-83.253-40.78-105.586-79.148l-16.674-28.594z" />
<glyph unicode="&#xe93d;" glyph-name="heart_fill" d="M779.412 463.217c6.456 18 9.8 36.968 9.889 56.090 1.558 40.605-13.053 80.169-40.626 110.016s-65.861 47.538-106.461 49.196c-53.065 0.197-99.648-46.305-125.87-91.354-25.887 45.205-72.082 92.093-125.147 92.29-40.619-1.343-79.045-18.745-106.85-48.385-27.803-29.642-42.714-69.101-41.46-109.723-0.053-19.122 3.15-38.115 9.469-56.162 0 0 0.569-1.723 1.782-4.789l0.796-1.992c1.289-3.18 3.109-7.434 5.614-12.608 20.689-43.463 85.82-152.937 254.287-262.874 167.212 107.306 233.574 214.913 255.432 259.212 3.277 6.162 6.126 12.543 8.527 19.098 0.502 1.261 0.734 1.987 0.734 1.987z" />
<glyph unicode="&#xe93e;" glyph-name="heart_round" horiz-adv-x="1009" d="M402.349 717.662c24.567-2.276 48.292-10.126 69.367-22.955 21.074-12.828 38.946-30.296 52.252-51.073 13.454 20.675 31.449 38.006 52.612 50.678 21.165 12.67 44.94 20.345 69.518 22.44 44.478-1.675 86.484-20.897 116.827-53.462 30.344-32.563 46.555-75.82 45.090-120.305-0.072-20.359-3.562-40.559-10.323-59.762l-0.233-0.802c0 0-0.31-0.917-0.927-2.56-2.601-7.054-5.655-13.931-9.144-20.588-20.895-42.353-87.378-151.755-254.745-259.215-3.101-1.989-6.713-3.040-10.398-3.027-3.686 0.015-7.289 1.093-10.376 3.104-167.169 109.053-232.566 218.949-253.333 262.222l-0.531 1.034c-2.202 4.637-4.137 9.083-5.843 13.221l-0.758 1.916c-1.327 3.372-2.009 5.402-2.085 5.594-0.246 0.727-0.448 1.469-0.604 2.221-6.317 18.853-9.513 38.612-9.46 58.497-1.207 44.522 15.28 87.709 45.849 120.101 30.568 32.392 72.729 51.349 117.247 52.721zM523.766 589.842c-3.357 0.013-6.653 0.91-9.554 2.599-2.902 1.69-5.309 4.114-6.976 7.028-21.058 36.769-61.185 79.77-105.030 79.933-34.345-1.374-66.749-16.285-90.134-41.473-23.387-25.19-35.852-58.612-34.673-92.965-0.034-16.412 2.725-32.711 8.16-48.198 0.227-0.666 0.415-1.344 0.566-2.030l0.759-1.916 0.72-1.761c1.327-3.22 2.844-6.745 4.59-10.386l0.494-0.92c18.45-38.75 77.303-138.521 229.73-240.63 96.334 57.606 175.901 139.434 230.788 237.343l0.271 0.496c2.775 5.297 5.198 10.771 7.254 16.387l0.231 0.611c0.001 0.382 0.117 0.752 0.348 1.107 5.55 15.432 8.42 31.7 8.482 48.099 1.435 34.342-10.78 67.856-33.976 93.221-23.198 25.363-55.491 40.515-89.824 42.145-43.767 0.164-83.251-40.78-105.585-79.148-1.69-2.914-4.116-5.331-7.038-7.006s-6.235-2.55-9.604-2.535z" />
<glyph unicode="&#xe93f;" glyph-name="home" d="M796.476 136.152l-229.364 0.856 0.769 205.998-128.675 0.481-0.77-205.998-229.559 0.856 1.56 417.934 294.569 205.094 293.030-207.287-1.56-417.934zM606.073 175.68l151.732-0.567 1.34 358.934-254.316 179.895-255.651-177.992-1.34-358.971 151.927-0.567 0.769 206.036 206.502-0.772-0.963-205.996z" />
<glyph unicode="&#xe940;" glyph-name="home_fill" d="M592.903 366.049l-0.758-203.055 187.826-0.701 1.429 382.885-269.764 190.863-271.18-188.845-1.429-382.885 188.018-0.701 0.758 203.053 165.1-0.616z" />
<glyph unicode="&#xe941;" glyph-name="img" d="M236.522 159.187c-5.421 0.030-10.61 2.208-14.428 6.056-3.82 3.848-5.96 9.054-5.95 14.476l2.057 550.881c0.030 5.421 2.208 10.61 6.056 14.428 3.848 3.82 9.051 5.96 14.473 5.95l550.881-2.055c5.421-0.031 10.611-2.21 14.431-6.058s5.958-9.051 5.95-14.473l-2.057-550.842c-0.030-5.423-2.208-10.612-6.056-14.431s-9.054-5.957-14.476-5.947l-550.881 2.015zM767.064 198.156l1.322 354.329-173.204-180.849c-1.932-1.996-4.246-3.581-6.804-4.664-2.557-1.085-5.307-1.644-8.084-1.646-4.486 0.031-8.839 1.52-12.405 4.24l-128.459 98.446-181.721-134.085-0.499-133.907 509.854-1.865zM257.9 385.043l169.656 125.127c3.553 2.55 7.83 3.894 12.202 3.835 4.486-0.022 8.844-1.509 12.405-4.237l126.173-96.691 188.009 196.24c0.698 0.733 1.468 1.394 2.297 1.972l0.361 96.605-509.854 1.903-1.25-324.753zM292.808 597.112c0.085 17.252 7.012 33.767 19.26 45.918 12.249 12.15 28.819 18.943 46.073 18.889 17.249-0.076 33.764-6.993 45.915-19.235 12.153-12.243 18.948-28.809 18.895-46.059-0.076-17.252-6.993-33.771-19.235-45.929s-28.807-18.962-46.061-18.919c-17.257 0.086-33.776 7.011-45.933 19.259s-18.959 28.819-18.914 46.076zM357.808 572.765c6.389-0.013 12.524 2.507 17.059 7.008s7.098 10.617 7.132 17.006c0.013 6.39-2.504 12.522-7.005 17.058s-10.617 7.101-17.007 7.135c-6.389 0.013-12.524-2.507-17.059-7.008s-7.098-10.615-7.132-17.004c-0.013-6.383 2.501-12.512 6.993-17.046 4.494-4.534 10.636-7.104 17.019-7.149z" />
<glyph unicode="&#xe942;" glyph-name="letter" horiz-adv-x="1009" d="M297.433 220.934c-16.595 0.082-32.478 6.741-44.17 18.518-11.69 11.779-18.23 27.712-18.189 44.306l1.103 295.399c0.082 16.595 6.742 32.478 18.52 44.168 11.777 11.691 27.711 18.232 44.306 18.189l420.391-1.568c16.587-0.082 32.467-6.738 44.155-18.508 11.69-11.769 18.235-27.692 18.204-44.279l-1.103-295.399c-0.082-16.595-6.744-32.478-18.521-44.168s-27.709-18.232-44.304-18.189l-420.391 1.532zM273.333 283.616c-0.013-6.451 2.531-12.645 7.074-17.224 4.544-4.577 10.717-7.165 17.167-7.2l420.393-1.568c6.45-0.015 12.642 2.528 17.221 7.071 4.577 4.544 7.168 10.72 7.202 17.17l1.071 286.597-195.708-156.132c-11.132-8.944-24.989-13.806-39.266-13.782-14.279 0.082-28.1 5.048-39.165 14.074l-194.763 157.591-1.224-286.597zM493.23 442.26c4.311-3.533 9.709-5.473 15.284-5.493 5.575-0.022 10.985 1.878 15.322 5.379l199.545 159.182c-1.327 0.23-2.67 0.348-4.016 0.358l-420.391 1.568c-1.347 0.001-2.69-0.108-4.018-0.328l198.274-160.667z" />
<glyph unicode="&#xe943;" glyph-name="letter_fill" horiz-adv-x="1009" d="M728.15 639.927h0.006c7.446-0.029 14.684-2.449 20.651-6.902 5.967-4.456 10.345-10.711 12.487-17.844 2.143-7.133 1.937-14.765-0.588-21.772s-7.234-13.015-13.433-17.142l-219.812-146.173c-7.633-5.085-16.606-7.782-25.778-7.749-9.171 0.035-18.125 2.798-25.718 7.942l-218.217 147.807c-6.17 4.175-10.837 10.222-13.308 17.251-2.472 7.029-2.619 14.665-0.418 21.783s6.631 13.341 12.639 17.749c6.006 4.408 13.271 6.767 20.723 6.731l450.768-1.682zM542.398 403.604l220.387 146.591-0.916-245.241c-0.018-4.947-1.011-9.842-2.923-14.405s-4.703-8.705-8.217-12.189c-3.512-3.483-7.677-6.239-12.256-8.112-4.58-1.874-9.482-2.825-14.43-2.801l-447.631 1.671c-4.947 0.013-9.844 1.002-14.408 2.908-4.566 1.908-8.71 4.694-12.196 8.204-3.487 3.509-6.248 7.673-8.126 12.25-1.877 4.576-2.834 9.479-2.815 14.425l0.917 245.776 1.874-0.006 2.137-1.501 213.447-144.5c11.511-7.725 24.806-12.382 38.622-13.524 13.817-1.144 27.696 1.264 40.321 6.994 2.164 0.979 4.241 2.134 6.211 3.458z" />
<glyph unicode="&#xe944;" glyph-name="lock" d="M352.084 481.841v0l366.929-1.368-1.174-314.411-417.118 1.557 1.174 314.411 50.189-0.188zM352.229 520.658l-89.006 0.332-1.463-392.044 494.751-1.848 1.463 392.044-89.005 0.332 0.319 85.318c0.157 42.002-16.378 82.346-45.967 112.158-29.589 29.81-69.81 46.645-111.812 46.803s-82.346-16.378-112.158-45.967c-29.81-29.589-46.647-69.809-46.804-111.812l-0.318-85.317zM391.045 520.513l0.319 85.318c0.119 31.707 12.828 62.069 35.332 84.406s52.96 34.819 84.667 34.702c31.708-0.119 62.071-12.828 84.407-35.332s34.819-52.96 34.7-84.668l-0.318-85.317-239.108 0.892zM568.592 342.771c-0.045-11.601-3.526-22.927-10.007-32.548s-15.669-17.105-26.403-21.504c-0.647-0.266-1.299-0.519-1.955-0.76l-0.169-45.426-41.028 0.153 0.169 45.44c-7.817 2.956-14.947 7.561-20.887 13.545-8.171 8.234-13.719 18.705-15.939 30.091-2.222 11.386-1.017 23.174 3.464 33.874 4.479 10.702 12.030 19.833 21.7 26.241 9.669 6.41 21.022 9.807 32.621 9.764 15.556-0.058 30.45-6.294 41.408-17.334s17.083-25.981 17.025-41.536z" />
<glyph unicode="&#xe945;" glyph-name="lock_fill" d="M672.768 510.897l69.595-0.26-1.396-373.839-455.934 1.702 1.395 373.839 69.601-0.26 0.315 84.271c0.077 20.796 4.25 41.376 12.282 60.56 8.030 19.184 19.76 36.6 34.521 51.25 14.762 14.652 32.263 26.252 51.509 34.139 19.244 7.886 39.853 11.907 60.65 11.828 20.796-0.077 41.376-4.25 60.56-12.281s36.6-19.762 51.25-34.522c14.652-14.76 26.252-32.263 34.139-51.507 7.886-19.244 11.907-39.853 11.828-60.65l-0.315-84.271zM633.952 511.043l0.315 84.271c0.058 15.7-2.976 31.257-8.93 45.785s-14.711 27.74-25.772 38.882c-11.059 11.144-24.206 19.999-38.688 26.062-14.483 6.062-30.018 9.213-45.718 9.271s-31.257-2.976-45.785-8.93-27.74-14.711-38.884-25.772c-11.142-11.059-19.998-24.206-26.060-38.688-6.062-14.483-9.213-30.018-9.272-45.718l-0.313-84.271 239.107-0.892zM533.857 244.978l0.169 45.571c12.908 4.761 23.733 13.866 30.585 25.796s9.295 25.888 6.902 39.436c-2.392 13.549-9.468 25.826-19.993 34.687-10.523 8.863-23.827 13.745-37.584 13.797-13.757 0.050-27.096-4.733-37.686-13.515s-17.758-21.007-20.251-34.537c-2.493-13.53-0.154-27.506 6.607-39.488 6.763-11.981 17.519-21.206 30.392-26.062l-0.171-45.532 41.030-0.153z" />
<glyph unicode="&#xe946;" glyph-name="logout" d="M284.7 723.003c-10.936 0.042-21.44-4.264-29.203-11.967-7.762-7.705-12.146-18.177-12.186-29.113l-40.812 0.153c0.082 21.759 8.803 42.595 24.248 57.924 15.443 15.33 36.345 23.896 58.104 23.815l234.235-0.874c22.095-0.083 44.899-8.93 62.25-22.63 17.276-13.64 31.912-34.452 31.817-59.767l-0.23-61.64c-0.042-11.27-9.212-20.372-20.481-20.33s-20.372 9.212-20.33 20.481l0.232 61.64c0.031 8.726-5.181 18.809-16.296 27.584-11.038 8.716-25.167 13.806-37.113 13.851l-234.233 0.874zM241.627 230.458c-0.042-10.936 4.264-21.44 11.967-29.203 7.705-7.762 18.177-12.144 29.113-12.186l246.561-0.92c10.936-0.042 21.44 4.264 29.203 11.969 7.762 7.704 12.146 18.175 12.186 29.111l0.383 102.452c0.042 11.27 9.212 20.372 20.481 20.33 11.27-0.043 20.372-9.213 20.33-20.481l-0.383-102.452c-0.082-21.761-8.803-42.597-24.248-57.926-15.443-15.329-36.345-23.896-58.104-23.815l-246.563 0.92c-21.759 0.082-42.595 8.803-57.926 24.248-15.329 15.443-23.895 36.345-23.813 58.105l1.684 451.465c0 0.003 0 0 20.406-0.077s20.406-0.073 20.406-0.076l-1.684-451.465zM676.686 610.994c7.998 7.938 20.918 7.891 28.858-0.108l122.821-123.741c3.821-3.85 5.953-9.063 5.923-14.486s-2.217-10.614-6.080-14.422l-123.738-121.973c-8.027-7.912-20.946-7.82-28.858 0.206s-7.82 20.946 0.206 28.858l88.483 87.221-369.651 1.38c-11.27 0.042-20.372 9.212-20.329 20.481 0.042 11.27 9.212 20.372 20.481 20.33l369.891-1.382-88.116 88.776c-7.94 7.999-7.891 20.919 0.108 28.859z" />
</font>
</defs>
</svg>
