<svg id="logo_b" xmlns="http://www.w3.org/2000/svg" xmlns:xlink="http://www.w3.org/1999/xlink" width="116" height="36" viewBox="0 0 116 36">
  <defs>
    <clipPath id="clip-path">
      <rect id="사각형_147" data-name="사각형 147" width="116" height="36" transform="translate(14 19)" fill="none"/>
    </clipPath>
  </defs>
  <g id="logo_b-2" data-name="logo_b" transform="translate(-14 -19)" clip-path="url(#clip-path)">
    <g id="그룹_65" data-name="그룹 65" transform="translate(14 19.971)">
      <path id="패스_861" data-name="패스 861" d="M116.734,1.383A2.751,2.751,0,0,0,111.6,2.752v7.557l4.858-5.789a2.752,2.752,0,0,0,.281-3.136" transform="translate(-72.974 0)" fill="#00ebcd"/>
      <path id="패스_862" data-name="패스 862" d="M21.689-49.309v-17.6a.582.582,0,0,1,.581-.581h2.792a1.178,1.178,0,0,1,1.177,1.177v.9a7.54,7.54,0,0,1,.96-.741,8.733,8.733,0,0,1,4.706-1.327l.878-.012A2.218,2.218,0,0,1,35-65.281a2.219,2.219,0,0,1-2.216,2.216h-.032l-.843-.011a5.27,5.27,0,0,0-3.957,1.408,6.123,6.123,0,0,0-1.712,4.037v8.321a2.278,2.278,0,0,1-2.275,2.275A2.278,2.278,0,0,1,21.689-49.309Zm-18.347.972A9.41,9.41,0,0,1-.274-51.99a10.678,10.678,0,0,1-1.3-5.275,10.705,10.705,0,0,1,1.3-5.254,9.377,9.377,0,0,1,3.618-3.675,10.274,10.274,0,0,1,5.143-1.3,8.947,8.947,0,0,1,7.28,3.078l.006.008a10.938,10.938,0,0,1,2.3,6.928,2.011,2.011,0,0,1-.529,1.4,2.073,2.073,0,0,1-1.526.653H3.084A5.535,5.535,0,0,0,4.713-52.59a5.548,5.548,0,0,0,3.98,1.495,7.25,7.25,0,0,0,2.81-.54,6.466,6.466,0,0,0,1.66-1,2.008,2.008,0,0,1,2.726.111,2.02,2.02,0,0,1,.589,1.5,2.031,2.031,0,0,1-.7,1.456A10.325,10.325,0,0,1,13.046-47.9a11.529,11.529,0,0,1-4.492.865A10.406,10.406,0,0,1,3.342-48.337ZM4.674-62.023a5.348,5.348,0,0,0-1.566,2.641H13.676a5.1,5.1,0,0,0-1.419-2.68A5.067,5.067,0,0,0,8.52-63.436,5.4,5.4,0,0,0,4.674-62.023ZM-14.911-48.867l-6.221-15.6a2.211,2.211,0,0,1,.224-2.061,2.209,2.209,0,0,1,1.831-.971h.07a2.225,2.225,0,0,1,2.067,1.425l4.779,12.552,4.721-12.544A2.222,2.222,0,0,1-5.368-67.5a2.21,2.21,0,0,1,1.831.969,2.213,2.213,0,0,1,.226,2.059L-9.5-48.872a2.9,2.9,0,0,1-2.705,1.838A2.9,2.9,0,0,1-14.911-48.867Zm-22.83.53a9.4,9.4,0,0,1-3.615-3.653,10.669,10.669,0,0,1-1.3-5.275,10.705,10.705,0,0,1,1.3-5.254,9.38,9.38,0,0,1,3.617-3.675A10.28,10.28,0,0,1-32.6-67.5a8.946,8.946,0,0,1,7.276,3.073l0,0a10.941,10.941,0,0,1,2.3,6.936,2.008,2.008,0,0,1-.53,1.4,2.071,2.071,0,0,1-1.525.653H-38a5.542,5.542,0,0,0,1.629,2.836,5.55,5.55,0,0,0,3.981,1.495,7.242,7.242,0,0,0,2.809-.54,6.472,6.472,0,0,0,1.661-1,2.008,2.008,0,0,1,2.726.111,2.019,2.019,0,0,1,.588,1.5,2.024,2.024,0,0,1-.7,1.456A10.319,10.319,0,0,1-28.037-47.9a11.532,11.532,0,0,1-4.492.865A10.4,10.4,0,0,1-37.742-48.337Zm1.332-13.685a5.341,5.341,0,0,0-1.566,2.641h10.568a5.091,5.091,0,0,0-1.418-2.68,5.068,5.068,0,0,0-3.738-1.373A5.4,5.4,0,0,0-36.41-62.023ZM-54.882-47.035a2.741,2.741,0,0,1-2.57-1.8l-4.891-13.438-4.891,13.438a2.74,2.74,0,0,1-2.569,1.8,2.741,2.741,0,0,1-2.57-1.8l-7.46-20.5a2.734,2.734,0,0,1,1.634-3.5A2.734,2.734,0,0,1-74.7-71.2L-69.8-57.763-64.913-71.2a2.734,2.734,0,0,1,2.57-1.8,2.735,2.735,0,0,1,2.57,1.8l4.892,13.437L-49.991-71.2a2.734,2.734,0,0,1,3.5-1.634,2.734,2.734,0,0,1,1.634,3.5l-7.46,20.5a2.74,2.74,0,0,1-2.561,1.8Z" transform="translate(80 81.091)"/>
    </g>
  </g>
</svg>
