<svg width="164" height="32" viewBox="0 0 164 32" fill="none" xmlns="http://www.w3.org/2000/svg">
<g opacity="0.5">
<path d="M56.005 15.5337C56.2412 15.4747 56.5188 15.4038 56.8377 15.3211C57.1685 15.2266 57.5051 15.144 57.8476 15.0731C58.1902 15.0022 58.5268 14.9491 58.8575 14.9136C59.2001 14.8664 59.5013 14.8487 59.7611 14.8605C59.9974 14.8959 60.1568 14.9963 60.2395 15.1617C60.3222 15.3152 60.3281 15.5101 60.2572 15.7464C60.1745 15.9826 60.0505 16.2247 59.8852 16.4728C59.7316 16.7208 59.5544 16.9689 59.3536 17.2169C59.1646 17.465 58.9697 17.7071 58.7689 17.9433C58.5681 18.1678 58.3851 18.3745 58.2197 18.5634C58.4559 18.5634 58.7217 18.5398 59.017 18.4926C59.3123 18.4335 59.6017 18.3745 59.8852 18.3154C60.1686 18.2445 60.4344 18.1737 60.6824 18.1028C60.9423 18.0319 61.1549 17.9729 61.3203 17.9256C61.4975 17.902 61.6392 17.902 61.7455 17.9256C61.8518 17.9374 61.9286 18.026 61.9758 18.1914C62.0113 18.3331 61.964 18.4808 61.8341 18.6343C61.716 18.7879 61.5565 18.906 61.3557 18.9887C60.9423 19.1777 60.5053 19.3371 60.0446 19.467C60.0682 19.656 60.08 19.91 60.08 20.2289C60.08 20.5478 60.0741 20.8549 60.0623 21.1502C60.4639 21.0793 60.8537 21.0203 61.2317 20.973C61.6215 20.914 61.9876 20.8726 62.3302 20.849C62.6019 20.8254 62.844 20.8254 63.0566 20.849C63.2692 20.8726 63.4169 20.9671 63.4995 21.1325C63.5704 21.2624 63.5822 21.3746 63.535 21.4691C63.4995 21.5636 63.4287 21.6463 63.3224 21.7172C63.2161 21.7762 63.092 21.8294 62.9503 21.8766C62.8204 21.9121 62.7022 21.9357 62.5959 21.9475C62.1471 22.0066 61.6569 22.0833 61.1254 22.1778C60.5939 22.2605 60.0387 22.3491 59.4599 22.4436C58.893 22.5381 58.3142 22.6326 57.7236 22.7271C57.133 22.8098 56.5661 22.8747 56.0227 22.922C55.7038 22.9574 55.4558 22.9397 55.2786 22.8688C55.1014 22.7979 55.001 22.6444 54.9774 22.4082C54.9538 22.1956 54.9951 22.0538 55.1014 21.9829C55.2195 21.9003 55.3731 21.8471 55.5621 21.8235C56.1881 21.7644 56.7905 21.6876 57.3693 21.5932C57.9598 21.4987 58.5268 21.4042 59.0701 21.3097C59.1056 20.8018 59.1233 20.2643 59.1233 19.6974C58.6745 19.7919 58.2315 19.845 57.7945 19.8568C57.4283 19.8805 57.1685 19.7682 57.0149 19.5202C56.8732 19.2722 56.8732 18.9946 57.0149 18.6875C57.133 18.463 57.2807 18.2386 57.4578 18.0142C57.635 17.7898 57.8181 17.5713 58.0071 17.3587C58.1961 17.146 58.3674 16.9393 58.5209 16.7385C58.6863 16.5259 58.8044 16.3133 58.8753 16.1007C58.6272 16.1361 58.3673 16.1834 58.0957 16.2424C57.8358 16.3015 57.5819 16.3665 57.3338 16.4373C57.0858 16.5082 56.8495 16.5732 56.6251 16.6322C56.4125 16.6913 56.2353 16.7326 56.0936 16.7563C55.9637 16.7917 55.8278 16.774 55.6861 16.7031C55.5444 16.6204 55.444 16.4905 55.3849 16.3133C55.3258 16.1007 55.3554 15.9353 55.4735 15.8172C55.6034 15.6873 55.7806 15.5928 56.005 15.5337ZM57.5819 24.5343C57.8299 24.3807 58.1193 24.2213 58.45 24.0559C58.7808 23.8905 59.1174 23.7429 59.4599 23.613C59.8143 23.483 60.1627 23.3767 60.5053 23.294C60.8478 23.1995 61.1667 23.1464 61.462 23.1346C61.7219 23.1228 61.8931 23.1877 61.9758 23.3295C62.0585 23.4594 62.088 23.6956 62.0644 24.0382C62.029 24.3453 61.9817 24.7705 61.9227 25.3138C61.8754 25.8454 61.8164 26.4005 61.7455 26.9793C61.6746 27.5699 61.6038 28.1368 61.5329 28.6802C61.462 29.2353 61.3971 29.6842 61.338 30.0267C61.3144 30.1685 61.2789 30.3161 61.2317 30.4697C61.1963 30.635 61.1431 30.7886 61.0722 30.9303C61.0014 31.0721 60.9128 31.1902 60.8065 31.2847C60.712 31.3792 60.5939 31.4264 60.4521 31.4264C60.2868 31.4264 60.1923 31.3378 60.1686 31.1606C60.1568 30.9953 60.1627 30.8299 60.1864 30.6645C60.2572 30.2275 60.334 29.7373 60.4167 29.194C60.4994 28.6507 60.5761 28.0955 60.647 27.5285C60.7179 26.9616 60.7828 26.4064 60.8419 25.8631C60.9128 25.3197 60.9718 24.8296 61.0191 24.3925C60.8183 24.428 60.588 24.487 60.3281 24.5697C60.0682 24.6406 59.8025 24.7292 59.5308 24.8355C59.2591 24.9418 58.9993 25.054 58.7512 25.1721C58.515 25.2784 58.326 25.3729 58.1843 25.4556C58.1016 25.5146 58.0012 25.5619 57.8831 25.5973C57.7768 25.6209 57.6705 25.6269 57.5642 25.615C57.4697 25.5914 57.387 25.5442 57.3161 25.4733C57.2452 25.4024 57.2098 25.2961 57.2098 25.1544C57.2098 24.8945 57.3338 24.6878 57.5819 24.5343Z" fill="black"/>
<path d="M44.3698 20.0873C44.2989 19.8983 44.2989 19.7329 44.3698 19.5912C44.4525 19.4376 44.6297 19.3195 44.9013 19.2368C45.4683 19.0479 46.0353 18.8707 46.6022 18.7053C47.1692 18.5281 47.6771 18.3687 48.1259 18.2269C48.4685 18.1206 48.746 18.1325 48.9587 18.2624C49.1713 18.3923 49.2599 18.6463 49.2244 19.0242C49.1181 20.17 48.9173 21.3157 48.622 22.4614C48.3385 23.5954 48.061 24.7116 47.7893 25.8101C47.7066 26.1172 47.6062 26.3357 47.4881 26.4656C47.3818 26.5837 47.2282 26.6251 47.0274 26.5896C46.8739 26.566 46.7676 26.4774 46.7085 26.3239C46.6495 26.1703 46.6377 25.9813 46.6731 25.7569C46.7558 25.3199 46.868 24.8415 47.0097 24.3218C47.1515 23.8021 47.2932 23.2646 47.4349 22.7095C47.5885 22.1543 47.7184 21.5992 47.8247 21.044C47.9428 20.4889 48.0137 19.9515 48.0373 19.4317C47.5885 19.5617 47.1278 19.7093 46.6554 19.8747C46.1829 20.0282 45.7518 20.1818 45.362 20.3353C45.1494 20.4298 44.9486 20.4653 44.7596 20.4416C44.5706 20.4062 44.4407 20.2881 44.3698 20.0873ZM52.8034 25.9695C52.7679 26.5955 52.5494 26.9027 52.1478 26.8908C51.7817 26.8672 51.6222 26.5778 51.6694 26.0227C51.8348 24.4753 51.9647 22.9398 52.0592 21.4161C52.1537 19.8924 52.1537 18.4277 52.0592 17.0222C52.0356 16.7032 52.1655 16.5024 52.449 16.4198C52.6144 16.3843 52.7561 16.4079 52.8742 16.4906C52.9924 16.5615 53.0632 16.6737 53.0868 16.8273C53.1932 17.536 53.2463 18.2919 53.2463 19.0951C53.2581 19.8983 53.2345 20.7015 53.1754 21.5047C53.1282 22.3079 53.0632 23.0934 52.9805 23.8611C52.9097 24.6171 52.8506 25.3199 52.8034 25.9695Z" fill="black"/>
<path d="M30.6517 24.3394C30.4509 24.363 30.2678 24.3276 30.1024 24.2331C29.9489 24.1386 29.8662 23.9732 29.8544 23.737C29.8426 23.5362 29.9075 23.3885 30.0493 23.294C30.191 23.1995 30.3682 23.1287 30.5808 23.0814C31.006 22.9987 31.4962 22.9102 32.0514 22.8157C32.6183 22.7094 33.1912 22.5972 33.77 22.479C34.3606 22.3609 34.9334 22.2428 35.4886 22.1247C36.0437 22.0066 36.5339 21.8884 36.9591 21.7703C37.1836 21.6995 37.3666 21.7054 37.5084 21.788C37.6619 21.8589 37.7564 21.9948 37.7919 22.1956C37.8155 22.3845 37.7741 22.544 37.6678 22.6739C37.5733 22.792 37.4375 22.8806 37.2603 22.9397C36.4808 23.1759 35.7307 23.3826 35.0102 23.5598C34.2897 23.7252 33.5928 23.8669 32.9195 23.985V27.3159C33.2621 27.2451 33.6105 27.1624 33.9649 27.0679C34.331 26.9734 34.6736 26.873 34.9925 26.7667C35.3232 26.6604 35.6244 26.56 35.8961 26.4655C36.1678 26.3592 36.3922 26.2647 36.5694 26.182C36.8528 26.0521 37.0773 26.0048 37.2426 26.0403C37.4198 26.0757 37.5379 26.1643 37.597 26.306C37.6678 26.4714 37.6501 26.6427 37.5438 26.8198C37.4375 26.9852 37.2544 27.1328 36.9946 27.2628C36.7583 27.3809 36.4689 27.5049 36.1264 27.6348C35.7839 27.7766 35.4177 27.9006 35.0279 28.0069C34.6381 28.125 34.2424 28.2254 33.8408 28.3081C33.4392 28.4026 33.0613 28.4558 32.7069 28.4676C32.3998 28.4794 32.1636 28.3967 31.9982 28.2195C31.8329 28.0542 31.7502 27.7884 31.7502 27.4222C31.7502 26.7726 31.7561 26.1702 31.7679 25.615C31.7797 25.0599 31.7738 24.5815 31.7502 24.1799C31.5612 24.2154 31.3722 24.2449 31.1832 24.2685C31.006 24.2921 30.8289 24.3158 30.6517 24.3394ZM32.7424 19.7151C33.3093 19.5852 33.8586 19.4257 34.3901 19.2367C34.9216 19.0359 35.4118 18.8174 35.8606 18.5812C36.3213 18.3213 36.6166 18.3627 36.7465 18.7052C36.8528 18.9769 36.7229 19.2544 36.3567 19.5379C36.0969 19.7387 35.8016 19.9277 35.4709 20.1049C35.1401 20.2821 34.7917 20.4356 34.4255 20.5655C34.0712 20.6955 33.7168 20.8077 33.3625 20.9022C33.0081 20.9849 32.6774 21.038 32.3703 21.0616C32.075 21.0853 31.8447 21.0085 31.6793 20.8313C31.5139 20.6423 31.4431 20.3588 31.4667 19.9809C31.5021 19.4375 31.5198 18.9473 31.5198 18.5103C31.5198 18.0733 31.5198 17.589 31.5198 17.0575C31.5198 16.8212 31.5612 16.65 31.6439 16.5436C31.7384 16.4373 31.8565 16.3783 31.9982 16.3665C32.3289 16.3547 32.5297 16.5496 32.6006 16.9512C32.6597 17.4118 32.6951 17.8666 32.7069 18.3154C32.7305 18.7524 32.7424 19.219 32.7424 19.7151Z" fill="black"/>
<path d="M21.527 18.8116C21.5034 18.469 21.6747 18.2623 22.0408 18.1915C23.2693 17.9789 24.415 17.6895 25.478 17.3233C25.9151 17.1816 26.2104 17.2761 26.3639 17.6068C26.423 17.7367 26.4289 17.8903 26.3816 18.0674C26.3462 18.2446 26.2517 18.3745 26.0982 18.4572C25.6611 18.6817 25.1768 18.8647 24.6453 19.0065C24.1256 19.1364 23.5823 19.2309 23.0153 19.29C23.0035 19.6679 23.0035 20.0695 23.0153 20.4947C23.0271 20.92 23.0448 21.2743 23.0685 21.5578C23.0921 21.7704 23.2102 21.8413 23.4228 21.7704C23.9071 21.6169 24.3618 21.4456 24.7871 21.2566C25.2123 21.0558 25.6375 20.8373 26.0627 20.6011C26.2635 20.4947 26.4584 20.4711 26.6474 20.5302C26.8364 20.5892 26.9722 20.7074 27.0549 20.8845C27.1494 21.0617 27.1494 21.2448 27.0549 21.4338C26.9604 21.611 26.8187 21.7468 26.6297 21.8413C26.3816 21.9594 26.1159 22.0834 25.8324 22.2134C25.5607 22.3433 25.2832 22.4673 24.9997 22.5854C24.7162 22.6917 24.4386 22.7862 24.1669 22.8689C23.8953 22.9516 23.6354 23.0047 23.3874 23.0284C22.9622 23.052 22.6314 22.9634 22.3952 22.7626C22.1708 22.5618 22.0467 22.2783 22.0231 21.9122C21.9995 21.5814 21.9877 21.1739 21.9877 20.6896C21.9995 20.1936 22.0172 19.7447 22.0408 19.3431C21.7219 19.3195 21.5507 19.1423 21.527 18.8116ZM28.5432 24.2154C28.555 24.369 28.5196 24.4989 28.4369 24.6052C28.3542 24.7115 28.2125 24.8237 28.0117 24.9419C27.6101 25.1545 27.1494 25.3435 26.6297 25.5088C26.11 25.6742 25.5666 25.8159 24.9997 25.934C24.4327 26.0403 23.8539 26.1289 23.2633 26.1998C22.6728 26.2589 22.1117 26.3002 21.5802 26.3238C21.403 26.3356 21.2554 26.2707 21.1372 26.1289C21.0309 25.9872 20.9778 25.8159 20.9778 25.6151C20.9778 25.438 21.0368 25.3021 21.155 25.2076C21.2731 25.1013 21.4148 25.0423 21.5802 25.0304C22.0408 24.9832 22.531 24.9182 23.0507 24.8356C23.5823 24.7529 24.1138 24.6584 24.6453 24.5521C25.1768 24.4458 25.6966 24.3336 26.2045 24.2154C26.7242 24.0855 27.2085 23.9556 27.6573 23.8257C27.929 23.7548 28.1416 23.7607 28.2951 23.8434C28.4487 23.9261 28.5314 24.0501 28.5432 24.2154Z" fill="black"/>
<path d="M12.9498 22.2487C12.8435 22.2959 12.6841 22.3491 12.4715 22.4081C12.2707 22.4554 12.0521 22.5026 11.8159 22.5499C11.5915 22.5971 11.373 22.6385 11.1604 22.6739C10.9596 22.7093 10.806 22.7389 10.6997 22.7625C10.428 22.8216 10.2213 22.8097 10.0796 22.7271C9.94966 22.6326 9.85517 22.4318 9.79611 22.1247C9.74886 21.8766 9.70161 21.5813 9.65437 21.2388C9.61893 20.8844 9.5835 20.5242 9.54806 20.158C9.52444 19.78 9.50081 19.4139 9.47719 19.0595C9.46538 18.6934 9.45947 18.3744 9.45947 18.1028C9.45947 17.9374 9.4831 17.8193 9.53034 17.7484C9.5894 17.6657 9.66618 17.6126 9.76067 17.589C9.87879 17.5653 9.97919 17.5949 10.0619 17.6776C10.1446 17.7602 10.1977 17.8665 10.2213 17.9965V18.0673C10.4458 17.9847 10.6879 17.902 10.9477 17.8193C11.2194 17.7248 11.4852 17.6362 11.745 17.5535C12.0049 17.459 12.2529 17.3705 12.4892 17.2878C12.7254 17.2051 12.9321 17.1283 13.1093 17.0574C13.5227 16.8921 13.8239 16.9216 14.0129 17.146C14.2137 17.3705 14.2846 17.713 14.2255 18.1736C14.1901 18.3981 14.1428 18.6756 14.0838 19.0064C14.0365 19.3253 13.9775 19.6619 13.9066 20.0163C13.8357 20.3588 13.7589 20.6895 13.6763 21.0085C13.5936 21.3274 13.4991 21.5931 13.3928 21.8057C13.2865 22.0065 13.1624 22.1424 13.0207 22.2133H13.003L12.9498 22.2487ZM16.6174 23.1523C16.5937 23.4003 16.5347 23.5952 16.4402 23.737C16.3575 23.8787 16.2217 23.9496 16.0327 23.9496C15.8437 23.9496 15.702 23.8846 15.6075 23.7547C15.5248 23.6248 15.4953 23.4594 15.5189 23.2586C15.5779 22.7153 15.6311 22.1188 15.6783 21.4691C15.7374 20.8077 15.7906 20.1521 15.8378 19.5025C15.885 18.841 15.9205 18.2091 15.9441 17.6067C15.9795 17.0043 16.0091 16.4787 16.0327 16.0298C16.0563 15.6991 16.1685 15.5278 16.3693 15.516C16.6292 15.5042 16.7768 15.6578 16.8123 15.9767C16.8595 16.3665 16.8831 16.7976 16.8831 17.2701C16.8949 17.7425 16.8949 18.2386 16.8831 18.7583C17.2847 18.6284 17.71 18.4926 18.1588 18.3508C18.6195 18.1973 19.0033 18.0378 19.3104 17.8724C19.6412 17.6835 19.8892 17.7071 20.0546 17.9433C20.1491 18.1087 20.155 18.28 20.0723 18.4571C19.9896 18.6225 19.8774 18.7583 19.7357 18.8646C19.5939 18.9709 19.4049 19.0831 19.1687 19.2013C18.9443 19.3194 18.6962 19.4375 18.4246 19.5556C18.1647 19.6619 17.893 19.7741 17.6096 19.8923C17.3261 20.0104 17.0603 20.1226 16.8123 20.2289C16.7886 20.7604 16.7532 21.2801 16.706 21.788C16.6705 22.2841 16.641 22.7389 16.6174 23.1523ZM18.7966 25.2075C18.8911 25.302 18.9266 25.4379 18.9029 25.615C18.8911 25.7922 18.7789 25.9871 18.5663 26.1997C18.3655 26.4123 18.0702 26.619 17.6804 26.8198C17.3025 27.0088 16.889 27.1801 16.4402 27.3336C15.9913 27.4872 15.5366 27.6171 15.0759 27.7234C14.6271 27.8297 14.2314 27.8888 13.8889 27.9006C13.5818 27.9242 13.3632 27.8593 13.2333 27.7057C13.1034 27.5521 13.0266 27.3218 13.003 27.0147C12.9676 26.4714 12.9321 25.9871 12.8967 25.5619C12.8612 25.1367 12.8199 24.7291 12.7727 24.3394C12.7372 23.9141 12.8731 23.6838 13.1802 23.6484C13.3455 23.6366 13.4636 23.6956 13.5345 23.8256C13.6054 23.9437 13.6585 24.109 13.694 24.3216C13.753 24.6524 13.8003 24.989 13.8357 25.3315C13.883 25.6623 13.9184 25.9989 13.942 26.3414C13.9538 26.5777 14.0956 26.6663 14.3672 26.6072C14.9696 26.5127 15.5779 26.3533 16.1922 26.1288C16.8182 25.9044 17.3969 25.6268 17.9285 25.2961C18.1411 25.1662 18.3183 25.1012 18.46 25.1012C18.6017 25.1012 18.714 25.1367 18.7966 25.2075ZM13.1624 18.3863C13.0325 18.4335 12.8553 18.4867 12.6309 18.5457C12.4183 18.6048 12.1821 18.6697 11.9222 18.7406C11.6742 18.8115 11.4143 18.8942 11.1426 18.9887C10.8828 19.0713 10.6288 19.1599 10.3808 19.2544C10.428 19.656 10.4694 20.0635 10.5048 20.4769C10.5521 20.8785 10.5993 21.2211 10.6466 21.5046C10.741 21.4691 10.871 21.4337 11.0363 21.3982C11.2017 21.3628 11.373 21.3274 11.5501 21.2919C11.7391 21.2447 11.9222 21.2034 12.0994 21.1679C12.2766 21.1325 12.4242 21.097 12.5423 21.0616C12.6014 20.8726 12.6604 20.6659 12.7195 20.4415C12.7786 20.2053 12.8376 19.969 12.8967 19.7328C12.9557 19.4966 13.0089 19.2662 13.0561 19.0418C13.1034 18.8056 13.1388 18.5871 13.1624 18.3863Z" fill="black"/>
<path d="M59.7821 4.43945C59.8057 4.20321 59.8412 3.9847 59.8884 3.7839C59.9475 3.5831 60.0715 3.4827 60.2605 3.4827C60.4613 3.4827 60.603 3.57719 60.6857 3.76618C60.7802 3.95517 60.8215 4.1855 60.8097 4.45716C60.7979 4.87057 60.7802 5.31942 60.7566 5.8037C60.7448 6.27617 60.7211 6.76045 60.6857 7.25654C60.6621 7.74082 60.6385 8.23101 60.6148 8.7271C60.5912 9.21138 60.5735 9.67204 60.5617 10.1091C60.5499 10.2036 60.5381 10.3217 60.5262 10.4634C60.5144 10.5933 60.4908 10.7174 60.4554 10.8355C60.4199 10.9536 60.3668 11.054 60.2959 11.1367C60.2369 11.2194 60.1542 11.2607 60.0479 11.2607C59.8471 11.2607 59.7171 11.1662 59.6581 10.9772C59.599 10.7882 59.5813 10.5638 59.6049 10.304C59.6167 9.77244 59.6227 9.235 59.6227 8.69166C59.6345 8.13651 59.6522 7.58727 59.6758 7.04393C59.2624 7.28016 58.7899 7.52821 58.2584 7.78807C57.7387 8.03611 57.2544 8.26054 56.8056 8.46134L56.5398 9.96733C56.4925 10.1681 56.4276 10.3571 56.3449 10.5343C56.274 10.7115 56.1264 10.7823 55.902 10.7469C55.772 10.7233 55.6716 10.6111 55.6008 10.4103C55.5417 10.2095 55.5417 9.99095 55.6008 9.75472C55.6834 9.41218 55.7543 9.05783 55.8134 8.69166C55.8842 8.31369 55.9374 7.94753 55.9728 7.59317C56.0201 7.23882 56.0555 6.90219 56.0791 6.58327C56.1146 6.25254 56.1382 5.96906 56.15 5.73283C56.15 5.53203 56.0732 5.47888 55.9197 5.57337C55.7779 5.65605 55.6126 5.75055 55.4236 5.85685C55.2346 5.96316 55.0397 6.08127 54.8389 6.2112C54.6499 6.32932 54.4609 6.45925 54.2719 6.60099C54.083 6.73092 53.9117 6.86085 53.7581 6.99078C53.6873 7.65223 53.5928 8.28416 53.4747 8.88656C53.3565 9.47714 53.2502 10.0264 53.1557 10.5343C53.1203 10.7351 53.0494 10.8709 52.9431 10.9418C52.8486 11.0009 52.7541 11.0304 52.6596 11.0304C52.5297 11.0304 52.4175 10.9772 52.323 10.8709C52.2403 10.7646 52.2108 10.6052 52.2344 10.3926C52.2817 9.99095 52.3466 9.58345 52.4293 9.17004C52.5238 8.74482 52.6065 8.3255 52.6774 7.91209C52.76 7.48687 52.8191 7.06755 52.8545 6.65414C52.9018 6.22892 52.9077 5.8037 52.8723 5.37848C52.5888 5.36667 52.2935 5.43754 51.9864 5.59109C51.6793 5.73283 51.4194 5.88048 51.2068 6.03403C51.0532 6.14033 50.9056 6.2053 50.7639 6.22892C50.6339 6.25254 50.5158 6.21711 50.4095 6.12262C50.2914 6.01631 50.256 5.87457 50.3032 5.69739C50.3623 5.52022 50.4331 5.37848 50.5158 5.27217C50.6221 5.15406 50.7757 5.03003 50.9765 4.9001C51.1773 4.75836 51.3958 4.63434 51.632 4.52803C51.8801 4.40992 52.1222 4.32133 52.3584 4.26227C52.6065 4.1914 52.825 4.15597 53.014 4.15597C53.2975 4.17959 53.4983 4.25637 53.6164 4.38629C53.7463 4.51622 53.8172 4.74065 53.829 5.05956V5.57337C54.1479 5.34895 54.5082 5.11271 54.9098 4.86467C55.3232 4.61662 55.7012 4.3922 56.0437 4.1914C56.3154 4.02604 56.5575 3.9847 56.7701 4.06738C56.9827 4.15006 57.0949 4.35677 57.1068 4.68749C57.1304 5.07728 57.1304 5.47297 57.1068 5.87457C57.0949 6.26436 57.0654 6.65414 57.0182 7.04393C57.3961 6.89038 57.8391 6.68958 58.347 6.44153C58.8549 6.18167 59.3155 5.92182 59.729 5.66196L59.7821 4.43945ZM62.6169 3.65987C62.6287 3.47089 62.6642 3.2878 62.7232 3.11063C62.7823 2.93345 62.9004 2.83896 63.0776 2.82715C63.1839 2.82715 63.2666 2.86258 63.3256 2.93345C63.3847 3.00432 63.426 3.09291 63.4496 3.19922C63.4851 3.30552 63.5028 3.41183 63.5028 3.51813C63.5146 3.62444 63.5264 3.71303 63.5382 3.7839C63.5619 4.2918 63.5678 4.82923 63.556 5.3962C63.556 5.95135 63.5441 6.51831 63.5205 7.09708C63.4969 7.67586 63.4674 8.25463 63.4319 8.8334C63.4083 9.41218 63.3788 9.96733 63.3433 10.4989C63.3315 10.6997 63.2725 10.8768 63.1662 11.0304C63.0717 11.1839 62.924 11.2607 62.7232 11.2607C62.6051 11.2607 62.5165 11.2312 62.4575 11.1721C62.4102 11.1013 62.3748 11.0245 62.3512 10.9418C62.3275 10.8473 62.3157 10.7528 62.3157 10.6583C62.3157 10.552 62.3157 10.4634 62.3157 10.3926C62.3512 9.31768 62.3925 8.19557 62.4397 7.02621C62.4988 5.85685 62.5579 4.73474 62.6169 3.65987Z" fill="black"/>
<path d="M43.8332 8.72717C43.8569 8.92797 43.8687 9.12877 43.8687 9.32957C43.8805 9.53037 43.8923 9.73116 43.9041 9.93196C44.4356 9.69573 44.9849 9.4595 45.5518 9.22326C46.1188 8.98703 46.6976 8.80985 47.2882 8.69173C47.5008 8.6563 47.678 8.66811 47.8197 8.72717C47.9614 8.77442 48.0618 8.8571 48.1209 8.97521C48.1918 9.08152 48.2213 9.21736 48.2095 9.38272C48.2095 9.53627 48.1681 9.69573 48.0855 9.86109C47.8138 10.4162 47.4417 10.9832 46.9693 11.562C46.4968 12.1408 46.0361 12.6959 45.5873 13.2274C45.7763 13.2038 45.9889 13.1625 46.2251 13.1034C46.4614 13.0562 46.6976 13.003 46.9338 12.944C47.1701 12.8849 47.3945 12.8258 47.6071 12.7668C47.8315 12.6959 48.0205 12.6309 48.1741 12.5719C48.3394 12.5128 48.5107 12.4951 48.6879 12.5187C48.8768 12.5305 49.0009 12.6309 49.0599 12.8199C49.119 13.0089 49.0776 13.1743 48.9359 13.316C48.7942 13.4696 48.6583 13.5759 48.5284 13.6349C48.3394 13.7294 48.1091 13.8239 47.8374 13.9184C47.5657 14.0129 47.2823 14.0956 46.987 14.1665C46.6917 14.2491 46.3905 14.3141 46.0834 14.3614C45.7881 14.4204 45.5223 14.4559 45.2861 14.4677C45.0971 14.4795 44.9258 14.4499 44.7723 14.3791C44.6305 14.32 44.5183 14.2314 44.4356 14.1133C44.3648 13.9952 44.3352 13.8475 44.3471 13.6704C44.3589 13.505 44.4297 13.316 44.5597 13.1034C44.8313 12.6664 45.168 12.2057 45.5696 11.7214C45.983 11.2372 46.4141 10.6761 46.863 10.0383C46.5086 10.0973 46.0657 10.245 45.5341 10.4812C45.0026 10.7056 44.4711 10.9655 43.9396 11.2608C43.9514 11.8868 43.9514 12.5128 43.9396 13.1388C43.9277 13.7649 43.9159 14.3909 43.9041 15.0169C43.9041 15.1468 43.8746 15.2945 43.8155 15.4598C43.7565 15.6252 43.6502 15.7079 43.4966 15.7079C43.4021 15.7079 43.3253 15.6725 43.2663 15.6016C43.2072 15.5425 43.1541 15.4658 43.1068 15.3713C43.0596 15.2768 43.0241 15.1823 43.0005 15.0878C42.9887 14.9933 42.9828 14.9106 42.9828 14.8397C42.9828 14.4145 42.9828 13.9361 42.9828 13.4046C42.9828 12.8849 42.9828 12.3593 42.9828 11.8277C42.9828 11.2844 42.9828 10.7647 42.9828 10.2686C42.9946 9.76069 43.0005 9.32366 43.0005 8.9575C43.0005 8.73307 43.03 8.5559 43.0891 8.42597C43.1482 8.28423 43.2604 8.21336 43.4257 8.21336C43.6856 8.21336 43.8214 8.38463 43.8332 8.72717ZM41.2288 3.19929C40.9689 2.89218 40.715 2.52602 40.4669 2.1008C40.2189 1.66376 39.9649 1.23264 39.705 0.807415C39.646 0.689298 39.6046 0.547558 39.581 0.382194C39.5692 0.21683 39.6401 0.104618 39.7936 0.0455599C39.959 -0.0253109 40.1066 -0.0134993 40.2366 0.0809946C40.3665 0.175489 40.4846 0.305417 40.5909 0.470781C40.8035 0.848756 41.0398 1.23854 41.2996 1.64014C41.5595 2.02993 41.8075 2.41381 42.0438 2.79178C42.1501 2.95715 42.1855 3.1107 42.1501 3.25244C42.3863 3.25244 42.5517 3.32922 42.6462 3.48277C42.7525 3.63632 42.7407 3.84893 42.6107 4.1206C42.4454 4.46314 42.2328 4.81749 41.9729 5.18365C41.7249 5.54982 41.4827 5.88645 41.2465 6.19356C41.3646 6.29986 41.4886 6.41798 41.6185 6.54791C41.7603 6.66602 41.8843 6.79595 41.9906 6.93769C42.0969 7.06762 42.1678 7.21527 42.2032 7.38063C42.2387 7.546 42.2209 7.72317 42.1501 7.91216C42.091 8.07752 41.9493 8.24879 41.7249 8.42597C41.5004 8.60315 41.2465 8.76851 40.963 8.92206C40.6913 9.07562 40.4078 9.21145 40.1126 9.32957C39.8173 9.43587 39.5692 9.50084 39.3684 9.52446C39.2031 9.54808 39.0495 9.53037 38.9078 9.47131C38.766 9.40044 38.6538 9.30594 38.5711 9.18783C38.4884 9.06971 38.4412 8.92797 38.4294 8.7626C38.4176 8.58543 38.453 8.40235 38.5357 8.21336C38.6656 7.92988 38.8251 7.6523 39.0141 7.38063C39.2031 7.10896 39.4098 6.8373 39.6342 6.56563C39.8586 6.29396 40.0889 6.01638 40.3252 5.7329C40.5614 5.44942 40.7917 5.15413 41.0161 4.84702C41.0752 4.77615 41.0811 4.7289 41.0339 4.70528C40.9984 4.66985 40.9453 4.66394 40.8744 4.68756C40.7563 4.69937 40.585 4.7289 40.3606 4.77615C40.148 4.81159 39.9236 4.85293 39.6873 4.90017C39.4629 4.94742 39.2503 4.99467 39.0495 5.04191C38.8487 5.08916 38.6951 5.11869 38.5888 5.1305C38.4353 5.15413 38.2876 5.1305 38.1459 5.05963C38.016 4.97695 37.9274 4.83521 37.8801 4.63441C37.8565 4.51629 37.8624 4.40408 37.8979 4.29778C37.9451 4.19147 38.0514 4.1206 38.2168 4.08517L41.3882 3.37646C41.3528 3.35284 41.2996 3.29378 41.2288 3.19929ZM46.1365 7.25661C46.1365 7.43379 46.1129 7.62868 46.0657 7.84129C46.0184 8.04209 45.8944 8.14839 45.6936 8.16021C45.5873 8.17202 45.4987 8.1543 45.4278 8.10705C45.3688 8.048 45.3215 7.98303 45.2861 7.91216C45.2506 7.82948 45.227 7.74089 45.2152 7.6464C45.2034 7.5519 45.1975 7.46922 45.1975 7.39835C45.2093 6.4416 45.2329 5.46123 45.2684 4.45723C45.3156 3.44143 45.3392 2.5024 45.3392 1.64014C45.3392 1.36847 45.3629 1.15586 45.4101 1.00231C45.4692 0.848756 45.5814 0.771979 45.7467 0.771979C45.9121 0.771979 46.0184 0.848756 46.0657 1.00231C46.1247 1.15586 46.1542 1.34485 46.1542 1.56927V3.83712C46.5677 3.76625 46.9988 3.67176 47.4476 3.55364C47.9083 3.42371 48.3276 3.28197 48.7056 3.12842C48.8237 3.08117 48.9418 3.05164 49.0599 3.03983C49.1899 3.01621 49.308 3.06936 49.4143 3.19929C49.497 3.30559 49.5324 3.44143 49.5206 3.60679C49.5088 3.77215 49.4379 3.90799 49.308 4.0143C48.8591 4.33321 48.3512 4.56354 47.7843 4.70528C47.2173 4.83521 46.6681 4.94742 46.1365 5.04191V7.25661ZM39.6873 8.31966C39.8763 8.30785 40.1066 8.21927 40.3783 8.0539C40.65 7.88854 40.8685 7.70546 41.0339 7.50466C40.9748 7.43379 40.898 7.3511 40.8035 7.25661C40.7209 7.16212 40.6323 7.06762 40.5378 6.97313C40.4078 7.11487 40.2484 7.29795 40.0594 7.52237C39.8822 7.7468 39.7405 7.94169 39.6342 8.10705C39.6106 8.1543 39.5928 8.20155 39.581 8.24879C39.581 8.29604 39.6165 8.31966 39.6873 8.31966Z" fill="black"/>
<path d="M29.0408 1.3389C29.0762 2.80355 29.0762 4.2623 29.0408 5.71514C29.3833 5.58521 29.7317 5.44938 30.0861 5.30763C30.4522 5.15408 30.7889 5.03006 31.096 4.93557C31.2614 4.87651 31.4031 4.8706 31.5212 4.91785C31.6393 4.9651 31.722 5.04778 31.7693 5.16589C31.8165 5.2722 31.8224 5.39032 31.787 5.52025C31.7515 5.63836 31.6511 5.76239 31.4858 5.89231C31.3677 5.975 31.2141 6.0754 31.0251 6.19351C30.8361 6.29982 30.6294 6.41794 30.405 6.54786C30.1806 6.66598 29.9443 6.79001 29.6963 6.91993C29.4601 7.03805 29.2297 7.15026 29.0053 7.25657C28.9463 8.67397 28.8636 10.0796 28.7573 11.4733C28.6628 12.8553 28.5328 14.2373 28.3675 15.6193C28.332 15.8791 28.2553 16.0681 28.1372 16.1862C28.0308 16.3043 27.9009 16.3634 27.7474 16.3634C27.582 16.3634 27.4462 16.2984 27.3399 16.1685C27.2336 16.0504 27.1922 15.8732 27.2158 15.637C27.334 14.4912 27.4403 13.3632 27.5348 12.2529C27.6411 11.1426 27.7237 10.0205 27.7828 8.88658C27.2631 9.02832 26.6843 9.18188 26.0465 9.34724C25.4086 9.50079 24.7649 9.64844 24.1153 9.79018C23.4656 9.93192 22.8455 10.0618 22.2549 10.18C21.6761 10.2981 21.1919 10.3926 20.8021 10.4634C20.4005 10.5107 20.1642 10.3749 20.0934 10.0559C20.0698 9.92602 20.0875 9.8138 20.1465 9.71931C20.2056 9.62482 20.3237 9.54213 20.5009 9.47126C20.8434 9.34133 21.1387 9.19959 21.3868 9.04604C21.6466 8.88068 21.8415 8.6976 21.9714 8.4968C22.0896 8.31962 22.1841 8.12473 22.2549 7.91212C22.3258 7.6877 22.3789 7.45737 22.4144 7.22113C22.4498 6.9849 22.4616 6.75457 22.4498 6.53015C22.4498 6.29391 22.438 6.0813 22.4144 5.89231C22.3908 5.72695 22.4203 5.60293 22.503 5.52025C22.5975 5.43756 22.6979 5.38441 22.8042 5.36079C22.9223 5.33716 23.0345 5.36079 23.1408 5.43166C23.2471 5.49072 23.318 5.58521 23.3534 5.71514C23.4833 6.1758 23.5188 6.67779 23.4597 7.22113C23.4007 7.75266 23.2589 8.28419 23.0345 8.81571L24.5405 8.4968C24.6822 8.03614 24.7885 7.55777 24.8594 7.06167C24.9421 6.56558 25.0011 6.08721 25.0366 5.62655C25.072 5.15408 25.0897 4.71705 25.0897 4.31545C25.0897 3.90204 25.072 3.5536 25.0366 3.27011C24.7531 3.32917 24.4342 3.38823 24.0798 3.44729C23.7255 3.49454 23.3652 3.54769 22.9991 3.60675C22.6447 3.654 22.3022 3.70124 21.9714 3.74849C21.6407 3.78392 21.3631 3.81345 21.1387 3.83708C20.9379 3.8607 20.7844 3.82526 20.6781 3.73077C20.5836 3.63628 20.5245 3.50635 20.5009 3.34098C20.4654 2.97482 20.6131 2.7504 20.9438 2.66772C21.2509 2.60866 21.5935 2.54369 21.9714 2.47282C22.3494 2.40195 22.7274 2.33699 23.1054 2.27793C23.4952 2.20706 23.8731 2.1421 24.2393 2.08304C24.6055 2.02398 24.9303 1.96492 25.2138 1.90586C25.4972 1.8468 25.7039 1.85861 25.8339 1.9413C25.9638 2.02398 26.0524 2.18344 26.0996 2.41967C26.1587 2.78583 26.1941 3.21106 26.2059 3.69534C26.2177 4.17962 26.2059 4.68752 26.1705 5.21905C26.1351 5.73876 26.076 6.26438 25.9933 6.79591C25.9225 7.31563 25.828 7.78809 25.7098 8.21332C26.0878 8.11882 26.454 8.01842 26.8083 7.91212C27.1745 7.80581 27.517 7.6936 27.836 7.57548C27.9186 5.50843 27.9541 3.40004 27.9423 1.25031C27.9423 0.706972 28.1135 0.435303 28.4561 0.435303C28.6923 0.435303 28.8459 0.523891 28.9167 0.701067C28.9876 0.866431 29.0289 1.07904 29.0408 1.3389Z" fill="black"/>
<path d="M14.7669 3.8195C14.7787 4.19748 14.7491 4.65813 14.6783 5.20147C14.6192 5.74481 14.5188 6.25272 14.3771 6.72518C14.4361 6.79605 14.4716 6.87874 14.4834 6.97323C14.4952 7.18584 14.442 7.36302 14.3239 7.50476C14.2176 7.63469 14.0818 7.74099 13.9164 7.82367C13.5502 8.00085 13.1073 8.16031 12.5876 8.30205C12.0797 8.43198 11.6131 8.53828 11.1879 8.62096C10.928 8.68002 10.7332 8.66821 10.6032 8.58553C10.4851 8.50285 10.4024 8.33158 10.3552 8.07172C10.3079 7.77643 10.2548 7.4457 10.1957 7.07954C10.1485 6.70156 10.0953 6.32949 10.0363 5.96333C9.98901 5.59716 9.94177 5.24872 9.89452 4.91799C9.85908 4.57545 9.82955 4.28016 9.80593 4.03211C9.79412 3.86675 9.81774 3.7132 9.8768 3.57146C9.94767 3.42972 10.0835 3.35294 10.2843 3.34113C10.3788 3.32932 10.4792 3.35885 10.5855 3.42972C10.6918 3.48877 10.7745 3.58917 10.8335 3.73091C11.058 3.69548 11.3001 3.64823 11.56 3.58917C11.8198 3.53012 12.0797 3.47106 12.3395 3.412C12.6112 3.35294 12.877 3.29979 13.1368 3.25254C13.3967 3.19348 13.6388 3.14033 13.8633 3.09308C14.1349 3.03402 14.3475 3.07536 14.5011 3.2171C14.6665 3.35885 14.755 3.55964 14.7669 3.8195ZM19.0191 12.3417C19.0191 12.507 18.9659 12.6724 18.8596 12.8377C18.7533 13.0031 18.5938 13.1212 18.3812 13.1921C18.145 13.2866 17.8438 13.3752 17.4776 13.4579C17.1115 13.5524 16.7217 13.635 16.3083 13.7059C15.8949 13.7768 15.4756 13.8417 15.0503 13.9008C14.6369 13.9599 14.2589 13.9953 13.9164 14.0071C13.3613 14.0189 13.1191 13.7709 13.19 13.263C13.249 12.7669 13.3022 12.2353 13.3494 11.6684C13.4085 11.1014 13.4617 10.5935 13.5089 10.1447C13.5207 10.0384 13.5621 9.94388 13.6329 9.86119C13.7156 9.7667 13.816 9.71945 13.9341 9.71945C14.1467 9.71945 14.2885 9.79623 14.3593 9.94978C14.4302 10.1033 14.4657 10.2805 14.4657 10.4813C14.4538 10.8711 14.4302 11.2491 14.3948 11.6152C14.3712 11.9814 14.3475 12.3121 14.3239 12.6074C14.3239 12.6665 14.3298 12.7137 14.3416 12.7492C14.3653 12.7846 14.4184 12.7905 14.5011 12.7669C14.8318 12.7196 15.1744 12.6724 15.5287 12.6251C15.8831 12.5661 16.2256 12.507 16.5563 12.448C16.8989 12.3889 17.2178 12.3298 17.5131 12.2708C17.8084 12.1999 18.0623 12.1349 18.2749 12.0759C18.4521 12.0168 18.6175 12.005 18.771 12.0405C18.9364 12.0641 19.0191 12.1645 19.0191 12.3417ZM17.5662 1.53394C17.767 1.53394 17.9147 1.61662 18.0092 1.78198C18.1037 1.93553 18.1509 2.11862 18.1509 2.33123C18.1509 2.89819 18.145 3.50649 18.1332 4.15614C18.1332 4.79397 18.1214 5.41999 18.0978 6.0342C18.0859 6.64841 18.0682 7.21537 18.0446 7.73509C18.021 8.2548 17.9855 8.66821 17.9383 8.97532C17.891 9.24698 17.8143 9.49503 17.708 9.71945C17.6135 9.93206 17.4658 10.0384 17.265 10.0384C17.0288 10.0384 16.9048 9.94978 16.893 9.77261C16.893 9.58362 16.9048 9.34148 16.9284 9.04619C16.9875 8.57372 17.0288 8.0481 17.0524 7.46932C17.0879 6.89055 17.1115 6.29406 17.1233 5.67985C17.1469 5.06564 17.1587 4.45733 17.1587 3.85494C17.1587 3.24073 17.1587 2.66786 17.1587 2.13633C17.1587 2.0064 17.1883 1.87648 17.2473 1.74655C17.3064 1.60481 17.4127 1.53394 17.5662 1.53394ZM13.5975 4.33331C13.2313 4.41599 12.8179 4.50458 12.3573 4.59908C11.8966 4.68176 11.4478 4.77034 11.0107 4.86484C11.058 5.27825 11.1052 5.72119 11.1525 6.19366C11.2115 6.65431 11.2765 7.05001 11.3474 7.38073C11.619 7.30986 11.9261 7.23309 12.2687 7.15041C12.623 7.06772 12.9715 6.96732 13.314 6.84921C13.4439 6.38855 13.5325 5.9338 13.5798 5.48495C13.6388 5.03611 13.6447 4.65223 13.5975 4.33331Z" fill="black"/>
<path d="M6.12044 9.32967C6.2858 9.29424 6.42754 9.30014 6.54566 9.34739C6.67559 9.38283 6.76417 9.48323 6.81142 9.64859C6.85867 9.82577 6.88229 10.0797 6.88229 10.4104C6.8941 10.7412 6.8941 11.1132 6.88229 11.5267C6.87048 11.9283 6.84095 12.3535 6.7937 12.8023C6.75827 13.2512 6.71102 13.6764 6.65196 14.078C6.5929 14.4914 6.52794 14.8576 6.45707 15.1765C6.39801 15.5072 6.33305 15.7552 6.26218 15.9206C6.13225 16.2395 5.9846 16.399 5.81924 16.399C5.70112 16.399 5.62434 16.3517 5.58891 16.2572C5.56529 16.1627 5.56529 16.0328 5.58891 15.8675C5.62434 15.5367 5.66569 15.141 5.71293 14.6804C5.77199 14.2315 5.81924 13.765 5.85467 13.2807C5.90192 12.8082 5.93736 12.3476 5.96098 11.8987C5.9846 11.4499 5.9846 11.066 5.96098 10.7471C5.32315 10.7353 4.66169 10.7943 3.97661 10.9243C3.30334 11.0542 2.67732 11.1782 2.09855 11.2963C1.945 11.3318 1.82097 11.2904 1.72648 11.1723C1.6438 11.0542 1.59064 10.9065 1.56702 10.7294C1.5434 10.5876 1.57883 10.4754 1.67333 10.3927C1.76782 10.31 1.87413 10.251 1.99224 10.2156C2.77182 10.0266 3.34468 9.70765 3.71085 9.2588C4.07701 8.79815 4.266 8.12488 4.27781 7.239C3.59273 7.39255 2.91946 7.53429 2.25801 7.66422C1.60836 7.78234 1.06502 7.87093 0.627989 7.92999C0.462625 7.95361 0.320885 7.92999 0.202768 7.85912C0.0846507 7.78825 0.0196862 7.67603 0.00787448 7.52248C-0.015749 7.29806 0.0137803 7.08545 0.0964624 6.88465C0.190956 6.68385 0.35632 6.57164 0.592554 6.54801C1.1477 6.50077 1.80916 6.39446 2.57692 6.2291C3.3565 6.05192 4.13607 5.86884 4.91564 5.67985C5.05738 5.42 5.16959 5.13061 5.25227 4.81169C5.34677 4.49278 5.41173 4.17386 5.44717 3.85494C5.49442 3.53603 5.51804 3.22302 5.51804 2.91591C5.52985 2.597 5.52394 2.30761 5.50032 2.04775C5.33496 2.04775 5.09872 2.08319 4.79162 2.15406C4.49633 2.21312 4.1715 2.28399 3.81715 2.36667C3.47461 2.44935 3.12617 2.53203 2.77182 2.61471C2.42928 2.68558 2.12808 2.73283 1.86822 2.75646C1.66742 2.78008 1.48434 2.76827 1.31897 2.72102C1.16542 2.66196 1.08865 2.52022 1.08865 2.2958C1.08865 2.095 1.13589 1.94145 1.23039 1.83514C1.32488 1.71702 1.45481 1.64025 1.62017 1.60481C1.6438 1.60481 1.76191 1.58119 1.97452 1.53394C2.18714 1.4867 2.44109 1.43354 2.73638 1.37448C3.03167 1.31543 3.35059 1.25046 3.69313 1.17959C4.04748 1.09691 4.37821 1.02604 4.68531 0.966981C4.99242 0.907922 5.25818 0.860675 5.4826 0.82524C5.70703 0.777993 5.84877 0.748464 5.90782 0.736652C6.20312 0.701217 6.36848 0.831146 6.40392 1.12644C6.49841 1.85876 6.51022 2.62062 6.43935 3.41201C6.38029 4.19158 6.23265 4.85894 5.99641 5.41409C6.23265 5.35503 6.45116 5.30188 6.65196 5.25463C6.85276 5.20739 7.04766 5.16014 7.23664 5.11289C7.61462 5.04202 7.8981 5.04202 8.08709 5.11289C8.27607 5.18376 8.33513 5.35503 8.26426 5.6267C8.2052 5.86294 8.05756 6.05192 7.82132 6.19366C7.58509 6.32359 7.35476 6.42399 7.13034 6.49486C6.90592 6.56573 6.65196 6.64251 6.36848 6.72519C6.09681 6.79606 5.79561 6.87284 5.46489 6.95552C5.3822 7.36893 5.30543 7.81777 5.23456 8.30205C5.16369 8.78633 5.08101 9.19384 4.98651 9.52457C5.15188 9.48913 5.33496 9.4537 5.53576 9.41826C5.73656 9.38283 5.93145 9.3533 6.12044 9.32967Z" fill="black"/>
<path d="M151.945 13.9607V16.5332H163.082V21.2705H134.219V16.5332H145.325V13.9607H140.274C137.356 13.9607 135.003 11.3567 135.003 8.12536C135.003 4.89397 137.356 2.22729 140.274 2.22729H157.058C159.945 2.22729 162.36 4.89397 162.36 8.12536C162.36 11.3567 159.945 13.9607 157.058 13.9607H151.945ZM141.403 7.99987C141.403 8.47046 141.686 8.8783 142.156 8.8783H155.145C155.615 8.8783 155.898 8.47046 155.898 7.99987C155.898 7.52928 155.615 7.12143 155.145 7.12143H142.156C141.686 7.12143 141.403 7.52928 141.403 7.99987ZM135.317 22.494H142.125V26.949H162.454V31.5608H135.317V22.494Z" fill="black"/>
<path d="M130.454 19.7332H123.552V2.41553H130.454V7.843H133.717V13.5215H130.454V19.7332ZM115.113 7.52927H103.474V2.88612H121.795L120.823 13.2391H114.58L115.113 7.52927ZM122.768 18.5725L102.846 20.1411V15.2783L106.58 14.996V9.38026H112.258V14.5568L122.768 13.7097V18.5725ZM104.478 26.0392C104.478 22.745 107.176 20.3607 110.564 20.3607H124.933C128.384 20.3607 131.082 22.745 131.082 26.0392C131.082 29.3019 128.384 31.7176 124.933 31.7176H110.564C107.176 31.7176 104.478 29.3019 104.478 26.0392ZM112.76 27.0431H122.705C123.584 27.0431 124.18 26.7921 124.18 26.0392C124.18 25.1921 123.584 25.0039 122.705 25.0039H112.76C112.007 25.0039 111.411 25.1921 111.411 26.0392C111.411 26.7921 112.007 27.0431 112.76 27.0431Z" fill="black"/>
<path d="M99.0816 19.8901H92.1796V2.41553H99.0816V7.81163H102.344V13.3332H99.0816V19.8901ZM88.8855 18.8862H72.1011V2.72925H78.7207V5.52142H82.3913V2.72925H88.8855V18.8862ZM78.7207 10.5097V13.8979H82.3913V10.5097H78.7207ZM99.0816 31.8745H91.8659V25.8509H73.105V20.6744H99.0816V31.8745Z" fill="black"/>
</g>
</svg>
