<svg width="164" height="32" viewBox="0 0 164 32" fill="none" xmlns="http://www.w3.org/2000/svg">
<path d="M56.0048 15.5337C56.241 15.4747 56.5186 15.4038 56.8375 15.3211C57.1682 15.2266 57.5048 15.144 57.8474 15.0731C58.1899 15.0022 58.5266 14.9491 58.8573 14.9136C59.1998 14.8664 59.501 14.8487 59.7609 14.8605C59.9971 14.8959 60.1566 14.9963 60.2393 15.1617C60.3219 15.3152 60.3279 15.5101 60.257 15.7464C60.1743 15.9826 60.0503 16.2247 59.8849 16.4728C59.7314 16.7208 59.5542 16.9689 59.3534 17.2169C59.1644 17.465 58.9695 17.7071 58.7687 17.9433C58.5679 18.1678 58.3848 18.3745 58.2195 18.5634C58.4557 18.5634 58.7215 18.5398 59.0168 18.4926C59.312 18.4335 59.6014 18.3745 59.8849 18.3154C60.1684 18.2445 60.4342 18.1737 60.6822 18.1028C60.9421 18.0319 61.1547 17.9729 61.32 17.9256C61.4972 17.902 61.6389 17.902 61.7453 17.9256C61.8516 17.9374 61.9283 18.026 61.9756 18.1914C62.011 18.3331 61.9638 18.4808 61.8338 18.6343C61.7157 18.7879 61.5563 18.906 61.3555 18.9887C60.9421 19.1777 60.505 19.3371 60.0444 19.467C60.068 19.656 60.0798 19.91 60.0798 20.2289C60.0798 20.5478 60.0739 20.8549 60.0621 21.1502C60.4637 21.0793 60.8535 21.0203 61.2314 20.973C61.6212 20.914 61.9874 20.8726 62.3299 20.849C62.6016 20.8254 62.8437 20.8254 63.0564 20.849C63.269 20.8726 63.4166 20.9671 63.4993 21.1325C63.5702 21.2624 63.582 21.3746 63.5347 21.4691C63.4993 21.5636 63.4284 21.6463 63.3221 21.7172C63.2158 21.7762 63.0918 21.8294 62.9501 21.8766C62.8201 21.9121 62.702 21.9357 62.5957 21.9475C62.1469 22.0066 61.6567 22.0833 61.1251 22.1778C60.5936 22.2605 60.0385 22.3491 59.4597 22.4436C58.8927 22.5381 58.314 22.6326 57.7234 22.7271C57.1328 22.8098 56.5658 22.8747 56.0225 22.922C55.7036 22.9574 55.4555 22.9397 55.2783 22.8688C55.1012 22.7979 55.0008 22.6444 54.9771 22.4082C54.9535 22.1956 54.9949 22.0538 55.1012 21.9829C55.2193 21.9003 55.3728 21.8471 55.5618 21.8235C56.1878 21.7644 56.7902 21.6876 57.369 21.5932C57.9596 21.4987 58.5266 21.4042 59.0699 21.3097C59.1053 20.8018 59.1231 20.2643 59.1231 19.6974C58.6742 19.7919 58.2313 19.845 57.7942 19.8568C57.4281 19.8805 57.1682 19.7682 57.0147 19.5202C56.8729 19.2722 56.8729 18.9946 57.0147 18.6875C57.1328 18.463 57.2804 18.2386 57.4576 18.0142C57.6348 17.7898 57.8179 17.5713 58.0068 17.3587C58.1958 17.146 58.3671 16.9393 58.5207 16.7385C58.686 16.5259 58.8041 16.3133 58.875 16.1007C58.627 16.1361 58.3671 16.1834 58.0954 16.2424C57.8356 16.3015 57.5816 16.3665 57.3336 16.4373C57.0855 16.5082 56.8493 16.5732 56.6249 16.6322C56.4123 16.6913 56.2351 16.7326 56.0933 16.7563C55.9634 16.7917 55.8276 16.774 55.6858 16.7031C55.5441 16.6204 55.4437 16.4905 55.3846 16.3133C55.3256 16.1007 55.3551 15.9353 55.4732 15.8172C55.6032 15.6873 55.7803 15.5928 56.0048 15.5337ZM57.5816 24.5343C57.8297 24.3807 58.1191 24.2213 58.4498 24.0559C58.7805 23.8905 59.1172 23.7429 59.4597 23.613C59.814 23.483 60.1625 23.3767 60.505 23.294C60.8476 23.1995 61.1665 23.1464 61.4618 23.1346C61.7216 23.1228 61.8929 23.1877 61.9756 23.3295C62.0583 23.4594 62.0878 23.6956 62.0642 24.0382C62.0287 24.3453 61.9815 24.7705 61.9224 25.3138C61.8752 25.8454 61.8161 26.4005 61.7453 26.9793C61.6744 27.5699 61.6035 28.1368 61.5326 28.6802C61.4618 29.2353 61.3968 29.6842 61.3378 30.0267C61.3141 30.1685 61.2787 30.3161 61.2314 30.4697C61.196 30.635 61.1429 30.7886 61.072 30.9303C61.0011 31.0721 60.9125 31.1902 60.8062 31.2847C60.7117 31.3792 60.5936 31.4264 60.4519 31.4264C60.2865 31.4264 60.192 31.3378 60.1684 31.1606C60.1566 30.9953 60.1625 30.8299 60.1861 30.6645C60.257 30.2275 60.3338 29.7373 60.4164 29.194C60.4991 28.6507 60.5759 28.0955 60.6468 27.5285C60.7176 26.9616 60.7826 26.4064 60.8417 25.8631C60.9125 25.3197 60.9716 24.8296 61.0188 24.3925C60.818 24.428 60.5877 24.487 60.3279 24.5697C60.068 24.6406 59.8022 24.7292 59.5306 24.8355C59.2589 24.9418 58.999 25.054 58.751 25.1721C58.5148 25.2784 58.3258 25.3729 58.184 25.4556C58.1013 25.5146 58.0009 25.5619 57.8828 25.5973C57.7765 25.6209 57.6702 25.6269 57.5639 25.615C57.4694 25.5914 57.3867 25.5442 57.3159 25.4733C57.245 25.4024 57.2096 25.2961 57.2096 25.1544C57.2096 24.8945 57.3336 24.6878 57.5816 24.5343Z" fill="#293896"/>
<path d="M44.3696 20.0873C44.2987 19.8983 44.2987 19.7329 44.3696 19.5912C44.4522 19.4376 44.6294 19.3195 44.9011 19.2368C45.468 19.0479 46.035 18.8707 46.602 18.7053C47.1689 18.5281 47.6768 18.3687 48.1257 18.2269C48.4682 18.1206 48.7458 18.1325 48.9584 18.2624C49.171 18.3923 49.2596 18.6463 49.2242 19.0242C49.1179 20.17 48.9171 21.3157 48.6218 22.4614C48.3383 23.5954 48.0607 24.7116 47.789 25.8101C47.7064 26.1172 47.606 26.3357 47.4878 26.4656C47.3815 26.5837 47.228 26.6251 47.0272 26.5896C46.8736 26.566 46.7673 26.4774 46.7083 26.3239C46.6492 26.1703 46.6374 25.9813 46.6728 25.7569C46.7555 25.3199 46.8677 24.8415 47.0095 24.3218C47.1512 23.8021 47.293 23.2646 47.4347 22.7095C47.5883 22.1543 47.7182 21.5992 47.8245 21.044C47.9426 20.4889 48.0135 19.9515 48.0371 19.4317C47.5883 19.5617 47.1276 19.7093 46.6551 19.8747C46.1827 20.0282 45.7515 20.1818 45.3617 20.3353C45.1491 20.4298 44.9483 20.4653 44.7593 20.4416C44.5704 20.4062 44.4404 20.2881 44.3696 20.0873ZM52.8031 25.9695C52.7677 26.5955 52.5492 26.9027 52.1476 26.8908C51.7814 26.8672 51.6219 26.5778 51.6692 26.0227C51.8346 24.4753 51.9645 22.9398 52.059 21.4161C52.1535 19.8924 52.1535 18.4277 52.059 17.0222C52.0354 16.7032 52.1653 16.5024 52.4488 16.4198C52.6141 16.3843 52.7559 16.4079 52.874 16.4906C52.9921 16.5615 53.063 16.6737 53.0866 16.8273C53.1929 17.536 53.2461 18.2919 53.2461 19.0951C53.2579 19.8983 53.2343 20.7015 53.1752 21.5047C53.1279 22.3079 53.063 23.0934 52.9803 23.8611C52.9094 24.6171 52.8504 25.3199 52.8031 25.9695Z" fill="#293896"/>
<path d="M30.6512 24.3396C30.4504 24.3632 30.2673 24.3278 30.1019 24.2333C29.9484 24.1388 29.8657 23.9735 29.8539 23.7372C29.8421 23.5364 29.9071 23.3888 30.0488 23.2943C30.1905 23.1998 30.3677 23.1289 30.5803 23.0817C31.0055 22.999 31.4957 22.9104 32.0509 22.8159C32.6178 22.7096 33.1907 22.5974 33.7695 22.4793C34.3601 22.3612 34.9329 22.243 35.4881 22.1249C36.0432 22.0068 36.5334 21.8887 36.9586 21.7706C37.1831 21.6997 37.3662 21.7056 37.5079 21.7883C37.6614 21.8592 37.7559 21.995 37.7914 22.1958C37.815 22.3848 37.7737 22.5442 37.6673 22.6742C37.5729 22.7923 37.437 22.8809 37.2598 22.9399C36.4803 23.1762 35.7302 23.3829 35.0097 23.5601C34.2892 23.7254 33.5923 23.8672 32.919 23.9853V27.3162C33.2616 27.2453 33.61 27.1626 33.9644 27.0681C34.3305 26.9736 34.6731 26.8732 34.992 26.7669C35.3227 26.6606 35.6239 26.5602 35.8956 26.4657C36.1673 26.3594 36.3917 26.2649 36.5689 26.1823C36.8523 26.0523 37.0768 26.0051 37.2421 26.0405C37.4193 26.0759 37.5374 26.1645 37.5965 26.3063C37.6674 26.4716 37.6496 26.6429 37.5433 26.8201C37.437 26.9854 37.2539 27.1331 36.9941 27.263C36.7578 27.3811 36.4685 27.5052 36.1259 27.6351C35.7834 27.7768 35.4172 27.9009 35.0274 28.0072C34.6376 28.1253 34.242 28.2257 33.8404 28.3084C33.4388 28.4029 33.0608 28.456 32.7064 28.4678C32.3993 28.4796 32.1631 28.3969 31.9977 28.2198C31.8324 28.0544 31.7497 27.7886 31.7497 27.4225C31.7497 26.7728 31.7556 26.1704 31.7674 25.6153C31.7792 25.0601 31.7733 24.5818 31.7497 24.1802C31.5607 24.2156 31.3717 24.2451 31.1827 24.2688C31.0055 24.2924 30.8284 24.316 30.6512 24.3396ZM32.7419 19.7153C33.3088 19.5854 33.8581 19.426 34.3896 19.237C34.9211 19.0362 35.4113 18.8176 35.8602 18.5814C36.3208 18.3216 36.6161 18.3629 36.746 18.7054C36.8523 18.9771 36.7224 19.2547 36.3562 19.5382C36.0964 19.739 35.8011 19.9279 35.4704 20.1051C35.1396 20.2823 34.7912 20.4359 34.425 20.5658C34.0707 20.6957 33.7163 20.8079 33.362 20.9024C33.0076 20.9851 32.6769 21.0382 32.3698 21.0619C32.0745 21.0855 31.8442 21.0087 31.6788 20.8315C31.5134 20.6426 31.4426 20.3591 31.4662 19.9811C31.5016 19.4378 31.5194 18.9476 31.5194 18.5105C31.5194 18.0735 31.5194 17.5892 31.5194 17.0577C31.5194 16.8215 31.5607 16.6502 31.6434 16.5439C31.7379 16.4376 31.856 16.3785 31.9977 16.3667C32.3285 16.3549 32.5293 16.5498 32.6001 16.9514C32.6592 17.4121 32.6946 17.8668 32.7064 18.3156C32.7301 18.7527 32.7419 19.2192 32.7419 19.7153Z" fill="#293896"/>
<path d="M21.5268 18.8118C21.5032 18.4693 21.6744 18.2626 22.0406 18.1917C23.269 17.9791 24.4147 17.6897 25.4778 17.3235C25.9148 17.1818 26.2101 17.2763 26.3637 17.607C26.4227 17.737 26.4286 17.8905 26.3814 18.0677C26.346 18.2449 26.2515 18.3748 26.0979 18.4575C25.6609 18.6819 25.1766 18.865 24.6451 19.0067C24.1254 19.1366 23.582 19.2311 23.0151 19.2902C23.0032 19.6682 23.0032 20.0698 23.0151 20.495C23.0269 20.9202 23.0446 21.2746 23.0682 21.558C23.0918 21.7707 23.21 21.8415 23.4226 21.7707C23.9068 21.6171 24.3616 21.4458 24.7868 21.2568C25.212 21.056 25.6373 20.8375 26.0625 20.6013C26.2633 20.495 26.4582 20.4714 26.6472 20.5304C26.8361 20.5895 26.972 20.7076 27.0547 20.8848C27.1492 21.062 27.1492 21.245 27.0547 21.434C26.9602 21.6112 26.8184 21.747 26.6294 21.8415C26.3814 21.9596 26.1156 22.0837 25.8322 22.2136C25.5605 22.3435 25.2829 22.4675 24.9994 22.5857C24.7159 22.692 24.4384 22.7865 24.1667 22.8691C23.895 22.9518 23.6352 23.005 23.3871 23.0286C22.9619 23.0522 22.6312 22.9636 22.3949 22.7628C22.1705 22.562 22.0465 22.2786 22.0229 21.9124C21.9993 21.5817 21.9874 21.1742 21.9874 20.6899C21.9993 20.1938 22.017 19.7449 22.0406 19.3434C21.7217 19.3197 21.5504 19.1426 21.5268 18.8118ZM28.5429 24.2157C28.5548 24.3692 28.5193 24.4992 28.4366 24.6055C28.354 24.7118 28.2122 24.824 28.0114 24.9421C27.6098 25.1547 27.1492 25.3437 26.6294 25.5091C26.1097 25.6744 25.5664 25.8162 24.9994 25.9343C24.4325 26.0406 23.8537 26.1292 23.2631 26.2001C22.6725 26.2591 22.1115 26.3005 21.5799 26.3241C21.4028 26.3359 21.2551 26.2709 21.137 26.1292C21.0307 25.9874 20.9775 25.8162 20.9775 25.6154C20.9775 25.4382 21.0366 25.3024 21.1547 25.2079C21.2728 25.1016 21.4146 25.0425 21.5799 25.0307C22.0406 24.9834 22.5308 24.9185 23.0505 24.8358C23.582 24.7531 24.1135 24.6586 24.6451 24.5523C25.1766 24.446 25.6963 24.3338 26.2042 24.2157C26.7239 24.0858 27.2082 23.9558 27.6571 23.8259C27.9287 23.755 28.1413 23.7609 28.2949 23.8436C28.4484 23.9263 28.5311 24.0503 28.5429 24.2157Z" fill="#293896"/>
<path d="M12.9503 22.2489C12.844 22.2962 12.6846 22.3493 12.4719 22.4084C12.2711 22.4556 12.0526 22.5029 11.8164 22.5501C11.592 22.5974 11.3735 22.6387 11.1608 22.6742C10.96 22.7096 10.8065 22.7391 10.7002 22.7627C10.4285 22.8218 10.2218 22.81 10.0801 22.7273C9.95015 22.6328 9.85565 22.432 9.7966 22.1249C9.74935 21.8769 9.7021 21.5816 9.65485 21.239C9.61942 20.8847 9.58398 20.5244 9.54855 20.1583C9.52493 19.7803 9.5013 19.4141 9.47768 19.0598C9.46587 18.6936 9.45996 18.3747 9.45996 18.103C9.45996 17.9377 9.48358 17.8195 9.53083 17.7487C9.58989 17.666 9.66667 17.6128 9.76116 17.5892C9.87928 17.5656 9.97968 17.5951 10.0624 17.6778C10.145 17.7605 10.1982 17.8668 10.2218 17.9967V18.0676C10.4462 17.9849 10.6884 17.9022 10.9482 17.8195C11.2199 17.725 11.4857 17.6365 11.7455 17.5538C12.0054 17.4593 12.2534 17.3707 12.4897 17.288C12.7259 17.2053 12.9326 17.1286 13.1098 17.0577C13.5232 16.8923 13.8244 16.9219 14.0134 17.1463C14.2142 17.3707 14.285 17.7132 14.226 18.1739C14.1906 18.3983 14.1433 18.6759 14.0842 19.0066C14.037 19.3255 13.9779 19.6622 13.9071 20.0165C13.8362 20.3591 13.7594 20.6898 13.6767 21.0087C13.5941 21.3276 13.4996 21.5934 13.3933 21.806C13.287 22.0068 13.1629 22.1426 13.0212 22.2135H13.0035L12.9503 22.2489ZM16.6179 23.1525C16.5942 23.4006 16.5352 23.5955 16.4407 23.7372C16.358 23.8789 16.2222 23.9498 16.0332 23.9498C15.8442 23.9498 15.7025 23.8849 15.608 23.7549C15.5253 23.625 15.4957 23.4596 15.5194 23.2588C15.5784 22.7155 15.6316 22.119 15.6788 21.4694C15.7379 20.8079 15.791 20.1524 15.8383 19.5027C15.8855 18.8413 15.921 18.2093 15.9446 17.6069C15.98 17.0045 16.0096 16.4789 16.0332 16.0301C16.0568 15.6993 16.169 15.5281 16.3698 15.5163C16.6297 15.5044 16.7773 15.658 16.8128 15.9769C16.86 16.3667 16.8836 16.7978 16.8836 17.2703C16.8954 17.7428 16.8954 18.2389 16.8836 18.7586C17.2852 18.6286 17.7104 18.4928 18.1593 18.3511C18.6199 18.1975 19.0038 18.0381 19.3109 17.8727C19.6417 17.6837 19.8897 17.7073 20.0551 17.9436C20.1496 18.1089 20.1555 18.2802 20.0728 18.4574C19.9901 18.6227 19.8779 18.7586 19.7362 18.8649C19.5944 18.9712 19.4054 19.0834 19.1692 19.2015C18.9448 19.3196 18.6967 19.4377 18.4251 19.5559C18.1652 19.6622 17.8935 19.7744 17.61 19.8925C17.3266 20.0106 17.0608 20.1228 16.8128 20.2291C16.7891 20.7607 16.7537 21.2804 16.7064 21.7883C16.671 22.2844 16.6415 22.7391 16.6179 23.1525ZM18.7971 25.2078C18.8916 25.3023 18.9271 25.4381 18.9034 25.6153C18.8916 25.7924 18.7794 25.9873 18.5668 26.2C18.366 26.4126 18.0707 26.6193 17.6809 26.8201C17.3029 27.0091 16.8895 27.1803 16.4407 27.3339C15.9918 27.4874 15.5371 27.6174 15.0764 27.7237C14.6276 27.83 14.2319 27.889 13.8894 27.9008C13.5822 27.9245 13.3637 27.8595 13.2338 27.7059C13.1039 27.5524 13.0271 27.3221 13.0035 27.015C12.968 26.4716 12.9326 25.9873 12.8972 25.5621C12.8617 25.1369 12.8204 24.7294 12.7731 24.3396C12.7377 23.9144 12.8735 23.6841 13.1807 23.6486C13.346 23.6368 13.4641 23.6959 13.535 23.8258C13.6059 23.9439 13.659 24.1093 13.6945 24.3219C13.7535 24.6526 13.8008 24.9893 13.8362 25.3318C13.8834 25.6625 13.9189 25.9992 13.9425 26.3417C13.9543 26.5779 14.0961 26.6665 14.3677 26.6075C14.9701 26.513 15.5784 26.3535 16.1926 26.1291C16.8187 25.9047 17.3974 25.6271 17.929 25.2964C18.1416 25.1664 18.3187 25.1015 18.4605 25.1015C18.6022 25.1015 18.7144 25.1369 18.7971 25.2078ZM13.1629 18.3865C13.033 18.4337 12.8558 18.4869 12.6314 18.546C12.4188 18.605 12.1826 18.67 11.9227 18.7409C11.6747 18.8117 11.4148 18.8944 11.1431 18.9889C10.8833 19.0716 10.6293 19.1602 10.3813 19.2547C10.4285 19.6563 10.4699 20.0638 10.5053 20.4772C10.5525 20.8788 10.5998 21.2213 10.647 21.5048C10.7415 21.4694 10.8715 21.4339 11.0368 21.3985C11.2022 21.3631 11.3735 21.3276 11.5506 21.2922C11.7396 21.2449 11.9227 21.2036 12.0999 21.1682C12.2771 21.1327 12.4247 21.0973 12.5428 21.0619C12.6019 20.8729 12.6609 20.6662 12.72 20.4417C12.7791 20.2055 12.8381 19.9693 12.8972 19.733C12.9562 19.4968 13.0094 19.2665 13.0566 19.0421C13.1039 18.8058 13.1393 18.5873 13.1629 18.3865Z" fill="#293896"/>
<path d="M59.7824 4.43945C59.806 4.20321 59.8414 3.9847 59.8887 3.7839C59.9477 3.5831 60.0717 3.4827 60.2607 3.4827C60.4615 3.4827 60.6033 3.57719 60.6859 3.76618C60.7804 3.95517 60.8218 4.1855 60.81 4.45716C60.7982 4.87057 60.7804 5.31942 60.7568 5.8037C60.745 6.27617 60.7214 6.76045 60.6859 7.25654C60.6623 7.74082 60.6387 8.23101 60.6151 8.7271C60.5915 9.21138 60.5737 9.67204 60.5619 10.1091C60.5501 10.2036 60.5383 10.3217 60.5265 10.4634C60.5147 10.5933 60.4911 10.7174 60.4556 10.8355C60.4202 10.9536 60.367 11.054 60.2962 11.1367C60.2371 11.2194 60.1544 11.2607 60.0481 11.2607C59.8473 11.2607 59.7174 11.1662 59.6583 10.9772C59.5993 10.7882 59.5816 10.5638 59.6052 10.304C59.617 9.77244 59.6229 9.235 59.6229 8.69166C59.6347 8.13651 59.6524 7.58727 59.676 7.04393C59.2626 7.28016 58.7902 7.52821 58.2586 7.78807C57.7389 8.03611 57.2546 8.26054 56.8058 8.46134L56.54 9.96733C56.4928 10.1681 56.4278 10.3571 56.3451 10.5343C56.2743 10.7115 56.1266 10.7823 55.9022 10.7469C55.7723 10.7233 55.6719 10.6111 55.601 10.4103C55.5419 10.2095 55.5419 9.99095 55.601 9.75472C55.6837 9.41218 55.7546 9.05783 55.8136 8.69166C55.8845 8.31369 55.9376 7.94753 55.9731 7.59317C56.0203 7.23882 56.0558 6.90219 56.0794 6.58327C56.1148 6.25254 56.1384 5.96906 56.1502 5.73283C56.1502 5.53203 56.0735 5.47888 55.9199 5.57337C55.7782 5.65605 55.6128 5.75055 55.4238 5.85685C55.2348 5.96316 55.0399 6.08127 54.8391 6.2112C54.6502 6.32932 54.4612 6.45925 54.2722 6.60099C54.0832 6.73092 53.9119 6.86085 53.7584 6.99078C53.6875 7.65223 53.593 8.28416 53.4749 8.88656C53.3568 9.47714 53.2505 10.0264 53.156 10.5343C53.1205 10.7351 53.0497 10.8709 52.9434 10.9418C52.8489 11.0009 52.7544 11.0304 52.6599 11.0304C52.53 11.0304 52.4177 10.9772 52.3233 10.8709C52.2406 10.7646 52.211 10.6052 52.2347 10.3926C52.2819 9.99095 52.3469 9.58345 52.4296 9.17004C52.5241 8.74482 52.6067 8.3255 52.6776 7.91209C52.7603 7.48687 52.8193 7.06755 52.8548 6.65414C52.902 6.22892 52.9079 5.8037 52.8725 5.37848C52.589 5.36667 52.2937 5.43754 51.9866 5.59109C51.6795 5.73283 51.4197 5.88048 51.207 6.03403C51.0535 6.14033 50.9059 6.2053 50.7641 6.22892C50.6342 6.25254 50.5161 6.21711 50.4098 6.12262C50.2916 6.01631 50.2562 5.87457 50.3035 5.69739C50.3625 5.52022 50.4334 5.37848 50.5161 5.27217C50.6224 5.15406 50.7759 5.03003 50.9767 4.9001C51.1775 4.75836 51.396 4.63434 51.6323 4.52803C51.8803 4.40992 52.1225 4.32133 52.3587 4.26227C52.6067 4.1914 52.8253 4.15597 53.0142 4.15597C53.2977 4.17959 53.4985 4.25637 53.6166 4.38629C53.7466 4.51622 53.8174 4.74065 53.8293 5.05956V5.57337C54.1482 5.34895 54.5084 5.11271 54.91 4.86467C55.3234 4.61662 55.7014 4.3922 56.0439 4.1914C56.3156 4.02604 56.5578 3.9847 56.7704 4.06738C56.983 4.15006 57.0952 4.35677 57.107 4.68749C57.1306 5.07728 57.1306 5.47297 57.107 5.87457C57.0952 6.26436 57.0657 6.65414 57.0184 7.04393C57.3964 6.89038 57.8393 6.68958 58.3472 6.44153C58.8551 6.18167 59.3158 5.92182 59.7292 5.66196L59.7824 4.43945ZM62.6172 3.65987C62.629 3.47089 62.6644 3.2878 62.7235 3.11063C62.7825 2.93345 62.9006 2.83896 63.0778 2.82715C63.1841 2.82715 63.2668 2.86258 63.3259 2.93345C63.3849 3.00432 63.4263 3.09291 63.4499 3.19922C63.4853 3.30552 63.503 3.41183 63.503 3.51813C63.5149 3.62444 63.5267 3.71303 63.5385 3.7839C63.5621 4.2918 63.568 4.82923 63.5562 5.3962C63.5562 5.95135 63.5444 6.51831 63.5208 7.09708C63.4971 7.67586 63.4676 8.25463 63.4322 8.8334C63.4085 9.41218 63.379 9.96733 63.3436 10.4989C63.3318 10.6997 63.2727 10.8768 63.1664 11.0304C63.0719 11.1839 62.9243 11.2607 62.7235 11.2607C62.6054 11.2607 62.5168 11.2312 62.4577 11.1721C62.4105 11.1013 62.375 11.0245 62.3514 10.9418C62.3278 10.8473 62.316 10.7528 62.316 10.6583C62.316 10.552 62.316 10.4634 62.316 10.3926C62.3514 9.31768 62.3927 8.19557 62.44 7.02621C62.499 5.85685 62.5581 4.73474 62.6172 3.65987Z" fill="#293896"/>
<path d="M43.8335 8.72717C43.8571 8.92797 43.8689 9.12877 43.8689 9.32957C43.8807 9.53037 43.8925 9.73116 43.9044 9.93196C44.4359 9.69573 44.9851 9.4595 45.5521 9.22326C46.1191 8.98703 46.6978 8.80985 47.2884 8.69173C47.501 8.6563 47.6782 8.66811 47.8199 8.72717C47.9617 8.77442 48.0621 8.8571 48.1211 8.97521C48.192 9.08152 48.2215 9.21736 48.2097 9.38272C48.2097 9.53627 48.1684 9.69573 48.0857 9.86109C47.814 10.4162 47.442 10.9832 46.9695 11.562C46.497 12.1408 46.0364 12.6959 45.5875 13.2274C45.7765 13.2038 45.9891 13.1625 46.2254 13.1034C46.4616 13.0562 46.6978 13.003 46.9341 12.944C47.1703 12.8849 47.3947 12.8258 47.6073 12.7668C47.8318 12.6959 48.0207 12.6309 48.1743 12.5719C48.3397 12.5128 48.5109 12.4951 48.6881 12.5187C48.8771 12.5305 49.0011 12.6309 49.0602 12.8199C49.1192 13.0089 49.0779 13.1743 48.9361 13.316C48.7944 13.4696 48.6586 13.5759 48.5286 13.6349C48.3397 13.7294 48.1093 13.8239 47.8377 13.9184C47.566 14.0129 47.2825 14.0956 46.9872 14.1665C46.6919 14.2491 46.3907 14.3141 46.0836 14.3614C45.7883 14.4204 45.5226 14.4559 45.2863 14.4677C45.0973 14.4795 44.9261 14.4499 44.7725 14.3791C44.6308 14.32 44.5186 14.2314 44.4359 14.1133C44.365 13.9952 44.3355 13.8475 44.3473 13.6704C44.3591 13.505 44.43 13.316 44.5599 13.1034C44.8316 12.6664 45.1682 12.2057 45.5698 11.7214C45.9832 11.2372 46.4143 10.6761 46.8632 10.0383C46.5088 10.0973 46.0659 10.245 45.5344 10.4812C45.0028 10.7056 44.4713 10.9655 43.9398 11.2608C43.9516 11.8868 43.9516 12.5128 43.9398 13.1388C43.928 13.7649 43.9162 14.3909 43.9044 15.0169C43.9044 15.1468 43.8748 15.2945 43.8158 15.4598C43.7567 15.6252 43.6504 15.7079 43.4969 15.7079C43.4024 15.7079 43.3256 15.6725 43.2665 15.6016C43.2075 15.5425 43.1543 15.4658 43.1071 15.3713C43.0598 15.2768 43.0244 15.1823 43.0008 15.0878C42.989 14.9933 42.983 14.9106 42.983 14.8397C42.983 14.4145 42.983 13.9361 42.983 13.4046C42.983 12.8849 42.983 12.3593 42.983 11.8277C42.983 11.2844 42.983 10.7647 42.983 10.2686C42.9949 9.76069 43.0008 9.32366 43.0008 8.9575C43.0008 8.73307 43.0303 8.5559 43.0893 8.42597C43.1484 8.28423 43.2606 8.21336 43.426 8.21336C43.6858 8.21336 43.8217 8.38463 43.8335 8.72717ZM41.229 3.19929C40.9691 2.89218 40.7152 2.52602 40.4671 2.1008C40.2191 1.66376 39.9652 1.23264 39.7053 0.807415C39.6462 0.689298 39.6049 0.547558 39.5813 0.382194C39.5695 0.21683 39.6403 0.104618 39.7939 0.0455599C39.9592 -0.0253109 40.1069 -0.0134993 40.2368 0.0809946C40.3668 0.175489 40.4849 0.305417 40.5912 0.470781C40.8038 0.848756 41.04 1.23854 41.2999 1.64014C41.5597 2.02993 41.8078 2.41381 42.044 2.79178C42.1503 2.95715 42.1858 3.1107 42.1503 3.25244C42.3866 3.25244 42.5519 3.32922 42.6464 3.48277C42.7527 3.63632 42.7409 3.84893 42.611 4.1206C42.4456 4.46314 42.233 4.81749 41.9731 5.18365C41.7251 5.54982 41.483 5.88645 41.2467 6.19356C41.3648 6.29986 41.4889 6.41798 41.6188 6.54791C41.7605 6.66602 41.8846 6.79595 41.9909 6.93769C42.0972 7.06762 42.168 7.21527 42.2035 7.38063C42.2389 7.546 42.2212 7.72317 42.1503 7.91216C42.0913 8.07752 41.9495 8.24879 41.7251 8.42597C41.5007 8.60315 41.2467 8.76851 40.9632 8.92206C40.6916 9.07562 40.4081 9.21145 40.1128 9.32957C39.8175 9.43587 39.5695 9.50084 39.3687 9.52446C39.2033 9.54808 39.0497 9.53037 38.908 9.47131C38.7663 9.40044 38.6541 9.30594 38.5714 9.18783C38.4887 9.06971 38.4414 8.92797 38.4296 8.7626C38.4178 8.58543 38.4533 8.40235 38.5359 8.21336C38.6659 7.92988 38.8253 7.6523 39.0143 7.38063C39.2033 7.10896 39.41 6.8373 39.6344 6.56563C39.8588 6.29396 40.0892 6.01638 40.3254 5.7329C40.5616 5.44942 40.792 5.15413 41.0164 4.84702C41.0755 4.77615 41.0814 4.7289 41.0341 4.70528C40.9987 4.66985 40.9455 4.66394 40.8747 4.68756C40.7565 4.69937 40.5853 4.7289 40.3608 4.77615C40.1482 4.81159 39.9238 4.85293 39.6876 4.90017C39.4632 4.94742 39.2505 4.99467 39.0497 5.04191C38.8489 5.08916 38.6954 5.11869 38.5891 5.1305C38.4355 5.15413 38.2879 5.1305 38.1462 5.05963C38.0162 4.97695 37.9276 4.83521 37.8804 4.63441C37.8568 4.51629 37.8627 4.40408 37.8981 4.29778C37.9454 4.19147 38.0517 4.1206 38.217 4.08517L41.3885 3.37646C41.353 3.35284 41.2999 3.29378 41.229 3.19929ZM46.1368 7.25661C46.1368 7.43379 46.1132 7.62868 46.0659 7.84129C46.0187 8.04209 45.8946 8.14839 45.6938 8.16021C45.5875 8.17202 45.4989 8.1543 45.4281 8.10705C45.369 8.048 45.3218 7.98303 45.2863 7.91216C45.2509 7.82948 45.2273 7.74089 45.2155 7.6464C45.2036 7.5519 45.1977 7.46922 45.1977 7.39835C45.2096 6.4416 45.2332 5.46123 45.2686 4.45723C45.3159 3.44143 45.3395 2.5024 45.3395 1.64014C45.3395 1.36847 45.3631 1.15586 45.4104 1.00231C45.4694 0.848756 45.5816 0.771979 45.747 0.771979C45.9123 0.771979 46.0187 0.848756 46.0659 1.00231C46.125 1.15586 46.1545 1.34485 46.1545 1.56927V3.83712C46.5679 3.76625 46.999 3.67176 47.4479 3.55364C47.9085 3.42371 48.3278 3.28197 48.7058 3.12842C48.8239 3.08117 48.9421 3.05164 49.0602 3.03983C49.1901 3.01621 49.3082 3.06936 49.4145 3.19929C49.4972 3.30559 49.5326 3.44143 49.5208 3.60679C49.509 3.77215 49.4381 3.90799 49.3082 4.0143C48.8594 4.33321 48.3515 4.56354 47.7845 4.70528C47.2175 4.83521 46.6683 4.94742 46.1368 5.04191V7.25661ZM39.6876 8.31966C39.8766 8.30785 40.1069 8.21927 40.3786 8.0539C40.6502 7.88854 40.8687 7.70546 41.0341 7.50466C40.9751 7.43379 40.8983 7.3511 40.8038 7.25661C40.7211 7.16212 40.6325 7.06762 40.538 6.97313C40.4081 7.11487 40.2486 7.29795 40.0596 7.52237C39.8825 7.7468 39.7407 7.94169 39.6344 8.10705C39.6108 8.1543 39.5931 8.20155 39.5813 8.24879C39.5813 8.29604 39.6167 8.31966 39.6876 8.31966Z" fill="#293896"/>
<path d="M29.0405 1.33914C29.0759 2.8038 29.0759 4.26254 29.0405 5.71538C29.383 5.58545 29.7315 5.44962 30.0858 5.30788C30.452 5.15433 30.7886 5.0303 31.0957 4.93581C31.2611 4.87675 31.4028 4.87085 31.521 4.91809C31.6391 4.96534 31.7218 5.04802 31.769 5.16614C31.8163 5.27244 31.8222 5.39056 31.7867 5.52049C31.7513 5.63861 31.6509 5.76263 31.4855 5.89256C31.3674 5.97524 31.2139 6.07564 31.0249 6.19376C30.8359 6.30006 30.6292 6.41818 30.4048 6.54811C30.1803 6.66623 29.9441 6.79025 29.6961 6.92018C29.4598 7.0383 29.2295 7.15051 29.0051 7.25681C28.946 8.67422 28.8633 10.0798 28.757 11.4736C28.6625 12.8556 28.5326 14.2375 28.3672 15.6195C28.3318 15.8794 28.255 16.0683 28.1369 16.1865C28.0306 16.3046 27.9007 16.3636 27.7471 16.3636C27.5818 16.3636 27.4459 16.2987 27.3396 16.1687C27.2333 16.0506 27.192 15.8735 27.2156 15.6372C27.3337 14.4915 27.44 13.3635 27.5345 12.2532C27.6408 11.1429 27.7235 10.0208 27.7826 8.88683C27.2628 9.02857 26.6841 9.18212 26.0462 9.34748C25.4084 9.50104 24.7647 9.64868 24.115 9.79042C23.4654 9.93217 22.8453 10.0621 22.2547 10.1802C21.6759 10.2983 21.1916 10.3928 20.8018 10.4637C20.4002 10.5109 20.164 10.3751 20.0931 10.0562C20.0695 9.92626 20.0872 9.81405 20.1463 9.71955C20.2053 9.62506 20.3235 9.54238 20.5006 9.47151C20.8432 9.34158 21.1385 9.19984 21.3865 9.04629C21.6464 8.88092 21.8413 8.69784 21.9712 8.49704C22.0893 8.31987 22.1838 8.12497 22.2547 7.91236C22.3255 7.68794 22.3787 7.45761 22.4141 7.22138C22.4496 6.98514 22.4614 6.75481 22.4496 6.53039C22.4496 6.29416 22.4378 6.08155 22.4141 5.89256C22.3905 5.7272 22.42 5.60317 22.5027 5.52049C22.5972 5.43781 22.6976 5.38466 22.8039 5.36103C22.922 5.33741 23.0342 5.36103 23.1406 5.4319C23.2469 5.49096 23.3177 5.58545 23.3532 5.71538C23.4831 6.17604 23.5185 6.67804 23.4595 7.22138C23.4004 7.7529 23.2587 8.28443 23.0343 8.81596L24.5402 8.49704C24.682 8.03638 24.7883 7.55801 24.8592 7.06192C24.9418 6.56583 25.0009 6.08745 25.0363 5.6268C25.0718 5.15433 25.0895 4.71729 25.0895 4.3157C25.0895 3.90229 25.0718 3.55384 25.0363 3.27036C24.7529 3.32942 24.4339 3.38848 24.0796 3.44753C23.7252 3.49478 23.365 3.54793 22.9988 3.60699C22.6445 3.65424 22.3019 3.70149 21.9712 3.74873C21.6405 3.78417 21.3629 3.8137 21.1385 3.83732C20.9377 3.86094 20.7841 3.82551 20.6778 3.73102C20.5833 3.63652 20.5243 3.50659 20.5006 3.34123C20.4652 2.97507 20.6128 2.75064 20.9436 2.66796C21.2507 2.6089 21.5932 2.54394 21.9712 2.47307C22.3492 2.4022 22.7271 2.33723 23.1051 2.27817C23.4949 2.2073 23.8729 2.14234 24.239 2.08328C24.6052 2.02422 24.93 1.96516 25.2135 1.90611C25.497 1.84705 25.7037 1.85886 25.8336 1.94154C25.9636 2.02422 26.0521 2.18368 26.0994 2.41992C26.1584 2.78608 26.1939 3.2113 26.2057 3.69558C26.2175 4.17986 26.2057 4.68776 26.1703 5.21929C26.1348 5.73901 26.0758 6.26463 25.9931 6.79615C25.9222 7.31587 25.8277 7.78834 25.7096 8.21356C26.0876 8.11907 26.4537 8.01867 26.8081 7.91236C27.1743 7.80606 27.5168 7.69385 27.8357 7.57573C27.9184 5.50868 27.9538 3.40029 27.942 1.25056C27.942 0.707216 28.1133 0.435547 28.4558 0.435547C28.6921 0.435547 28.8456 0.524135 28.9165 0.701311C28.9874 0.866675 29.0287 1.07929 29.0405 1.33914Z" fill="#293896"/>
<path d="M14.7666 3.81926C14.7784 4.19723 14.7489 4.65789 14.678 5.20123C14.619 5.74457 14.5186 6.25247 14.3768 6.72494C14.4359 6.79581 14.4713 6.87849 14.4831 6.97299C14.4949 7.1856 14.4418 7.36277 14.3237 7.50451C14.2174 7.63444 14.0815 7.74075 13.9162 7.82343C13.55 8.0006 13.1071 8.16006 12.5873 8.3018C12.0794 8.43173 11.6129 8.53804 11.1877 8.62072C10.9278 8.67978 10.7329 8.66797 10.603 8.58528C10.4849 8.5026 10.4022 8.33133 10.3549 8.07148C10.3077 7.77618 10.2545 7.44545 10.1955 7.07929C10.1482 6.70132 10.0951 6.32925 10.036 5.96308C9.98877 5.59692 9.94152 5.24848 9.89428 4.91775C9.85884 4.57521 9.82931 4.27991 9.80569 4.03187C9.79388 3.8665 9.8175 3.71295 9.87656 3.57121C9.94743 3.42947 10.0833 3.3527 10.2841 3.34088C10.3786 3.32907 10.479 3.3586 10.5853 3.42947C10.6916 3.48853 10.7742 3.58893 10.8333 3.73067C11.0577 3.69523 11.2999 3.64799 11.5597 3.58893C11.8196 3.52987 12.0794 3.47081 12.3393 3.41175C12.611 3.3527 12.8767 3.29954 13.1366 3.2523C13.3964 3.19324 13.6386 3.14008 13.863 3.09284C14.1347 3.03378 14.3473 3.07512 14.5008 3.21686C14.6662 3.3586 14.7548 3.5594 14.7666 3.81926ZM19.0188 12.3414C19.0188 12.5068 18.9657 12.6721 18.8594 12.8375C18.7531 13.0029 18.5936 13.121 18.381 13.1919C18.1448 13.2863 17.8436 13.3749 17.4774 13.4576C17.1112 13.5521 16.7214 13.6348 16.308 13.7057C15.8946 13.7765 15.4753 13.8415 15.0501 13.9006C14.6367 13.9596 14.2587 13.995 13.9162 14.0069C13.361 14.0187 13.1189 13.7706 13.1897 13.2627C13.2488 12.7666 13.302 12.2351 13.3492 11.6681C13.4083 11.1012 13.4614 10.5933 13.5087 10.1444C13.5205 10.0381 13.5618 9.94363 13.6327 9.86095C13.7154 9.76646 13.8158 9.71921 13.9339 9.71921C14.1465 9.71921 14.2882 9.79598 14.3591 9.94954C14.43 10.1031 14.4654 10.2803 14.4654 10.4811C14.4536 10.8709 14.43 11.2488 14.3945 11.615C14.3709 11.9812 14.3473 12.3119 14.3237 12.6072C14.3237 12.6662 14.3296 12.7135 14.3414 12.7489C14.365 12.7843 14.4182 12.7903 14.5008 12.7666C14.8316 12.7194 15.1741 12.6721 15.5285 12.6249C15.8828 12.5658 16.2254 12.5068 16.5561 12.4477C16.8986 12.3887 17.2175 12.3296 17.5128 12.2705C17.8081 12.1997 18.0621 12.1347 18.2747 12.0756C18.4519 12.0166 18.6172 12.0048 18.7708 12.0402C18.9361 12.0638 19.0188 12.1642 19.0188 12.3414ZM17.566 1.53369C17.7668 1.53369 17.9144 1.61637 18.0089 1.78174C18.1034 1.93529 18.1507 2.11837 18.1507 2.33098C18.1507 2.89794 18.1448 3.50625 18.1329 4.15589C18.1329 4.79372 18.1211 5.41974 18.0975 6.03395C18.0857 6.64816 18.068 7.21513 18.0444 7.73484C18.0207 8.25456 17.9853 8.66797 17.9381 8.97507C17.8908 9.24674 17.814 9.49479 17.7077 9.71921C17.6132 9.93182 17.4656 10.0381 17.2648 10.0381C17.0285 10.0381 16.9045 9.94954 16.8927 9.77236C16.8927 9.58337 16.9045 9.34123 16.9281 9.04594C16.9872 8.57347 17.0285 8.04785 17.0522 7.46908C17.0876 6.8903 17.1112 6.29381 17.123 5.6796C17.1467 5.06539 17.1585 4.45709 17.1585 3.85469C17.1585 3.24048 17.1585 2.66762 17.1585 2.13609C17.1585 2.00616 17.188 1.87623 17.2471 1.7463C17.3061 1.60456 17.4124 1.53369 17.566 1.53369ZM13.5972 4.33307C13.2311 4.41575 12.8177 4.50434 12.357 4.59883C11.8964 4.68151 11.4475 4.7701 11.0105 4.86459C11.0577 5.278 11.105 5.72094 11.1522 6.19341C11.2113 6.65407 11.2762 7.04976 11.3471 7.38049C11.6188 7.30962 11.9259 7.23284 12.2684 7.15016C12.6228 7.06748 12.9712 6.96708 13.3138 6.84896C13.4437 6.38831 13.5323 5.93355 13.5795 5.48471C13.6386 5.03586 13.6445 4.65198 13.5972 4.33307Z" fill="#293896"/>
<path d="M6.12044 9.32967C6.2858 9.29424 6.42754 9.30014 6.54566 9.34739C6.67559 9.38283 6.76417 9.48323 6.81142 9.64859C6.85867 9.82577 6.88229 10.0797 6.88229 10.4104C6.8941 10.7412 6.8941 11.1132 6.88229 11.5267C6.87048 11.9283 6.84095 12.3535 6.7937 12.8023C6.75827 13.2512 6.71102 13.6764 6.65196 14.078C6.5929 14.4914 6.52794 14.8576 6.45707 15.1765C6.39801 15.5072 6.33305 15.7552 6.26218 15.9206C6.13225 16.2395 5.9846 16.399 5.81924 16.399C5.70112 16.399 5.62434 16.3517 5.58891 16.2572C5.56529 16.1627 5.56529 16.0328 5.58891 15.8675C5.62434 15.5367 5.66569 15.141 5.71293 14.6804C5.77199 14.2315 5.81924 13.765 5.85467 13.2807C5.90192 12.8082 5.93736 12.3476 5.96098 11.8987C5.9846 11.4499 5.9846 11.066 5.96098 10.7471C5.32315 10.7353 4.66169 10.7943 3.97661 10.9243C3.30334 11.0542 2.67732 11.1782 2.09855 11.2963C1.945 11.3318 1.82097 11.2904 1.72648 11.1723C1.6438 11.0542 1.59064 10.9065 1.56702 10.7294C1.5434 10.5876 1.57883 10.4754 1.67333 10.3927C1.76782 10.31 1.87413 10.251 1.99224 10.2156C2.77182 10.0266 3.34468 9.70765 3.71085 9.2588C4.07701 8.79815 4.266 8.12488 4.27781 7.239C3.59273 7.39255 2.91946 7.53429 2.25801 7.66422C1.60836 7.78234 1.06502 7.87093 0.627989 7.92999C0.462625 7.95361 0.320885 7.92999 0.202768 7.85912C0.0846507 7.78825 0.0196862 7.67603 0.00787448 7.52248C-0.015749 7.29806 0.0137803 7.08545 0.0964624 6.88465C0.190956 6.68385 0.35632 6.57164 0.592554 6.54801C1.1477 6.50077 1.80916 6.39446 2.57692 6.2291C3.3565 6.05192 4.13607 5.86884 4.91564 5.67985C5.05738 5.42 5.16959 5.13061 5.25227 4.81169C5.34677 4.49278 5.41173 4.17386 5.44717 3.85494C5.49442 3.53603 5.51804 3.22302 5.51804 2.91591C5.52985 2.597 5.52394 2.30761 5.50032 2.04775C5.33496 2.04775 5.09872 2.08319 4.79162 2.15406C4.49633 2.21312 4.1715 2.28399 3.81715 2.36667C3.47461 2.44935 3.12617 2.53203 2.77182 2.61471C2.42928 2.68558 2.12808 2.73283 1.86822 2.75646C1.66742 2.78008 1.48434 2.76827 1.31897 2.72102C1.16542 2.66196 1.08865 2.52022 1.08865 2.2958C1.08865 2.095 1.13589 1.94145 1.23039 1.83514C1.32488 1.71702 1.45481 1.64025 1.62017 1.60481C1.6438 1.60481 1.76191 1.58119 1.97452 1.53394C2.18714 1.4867 2.44109 1.43354 2.73638 1.37448C3.03167 1.31543 3.35059 1.25046 3.69313 1.17959C4.04748 1.09691 4.37821 1.02604 4.68531 0.966981C4.99242 0.907922 5.25818 0.860675 5.4826 0.82524C5.70703 0.777993 5.84877 0.748464 5.90782 0.736652C6.20312 0.701217 6.36848 0.831146 6.40392 1.12644C6.49841 1.85876 6.51022 2.62062 6.43935 3.41201C6.38029 4.19158 6.23265 4.85894 5.99641 5.41409C6.23265 5.35503 6.45116 5.30188 6.65196 5.25463C6.85276 5.20739 7.04766 5.16014 7.23664 5.11289C7.61462 5.04202 7.8981 5.04202 8.08709 5.11289C8.27607 5.18376 8.33513 5.35503 8.26426 5.6267C8.2052 5.86294 8.05756 6.05192 7.82132 6.19366C7.58509 6.32359 7.35476 6.42399 7.13034 6.49486C6.90592 6.56573 6.65196 6.64251 6.36848 6.72519C6.09681 6.79606 5.79561 6.87284 5.46489 6.95552C5.3822 7.36893 5.30543 7.81777 5.23456 8.30205C5.16369 8.78633 5.08101 9.19384 4.98651 9.52457C5.15188 9.48913 5.33496 9.4537 5.53576 9.41826C5.73656 9.38283 5.93145 9.3533 6.12044 9.32967Z" fill="#293896"/>
<path d="M151.944 13.9609V16.5335H163.082V21.2708H134.219V16.5335H145.325V13.9609H140.274C137.356 13.9609 135.003 11.357 135.003 8.1256C135.003 4.89422 137.356 2.22754 140.274 2.22754H157.058C159.944 2.22754 162.36 4.89422 162.36 8.1256C162.36 11.357 159.944 13.9609 157.058 13.9609H151.944ZM141.403 8.00011C141.403 8.4707 141.685 8.87855 142.156 8.87855H155.144C155.615 8.87855 155.897 8.4707 155.897 8.00011C155.897 7.52952 155.615 7.12168 155.144 7.12168H142.156C141.685 7.12168 141.403 7.52952 141.403 8.00011ZM135.317 22.4943H142.125V26.9492H162.454V31.561H135.317V22.4943Z" fill="#293896"/>
<path d="M130.454 19.7337H123.552V2.41602H130.454V7.84349H133.716V13.5219H130.454V19.7337ZM115.112 7.52976H103.473V2.88661H121.795L120.822 13.2396H114.579L115.112 7.52976ZM122.767 18.5729L102.846 20.1416V15.2788L106.579 14.9965V9.38075H112.258V14.5572L122.767 13.7102V18.5729ZM104.477 26.0396C104.477 22.7455 107.175 20.3612 110.563 20.3612H124.932C128.383 20.3612 131.081 22.7455 131.081 26.0396C131.081 29.3024 128.383 31.7181 124.932 31.7181H110.563C107.175 31.7181 104.477 29.3024 104.477 26.0396ZM112.759 27.0436H122.705C123.583 27.0436 124.179 26.7926 124.179 26.0396C124.179 25.1926 123.583 25.0043 122.705 25.0043H112.759C112.007 25.0043 111.41 25.1926 111.41 26.0396C111.41 26.7926 112.007 27.0436 112.759 27.0436Z" fill="#293896"/>
<path d="M99.0811 19.8906H92.1791V2.41602H99.0811V7.81212H102.344V13.3337H99.0811V19.8906ZM88.885 18.8867H72.1006V2.72974H78.7202V5.52191H82.3908V2.72974H88.885V18.8867ZM78.7202 10.5102V13.8984H82.3908V10.5102H78.7202ZM99.0811 31.875H91.8654V25.8514H73.1045V20.6749H99.0811V31.875Z" fill="#293896"/>
</svg>
